{"glyphs":{"0":{"ha":1015,"x_min":6,"x_max":994,"o":"m 832 507 q 829 545 832 523 q 820 589 825 568 q 808 628 814 610 q 796 652 802 646 q 779 673 789 661 q 756 697 768 685 q 733 721 745 709 q 711 741 721 732 q 661 729 692 729 q 647 733 655 729 q 629 744 638 738 q 611 754 620 749 q 598 758 603 758 q 539 753 565 758 q 491 737 514 748 q 446 709 469 726 q 395 667 423 691 q 243 486 306 589 q 184 285 184 389 q 186 247 184 267 q 193 210 189 227 q 204 180 198 193 q 218 162 210 168 q 330 131 269 131 q 399 143 361 131 q 477 173 437 155 q 553 215 516 192 q 621 258 591 237 q 658 286 637 269 q 703 323 680 302 q 749 368 726 345 q 791 415 772 391 q 821 463 809 439 q 832 507 832 486 m 994 527 q 935 346 994 439 q 868 262 907 303 q 783 182 830 220 q 690 115 739 146 q 589 59 642 84 q 492 20 538 35 q 402 -1 445 5 q 313 -13 351 -9 q 249 -16 275 -16 q 144 5 189 -16 q 68 63 98 26 q 22 148 37 100 q 6 251 6 197 q 40 435 6 335 q 80 529 56 483 q 134 621 103 576 q 195 699 162 663 q 262 762 228 734 q 344 819 301 792 q 432 868 387 846 q 523 902 479 891 q 610 913 566 913 q 681 905 644 913 q 753 881 717 896 q 812 850 783 868 q 865 813 841 831 q 906 780 889 795 q 928 758 922 765 q 978 659 962 716 q 994 527 994 601 z "},"1":{"ha":1015,"x_min":99,"x_max":939,"o":"m 939 211 q 916 163 939 174 q 879 148 897 155 q 841 137 861 142 q 801 128 822 132 q 755 121 780 124 q 682 109 720 115 q 612 90 645 102 l 614 64 q 500 10 614 10 q 481 16 490 10 q 466 30 473 22 q 455 43 459 37 q 449 49 451 49 q 423 43 441 49 q 383 31 404 38 q 342 18 361 24 q 313 10 322 12 q 242 -9 273 -3 q 191 -15 211 -15 q 151 -7 168 -15 q 122 11 133 0 q 105 35 111 22 q 99 57 99 47 q 114 93 99 78 q 154 118 129 107 q 214 136 180 128 q 286 151 248 144 q 359 165 321 157 q 429 186 397 174 q 435 257 433 221 q 440 317 437 292 q 451 402 445 357 q 465 492 458 447 q 479 580 472 538 q 492 655 486 623 q 501 709 497 688 q 505 732 505 730 q 475 716 494 728 q 434 693 456 705 q 391 668 412 680 q 355 649 370 656 q 328 637 346 644 q 289 625 310 631 q 245 614 267 618 q 207 610 224 610 q 168 622 185 610 q 151 658 151 634 q 161 693 151 680 q 191 718 171 707 q 239 740 210 728 q 307 771 269 752 q 329 782 314 774 q 362 801 343 790 q 402 823 381 811 q 441 845 422 835 q 475 864 460 856 q 496 877 490 873 q 535 901 516 890 q 570 919 554 911 q 597 931 586 927 q 615 936 609 936 q 673 898 654 936 q 692 838 692 863 q 671 793 692 816 q 643 660 656 726 q 617 522 629 593 q 600 395 606 453 q 594 294 594 338 q 593 263 594 286 q 592 216 592 240 q 645 227 613 219 q 710 243 677 235 q 769 259 742 252 q 805 268 795 267 q 856 273 829 271 q 915 275 883 275 q 932 238 926 252 q 939 211 939 224 z "},"2":{"ha":1015,"x_min":35,"x_max":987,"o":"m 987 114 q 978 74 987 98 q 959 52 973 62 q 926 32 945 41 q 881 19 906 24 q 828 14 856 14 q 770 15 795 14 q 729 22 745 17 q 677 33 707 28 q 613 41 647 38 q 544 47 579 45 q 476 49 509 49 q 410 46 448 49 q 336 37 373 43 q 266 19 298 30 q 216 -8 234 8 q 191 -33 202 -20 q 171 -52 180 -45 q 147 -64 161 -60 q 111 -68 132 -68 q 35 -3 35 -68 q 44 53 35 27 q 71 101 54 79 q 110 141 88 123 q 155 176 132 160 q 229 222 189 199 q 311 271 269 245 q 392 323 352 296 q 465 379 431 350 q 511 422 492 404 q 544 454 530 440 q 568 480 558 469 q 585 502 577 492 q 615 542 601 522 q 640 580 629 561 q 657 617 651 599 q 664 655 664 636 q 654 701 664 680 q 627 740 644 723 q 584 766 609 756 q 528 776 559 776 q 437 738 501 776 q 398 713 416 725 q 365 689 380 701 q 336 664 349 677 q 310 636 323 651 q 292 619 301 626 q 272 608 283 612 q 247 602 261 604 q 212 600 232 600 q 185 611 198 600 q 164 636 173 621 q 150 666 155 650 q 145 692 145 682 q 151 716 145 707 q 169 735 157 726 q 198 756 180 745 q 238 783 215 767 q 300 827 272 808 q 354 861 328 846 q 405 887 380 876 q 458 907 430 899 q 511 917 480 914 q 581 920 542 920 q 673 898 627 920 q 756 840 720 876 q 816 761 793 805 q 839 674 839 718 q 832 615 839 648 q 802 543 825 581 q 754 471 781 508 q 697 400 727 434 q 626 331 666 365 q 543 266 587 296 q 454 208 499 235 q 365 161 408 182 q 414 170 385 166 q 476 176 443 173 q 545 179 509 178 q 614 180 581 180 q 667 177 640 180 q 722 171 694 174 q 774 164 749 168 q 822 161 800 161 q 851 164 838 161 q 876 170 865 167 q 898 176 888 173 q 921 178 909 178 q 945 171 933 178 q 967 154 958 164 q 982 133 976 144 q 987 114 987 122 z "},"3":{"ha":1015,"x_min":83,"x_max":919,"o":"m 919 366 q 901 278 919 319 q 853 202 883 237 q 784 139 823 168 q 702 87 745 110 q 615 48 659 65 q 532 22 571 32 q 331 -7 423 -7 q 291 -6 312 -7 q 245 -2 271 -5 q 193 6 216 1 q 151 16 170 10 q 122 30 135 20 q 101 53 110 40 q 87 82 92 66 q 83 112 83 97 q 107 173 83 153 q 173 194 131 194 q 184 193 180 194 q 192 190 188 192 q 201 186 196 189 q 216 179 207 183 q 289 152 252 164 q 359 140 325 140 q 437 145 395 140 q 524 160 480 150 q 609 188 568 171 q 683 227 650 204 q 734 280 715 250 q 753 349 753 311 q 740 398 753 380 q 699 424 726 416 q 539 446 629 446 q 336 398 422 446 q 254 446 254 398 q 255 458 254 450 q 261 477 257 467 q 270 497 264 487 q 285 517 276 508 q 310 539 294 526 q 346 571 326 553 q 400 616 367 589 q 473 670 434 642 q 555 725 513 699 q 635 772 597 752 q 599 767 627 772 q 532 755 571 762 q 450 741 494 749 q 367 726 406 733 q 298 715 328 720 q 261 711 269 711 q 159 741 195 711 q 123 833 123 772 q 144 877 123 861 q 195 893 165 893 q 218 890 206 893 q 240 882 229 886 q 260 873 250 878 q 277 865 270 868 q 294 861 285 862 q 315 859 303 859 q 354 861 331 859 q 410 866 377 863 q 486 873 442 869 q 585 881 529 877 q 604 882 591 882 q 633 884 617 883 q 666 886 649 885 q 697 888 683 887 q 722 889 712 888 q 735 890 732 890 q 842 818 842 890 q 834 780 842 796 q 809 747 826 763 q 765 715 791 732 q 701 675 739 698 q 649 646 675 660 q 600 618 623 631 q 557 591 576 605 q 524 564 537 578 q 545 566 532 564 q 572 569 557 567 q 601 572 586 570 q 627 573 615 573 q 739 562 686 573 q 831 527 791 551 q 895 462 871 502 q 919 366 919 422 z "},"4":{"ha":1015,"x_min":39,"x_max":995,"o":"m 635 736 q 590 702 614 720 q 543 665 566 684 q 498 629 519 647 q 460 593 477 611 q 424 558 448 579 q 371 514 399 537 q 315 468 343 490 q 264 429 286 445 q 309 434 283 431 q 365 442 335 438 q 426 451 395 446 q 486 459 457 456 q 537 466 514 463 q 574 470 560 469 q 578 495 576 483 q 585 523 581 508 q 593 557 589 538 q 604 602 598 576 l 635 736 m 995 363 q 989 341 995 352 q 975 323 984 331 q 954 310 966 315 q 930 305 943 305 q 887 315 904 305 q 816 332 856 326 q 735 338 776 338 l 704 338 q 693 277 696 308 q 688 218 689 245 q 687 192 687 204 q 687 167 687 179 q 689 94 687 134 q 713 62 703 79 q 723 38 723 45 q 714 6 723 22 q 693 -22 706 -9 q 665 -41 680 -34 q 635 -49 650 -49 q 613 -47 627 -49 q 583 -40 598 -45 q 554 -24 568 -35 q 534 3 541 -14 q 524 66 524 36 q 526 101 524 78 q 529 148 527 123 q 533 195 531 173 q 535 228 534 217 q 539 280 536 254 q 547 332 542 307 q 411 326 468 332 q 313 310 354 320 q 220 291 264 298 q 136 283 176 283 q 112 289 125 283 q 86 302 99 294 q 60 321 73 311 q 39 344 48 332 q 54 374 42 356 q 84 413 66 391 q 124 458 102 434 q 172 505 147 481 q 221 551 196 528 q 268 591 245 573 q 387 690 337 648 q 472 761 437 731 q 529 809 507 790 q 566 840 551 827 q 589 859 580 852 q 606 871 597 865 q 638 895 618 879 q 681 926 659 911 q 723 954 703 942 q 754 965 743 965 q 811 952 790 965 q 833 917 833 939 q 827 894 831 909 q 817 860 823 878 q 806 821 812 841 q 796 784 801 800 q 769 690 780 734 q 750 605 758 645 q 738 531 743 566 q 727 467 732 496 q 780 465 748 467 q 852 463 812 463 q 926 456 898 463 q 969 437 954 450 q 990 407 985 425 q 995 363 995 388 z "},"5":{"ha":1015,"x_min":85,"x_max":1078,"o":"m 1078 838 q 1070 811 1078 827 q 1049 782 1062 796 q 1021 755 1037 767 q 988 741 1004 744 q 926 732 962 734 q 846 729 891 729 q 813 730 840 729 q 752 732 787 731 q 684 735 718 734 q 629 736 650 736 q 547 733 587 736 q 481 722 507 730 q 459 698 470 711 q 436 670 448 686 q 410 633 424 654 q 377 585 395 612 q 421 572 393 577 q 480 563 449 567 q 541 554 511 558 q 591 545 571 550 q 704 515 656 533 q 784 467 752 496 q 831 397 816 438 q 847 297 847 355 q 834 237 847 267 q 800 178 821 206 q 752 125 779 149 q 700 85 726 101 q 622 40 660 59 q 546 9 585 21 q 466 -9 507 -3 q 376 -15 424 -15 q 246 1 304 -15 q 136 54 189 17 q 117 68 126 61 q 101 82 108 75 q 90 99 94 90 q 85 120 85 109 q 190 202 85 202 q 220 195 206 202 q 252 175 235 189 q 323 144 288 154 q 394 135 359 135 q 469 145 428 135 q 550 173 510 155 q 623 214 589 190 q 673 264 656 237 q 677 288 677 270 q 659 352 677 327 q 611 393 641 378 q 542 416 581 409 q 464 428 504 424 q 384 434 423 432 q 315 441 345 437 q 272 455 294 445 q 232 478 250 465 q 202 506 214 491 q 191 536 191 522 q 219 597 191 563 q 237 622 222 602 q 276 679 251 642 q 367 802 328 756 q 430 854 405 848 q 470 861 446 858 q 527 865 494 863 q 604 869 560 867 q 703 872 648 870 q 756 873 734 873 q 799 874 779 873 q 842 879 820 876 q 895 892 864 883 q 936 902 920 899 q 961 905 953 905 q 995 901 975 905 q 1034 887 1015 896 q 1065 866 1053 878 q 1078 838 1078 853 z "},"6":{"ha":1015,"x_min":97,"x_max":937,"o":"m 749 264 q 781 304 769 284 q 795 340 793 323 q 763 367 781 357 q 725 380 745 376 q 686 386 705 385 q 651 387 667 387 q 556 369 596 387 q 490 319 517 351 q 449 243 464 288 q 431 143 435 198 q 466 141 450 142 q 496 140 481 140 q 526 141 511 140 q 555 147 540 143 q 588 159 570 151 q 627 178 606 166 q 690 217 659 195 q 749 264 721 239 m 937 326 q 924 266 937 295 q 888 210 911 237 q 837 159 866 183 q 777 114 808 135 q 714 74 745 92 q 654 41 682 56 q 557 12 618 21 q 412 1 496 2 q 351 5 377 1 q 305 14 324 9 q 233 47 270 22 q 166 104 196 71 q 116 174 136 137 q 97 246 97 212 q 104 344 97 300 q 126 427 111 387 q 163 505 141 467 q 214 588 185 544 q 252 637 228 608 q 307 699 276 666 q 373 768 338 732 q 444 836 408 803 q 523 889 480 868 q 607 909 565 909 q 666 889 642 909 q 694 836 694 867 q 679 786 694 802 q 631 765 663 770 q 547 733 587 758 q 470 672 507 708 q 398 594 433 637 q 330 509 363 551 q 302 460 315 489 q 278 398 288 431 q 262 333 268 366 q 256 275 256 301 q 259 244 256 258 q 268 221 262 231 q 278 206 273 212 q 286 197 283 200 q 294 192 290 195 q 302 185 299 189 q 310 260 304 227 q 329 321 315 294 q 374 393 350 361 q 425 448 398 425 q 482 484 451 469 q 551 507 513 498 q 716 522 616 522 q 797 507 757 522 q 867 466 836 492 q 918 404 899 439 q 937 326 937 368 z "},"7":{"ha":1015,"x_min":113,"x_max":930,"o":"m 930 838 q 929 819 930 828 q 922 802 927 809 q 900 775 912 789 q 876 746 888 760 q 852 717 864 731 q 830 692 840 703 q 801 653 818 677 q 766 602 784 629 q 730 548 747 574 q 699 501 712 521 q 647 416 675 465 q 593 315 618 368 q 578 283 584 295 q 569 264 572 271 q 564 253 566 257 q 561 247 562 250 q 536 195 547 218 q 518 151 526 172 q 507 110 511 130 q 503 69 503 90 q 498 39 503 54 q 483 10 493 23 q 456 -11 472 -3 q 416 -19 439 -19 q 378 -8 395 -19 q 350 18 361 2 q 333 53 339 34 q 328 87 328 71 q 363 190 328 113 q 462 388 411 290 q 576 577 513 486 q 609 624 591 599 q 645 673 627 648 q 682 720 663 697 q 717 759 701 743 q 680 757 707 758 q 616 754 653 756 q 533 751 578 753 q 442 747 488 749 q 352 743 396 745 q 271 740 307 741 q 210 738 235 739 q 177 737 184 737 q 150 744 162 737 q 130 761 138 751 q 118 783 122 771 q 113 807 113 795 q 120 834 113 820 q 138 859 127 848 q 163 878 149 871 q 192 886 178 886 q 216 885 196 886 q 264 883 236 884 q 325 880 292 882 q 387 878 357 879 q 439 876 416 876 q 469 875 461 875 q 530 876 496 875 q 602 878 564 876 q 677 883 639 880 q 752 890 716 886 q 806 895 780 893 q 865 897 832 897 q 912 882 893 897 q 930 838 930 867 z "},"8":{"ha":1015,"x_min":175,"x_max":863,"o":"m 863 685 q 848 646 863 670 q 812 596 833 621 q 770 548 791 570 q 735 515 748 526 q 722 507 732 513 q 701 492 713 500 q 675 475 688 484 q 650 458 661 466 q 630 444 638 450 q 621 437 622 439 q 656 419 637 429 q 690 397 674 409 q 740 352 718 375 q 779 305 763 328 q 805 259 795 281 q 814 214 814 236 q 812 182 814 200 q 806 147 810 165 q 796 113 802 129 q 779 85 789 97 q 744 58 767 71 q 690 33 720 45 q 627 13 661 22 q 560 -3 593 3 q 452 -15 495 -15 q 393 -10 427 -15 q 326 4 359 -5 q 263 23 292 12 q 220 46 234 34 q 175 158 175 86 q 177 188 175 175 q 185 214 179 201 q 203 244 192 228 q 234 286 215 261 q 281 333 254 311 q 336 373 309 355 q 352 384 346 380 q 365 391 359 387 q 378 399 371 394 q 396 412 385 404 q 321 454 355 434 q 267 492 287 475 q 240 522 254 504 q 216 560 227 541 q 198 598 205 580 q 191 628 191 616 q 213 703 191 671 q 269 762 235 735 q 344 811 302 789 q 424 857 385 834 q 577 895 488 895 q 620 886 593 895 q 674 865 647 878 q 723 837 701 852 q 752 811 745 823 q 762 788 758 802 q 771 754 767 774 l 772 734 q 778 740 773 734 q 788 751 783 745 q 799 763 794 758 q 804 768 803 768 q 838 752 826 762 q 856 730 850 742 q 862 706 861 718 q 863 685 863 694 m 659 209 q 650 239 659 222 q 628 271 641 255 q 599 301 614 287 q 570 324 583 315 q 540 344 553 336 q 516 357 528 352 q 461 315 492 340 q 404 262 431 290 q 359 207 377 234 q 340 157 340 179 q 350 139 340 146 q 372 127 359 132 q 398 120 385 123 q 418 118 412 118 q 459 119 435 118 q 511 123 484 121 q 561 130 537 126 q 598 138 585 134 q 609 143 602 139 q 624 153 616 147 q 640 164 632 158 q 654 174 648 170 q 659 195 659 180 l 659 209 m 667 661 q 657 700 667 682 q 633 731 648 718 q 598 751 618 744 q 559 758 579 758 q 519 749 546 758 q 461 726 492 741 q 404 691 431 711 q 363 648 376 671 q 357 637 357 640 q 374 597 357 617 q 417 559 392 576 q 440 545 427 554 q 467 526 453 536 q 495 508 481 517 q 517 494 508 499 q 567 536 541 515 q 615 580 593 558 q 652 622 637 602 q 667 661 667 643 z "},"9":{"ha":1015,"x_min":167,"x_max":891,"o":"m 724 723 q 708 742 718 734 q 687 753 699 749 q 663 758 675 757 q 640 760 651 760 q 588 757 611 760 q 544 748 566 755 q 500 728 523 741 q 451 694 478 715 q 413 662 435 682 q 373 618 392 642 q 341 571 354 595 q 328 527 328 547 q 349 471 328 493 q 401 450 369 450 q 450 458 421 450 q 511 479 479 466 q 575 510 543 493 q 633 546 607 528 q 661 568 651 559 q 676 586 671 578 q 684 602 682 594 q 690 620 687 610 l 724 723 m 891 737 q 886 709 891 726 q 873 673 882 692 q 838 585 854 626 q 814 516 823 545 q 777 387 800 469 q 725 186 754 304 q 719 153 722 172 q 716 113 716 133 q 646 -4 716 -4 q 580 26 599 -4 q 568 48 574 35 q 559 75 563 62 q 553 102 555 89 q 551 124 551 115 q 556 156 551 135 q 569 204 561 177 q 587 261 576 231 q 606 320 597 291 q 624 375 616 349 q 637 417 632 400 q 591 392 615 404 q 544 370 568 380 q 500 352 521 359 q 463 341 479 345 q 340 328 394 328 q 276 342 307 328 q 221 381 245 357 q 182 437 197 405 q 167 507 167 470 q 204 640 167 575 q 242 692 221 668 q 288 737 264 715 q 414 836 333 777 q 439 848 422 841 q 478 863 456 855 q 526 878 500 871 q 577 891 552 885 q 625 900 602 897 q 663 904 647 904 q 713 899 692 904 q 752 883 734 893 q 787 860 770 873 q 823 828 804 846 q 828 822 826 825 q 834 817 831 820 q 873 785 869 791 q 882 769 877 780 q 890 741 886 758 l 891 737 z "}," ":{"ha":555,"x_min":0,"x_max":0,"o":""},"!":{"ha":450,"x_min":75,"x_max":380,"o":"m 263 148 q 253 89 262 135 q 211 37 251 65 q 149 13 177 13 q 75 96 75 13 q 82 129 75 109 q 103 165 90 148 q 134 196 117 183 q 171 208 151 208 q 198 202 182 208 q 229 186 214 195 q 253 166 243 177 q 263 148 263 156 m 380 945 q 376 913 380 937 q 365 859 372 890 q 350 791 359 827 q 334 720 342 755 q 298 579 317 650 q 270 439 279 509 q 268 410 269 422 q 266 384 268 397 q 260 357 264 371 q 245 325 256 343 q 183 332 208 325 q 140 353 159 339 q 139 374 139 361 q 138 399 138 386 q 142 506 138 448 q 159 625 146 564 q 183 744 173 686 q 193 851 193 801 q 199 902 193 870 q 205 930 202 918 q 215 952 209 943 q 229 971 220 962 q 252 989 238 979 q 279 1003 267 998 q 304 1008 291 1008 q 353 990 331 1008 q 373 969 366 981 q 380 945 380 958 z "},"\"":{"ha":561,"x_min":70,"x_max":537,"o":"m 269 939 q 261 851 269 897 q 239 763 254 806 q 227 714 227 730 q 219 631 223 667 q 207 572 215 595 q 182 536 198 548 q 140 524 167 524 q 106 532 121 524 q 83 557 92 540 q 70 611 70 583 q 76 649 70 628 q 87 692 81 671 q 92 719 90 703 q 97 750 95 734 q 102 780 100 766 q 105 801 104 793 q 112 835 107 812 q 120 880 116 857 q 127 921 124 903 q 132 943 131 939 q 139 968 134 956 q 152 990 144 981 q 173 1005 161 1000 q 199 1011 184 1011 q 226 1004 214 1011 q 248 986 239 997 q 263 963 258 975 q 269 939 269 950 m 537 947 q 535 932 537 945 q 529 902 532 920 q 520 863 525 884 q 512 823 516 842 q 505 791 508 804 q 502 776 503 779 q 491 709 495 741 q 482 651 486 678 q 473 598 478 623 q 460 550 468 574 q 436 524 454 534 q 396 513 418 513 q 363 520 377 513 q 340 539 349 527 q 328 567 332 551 q 323 600 323 583 q 347 727 323 640 q 365 790 359 767 q 372 819 371 812 q 379 859 375 837 q 387 903 382 881 q 395 943 391 924 q 402 972 399 962 q 424 1001 408 991 q 463 1011 439 1011 q 512 993 492 1011 q 537 947 537 971 z "},"#":{"ha":1107,"x_min":22,"x_max":1065,"o":"m 611 511 q 619 536 615 523 q 625 563 623 549 q 534 553 574 558 q 462 539 494 547 q 437 470 449 508 q 416 388 426 433 q 461 391 444 390 q 490 392 477 391 q 514 394 503 393 q 545 399 526 395 q 563 405 555 403 q 578 412 571 408 l 611 511 m 1065 653 q 1063 637 1065 646 q 1054 619 1060 627 q 1040 605 1048 610 q 1021 599 1032 599 q 870 595 935 599 q 755 578 806 591 q 745 539 751 562 q 732 495 739 517 q 720 453 726 473 q 710 419 713 433 q 723 422 710 419 q 754 428 735 425 q 795 436 773 432 q 837 445 817 441 q 870 451 856 448 q 886 454 884 454 q 919 452 903 454 q 950 447 936 451 q 975 433 964 442 q 990 407 985 423 q 998 366 998 386 q 992 345 998 355 q 977 327 987 335 q 952 314 966 319 q 923 309 939 309 q 906 312 915 309 q 889 319 898 315 q 873 325 881 322 q 859 328 865 328 q 815 325 836 328 q 774 317 795 321 q 730 309 753 313 q 679 306 707 306 q 655 240 665 266 q 646 197 646 214 q 647 181 646 193 q 648 161 648 170 q 644 133 648 148 q 630 105 640 118 q 607 84 621 93 q 575 76 593 76 q 550 85 562 76 q 530 107 538 94 q 517 134 522 120 q 512 157 512 148 q 513 180 512 170 q 515 202 513 191 q 520 225 517 213 q 528 255 524 238 q 531 264 530 262 q 533 268 532 267 q 534 272 534 270 q 536 279 535 273 q 500 274 522 277 q 457 268 479 271 q 417 262 436 265 q 389 258 399 259 q 273 58 329 58 q 234 73 249 58 q 218 107 218 87 q 254 256 218 180 q 234 257 244 257 q 210 257 224 257 q 197 257 205 257 q 177 256 188 256 q 156 255 167 255 q 136 254 145 254 q 91 256 112 254 q 55 264 71 258 q 31 281 40 271 q 22 310 22 292 q 34 337 22 323 q 62 361 45 351 q 99 378 79 372 q 136 385 119 385 q 174 384 151 385 q 221 381 197 382 q 264 378 244 379 q 291 376 283 376 q 301 409 296 389 q 310 448 307 429 q 320 490 315 471 q 332 525 326 509 q 288 519 311 523 q 240 511 264 515 q 192 504 216 507 q 144 501 168 501 q 39 554 39 501 q 57 589 39 576 q 104 610 76 602 q 168 622 133 618 q 233 633 202 627 q 294 643 262 638 q 351 650 326 648 q 385 699 369 667 q 416 772 401 730 q 437 820 427 800 q 459 853 447 840 q 486 873 471 867 q 522 879 501 879 q 566 830 566 879 q 533 724 566 798 q 516 687 523 701 q 506 663 509 673 q 543 668 523 666 q 583 672 563 671 q 630 679 612 676 q 664 683 647 681 q 674 723 669 698 q 686 775 680 748 q 697 830 692 803 q 707 876 703 857 q 725 942 717 919 q 736 970 732 966 q 762 993 744 983 q 799 1003 779 1003 q 842 985 826 1003 q 859 943 859 967 q 853 910 859 930 q 839 868 847 889 q 824 828 831 846 q 814 800 817 809 q 808 774 811 789 q 797 738 805 759 q 791 717 794 727 q 785 698 789 707 q 837 705 813 702 q 884 711 861 709 q 928 715 906 713 q 973 716 950 716 q 1014 714 996 716 q 1042 706 1031 712 q 1060 687 1054 699 q 1065 653 1065 674 z "},"$":{"ha":762,"x_min":5,"x_max":713,"o":"m 517 353 q 511 369 517 359 q 496 386 504 378 q 481 400 488 395 q 475 406 475 406 q 469 357 472 380 q 465 315 467 334 q 480 326 471 321 q 498 335 490 331 q 512 343 506 339 q 517 353 517 348 m 365 696 q 302 676 326 687 q 268 654 279 665 q 284 642 271 650 q 312 625 297 633 q 341 609 328 616 q 356 603 354 603 l 365 696 m 713 790 q 706 750 713 764 q 675 730 698 736 q 613 722 653 723 q 509 721 573 721 q 502 659 505 688 q 495 604 498 629 q 490 560 492 578 q 488 530 488 541 q 539 497 516 509 q 580 476 562 486 q 611 458 598 467 q 631 433 624 448 q 645 396 640 417 q 650 349 650 375 q 635 294 650 319 q 593 247 620 268 q 531 208 567 225 q 454 178 496 191 q 452 150 454 168 q 449 111 451 132 q 445 66 447 89 q 441 25 443 43 q 439 -6 440 6 q 437 -18 437 -18 q 439 -39 437 -24 q 444 -71 441 -54 q 449 -101 447 -87 q 451 -119 451 -115 q 445 -136 451 -127 q 428 -150 438 -144 q 406 -160 418 -156 q 381 -163 393 -163 q 316 -139 332 -163 q 299 -77 299 -117 q 301 -32 299 -60 q 306 27 303 -3 q 310 83 308 58 q 312 119 312 109 q 279 113 296 115 q 245 108 262 111 q 211 98 231 103 q 169 88 190 93 q 130 80 148 83 q 101 77 111 77 q 66 81 83 77 q 35 93 49 85 q 13 109 22 100 q 5 130 5 119 q 17 177 5 159 q 50 207 29 195 q 97 225 70 219 q 154 235 124 231 q 214 241 184 238 q 272 248 245 243 q 280 249 272 248 q 297 253 288 250 q 315 261 307 256 q 323 271 323 265 q 337 386 331 337 q 343 472 343 435 q 314 486 334 477 q 273 502 294 494 q 250 510 264 505 q 223 522 237 515 q 198 533 210 528 q 180 543 186 539 q 123 604 142 574 q 104 673 104 633 q 130 722 104 697 q 194 767 155 746 q 281 804 233 788 q 376 826 330 819 q 377 842 377 833 q 378 858 378 850 l 378 1002 q 415 1049 378 1032 q 440 1060 427 1057 q 467 1063 454 1063 q 516 1041 496 1063 q 536 971 536 1019 q 533 944 536 963 q 527 904 530 924 q 520 867 524 884 q 517 848 517 850 q 545 848 533 848 q 566 849 556 848 q 584 851 575 850 q 603 855 593 852 q 625 860 614 859 q 644 861 635 861 q 713 790 713 861 z "},"%":{"ha":1014,"x_min":75,"x_max":950,"o":"m 817 254 q 808 273 817 266 q 788 287 800 281 q 762 298 776 292 q 739 312 749 304 q 718 303 728 312 q 699 277 707 294 q 685 238 690 261 q 679 189 679 216 q 681 161 679 171 q 691 161 686 161 q 701 161 696 161 q 709 161 707 161 q 714 160 712 161 q 719 160 716 160 q 729 159 722 159 q 741 164 731 159 q 762 177 750 170 q 786 191 774 184 q 803 203 798 199 q 813 225 809 212 q 817 254 817 238 m 340 727 q 324 812 340 751 l 312 812 q 266 794 287 812 q 231 750 245 776 q 208 697 216 724 q 200 652 200 669 q 202 638 200 644 q 208 627 205 631 q 216 618 212 621 q 240 609 228 612 q 261 606 253 606 q 312 645 285 606 q 340 727 340 688 m 718 427 q 799 417 758 427 q 874 385 840 406 q 929 333 907 364 q 950 260 950 302 q 948 229 950 246 q 940 196 945 212 q 927 164 935 179 q 906 138 918 149 q 850 95 879 114 q 798 62 821 75 q 744 45 774 51 q 677 39 713 39 q 562 90 590 39 q 534 182 534 141 q 542 234 534 207 q 563 289 549 262 q 593 342 576 317 q 631 387 611 367 q 674 416 652 406 q 718 427 696 427 m 799 845 q 756 785 799 810 q 728 734 742 759 q 698 685 713 710 q 665 635 682 661 q 629 582 648 610 l 630 583 q 623 570 629 580 q 608 548 616 561 q 591 522 600 536 q 573 494 582 507 q 558 472 565 481 q 550 458 552 462 q 511 395 528 424 q 480 341 494 366 q 450 282 467 317 q 415 205 433 247 q 380 128 395 161 q 353 73 365 96 q 327 45 351 66 q 288 24 307 24 q 228 89 228 24 q 232 113 228 96 q 245 156 237 130 q 278 245 259 200 q 319 335 297 290 q 367 421 342 379 q 418 499 392 463 q 452 548 436 523 q 489 607 469 574 q 535 683 509 640 q 600 785 562 726 q 570 792 581 789 q 548 797 558 795 q 527 799 538 798 q 498 800 515 800 q 482 799 490 800 q 464 799 474 799 q 469 753 469 775 q 459 692 469 724 q 431 629 449 659 q 387 572 412 598 q 331 528 361 545 q 295 511 311 518 q 266 499 279 505 q 206 490 241 490 q 148 502 172 490 q 106 535 123 514 q 82 586 90 557 q 75 648 75 614 q 79 676 75 657 q 90 717 83 695 q 105 760 97 739 q 121 797 113 782 q 164 860 138 831 q 222 909 191 889 q 291 941 254 930 q 366 952 328 952 q 441 916 404 952 q 492 910 462 913 q 557 904 522 907 q 627 899 591 901 q 693 893 663 896 q 746 889 724 891 q 779 887 769 888 q 793 865 788 875 q 799 845 799 854 z "},"&":{"ha":1283,"x_min":114,"x_max":1177,"o":"m 604 800 q 601 831 604 815 q 589 859 597 846 q 570 880 581 871 q 545 888 559 888 q 515 878 530 888 q 490 850 500 867 q 472 810 479 833 q 466 762 466 787 q 473 686 466 723 q 494 617 481 648 q 537 657 517 635 q 572 703 557 680 q 596 752 587 727 q 604 800 604 777 m 432 94 q 527 111 484 94 q 604 153 571 129 q 497 280 546 212 q 413 414 449 348 q 362 373 386 395 q 322 325 339 351 q 295 271 304 299 q 285 212 285 242 q 294 165 285 186 q 321 127 302 143 q 367 103 339 112 q 432 94 395 94 m 1177 511 q 1161 460 1177 481 q 1116 433 1146 439 q 1069 424 1091 425 q 1028 418 1046 422 q 991 389 1004 414 q 957 328 976 359 q 916 268 937 297 q 874 214 895 239 q 833 171 852 189 q 905 134 866 147 q 978 121 944 121 q 1007 123 996 121 q 1027 129 1019 126 q 1042 135 1036 132 q 1057 137 1048 137 q 1086 121 1076 137 q 1097 83 1097 106 q 1088 53 1097 72 q 1061 15 1079 33 q 1017 -18 1044 -4 q 956 -31 991 -31 q 822 -6 884 -31 q 705 60 760 18 q 639 18 676 38 q 560 -16 602 -1 q 474 -40 518 -31 q 385 -48 429 -48 q 274 -30 324 -48 q 188 22 224 -12 q 133 102 153 56 q 114 205 114 149 q 131 301 114 256 q 179 387 149 347 q 249 462 209 427 q 336 526 290 497 q 348 538 345 532 q 351 550 351 544 q 345 575 351 559 q 332 617 339 592 q 318 674 324 642 q 312 746 312 706 q 330 853 312 803 q 380 939 347 903 q 458 997 412 976 q 560 1019 504 1019 q 646 999 610 1019 q 706 947 682 979 q 741 878 729 916 q 752 804 752 840 q 738 724 752 762 q 701 652 724 686 q 644 587 677 618 q 574 526 612 555 q 556 509 561 517 q 552 493 552 500 q 559 464 552 482 q 581 426 567 446 q 659 321 619 369 q 732 245 698 273 q 763 281 747 259 q 795 326 780 302 q 821 373 810 350 q 836 414 832 396 q 811 416 823 415 q 787 420 799 417 q 724 448 741 425 q 707 503 707 471 q 713 529 707 517 q 730 551 720 542 q 751 565 739 559 q 771 570 762 570 q 802 565 787 570 q 836 555 817 561 q 881 545 855 549 q 941 541 906 541 q 1001 543 974 541 q 1049 547 1027 545 q 1090 552 1072 550 q 1124 554 1108 554 q 1177 511 1177 554 z "},"'":{"ha":321,"x_min":66,"x_max":286,"o":"m 286 932 q 270 875 286 913 q 260 852 263 860 q 254 834 257 844 q 248 811 252 825 q 235 769 243 797 q 224 730 228 746 q 218 701 220 715 q 215 672 216 687 q 214 635 214 657 q 212 578 214 604 q 203 535 210 553 q 181 507 195 517 q 142 497 166 497 q 109 507 123 497 q 85 533 95 517 q 71 567 76 549 q 66 601 66 585 q 67 615 66 607 q 69 638 67 623 q 74 675 71 652 q 83 734 77 699 q 85 746 84 740 q 87 757 86 751 q 101 821 91 785 q 128 902 112 858 q 170 976 146 951 q 219 1002 193 1002 q 269 981 251 1002 q 286 932 286 961 z "},"(":{"ha":558,"x_min":30,"x_max":557,"o":"m 557 1010 q 550 989 557 1000 q 532 966 543 977 q 511 944 522 954 q 492 925 500 933 q 459 892 478 911 q 420 854 439 873 q 384 816 401 834 q 358 785 367 798 q 312 720 335 753 q 267 645 288 686 q 229 570 247 608 q 198 490 212 532 q 178 411 184 449 q 171 336 171 374 q 177 274 171 318 q 183 227 177 252 q 193 170 190 203 l 193 171 q 203 122 199 142 q 208 90 207 101 q 228 16 217 49 q 252 -44 239 -18 q 276 -91 264 -71 q 299 -125 288 -111 q 322 -151 309 -137 q 353 -178 336 -164 q 389 -211 374 -197 q 413 -238 404 -226 q 427 -263 422 -251 q 431 -287 431 -275 q 424 -312 431 -301 q 405 -330 417 -322 q 376 -341 392 -337 q 341 -345 359 -345 q 292 -329 317 -345 q 241 -289 267 -313 q 191 -233 215 -264 q 144 -172 166 -203 q 118 -131 130 -151 q 97 -88 106 -110 q 80 -41 87 -66 q 67 12 73 -17 q 52 92 59 52 q 40 168 45 132 q 30 296 30 247 q 31 374 30 345 q 35 422 32 403 q 43 467 37 441 q 60 526 50 493 q 129 689 87 606 q 221 861 170 772 q 247 889 224 868 q 309 946 269 910 q 366 1000 343 978 q 409 1036 389 1022 q 451 1057 429 1050 q 503 1063 472 1063 q 557 1010 557 1063 z "},")":{"ha":505,"x_min":-8,"x_max":444,"o":"m 444 275 q 411 63 444 163 q 315 -133 377 -37 q 301 -152 313 -137 q 277 -185 290 -167 q 251 -221 263 -203 q 233 -250 238 -239 q 212 -290 222 -272 q 191 -319 201 -307 q 167 -338 180 -332 q 138 -345 155 -345 q 81 -326 105 -345 q 54 -281 54 -305 q 77 -226 54 -260 q 137 -146 100 -192 q 146 -134 140 -142 q 161 -113 153 -125 q 178 -87 169 -101 q 196 -57 187 -73 q 224 5 208 -33 q 260 96 240 43 q 298 226 298 199 q 294 341 298 277 q 274 475 289 405 q 236 605 259 545 q 187 724 213 665 q 81 901 136 843 q 51 932 71 913 q 8 973 32 951 q -8 1014 -8 989 q -1 1032 -8 1021 q 17 1053 5 1043 q 44 1069 29 1062 q 75 1076 59 1076 q 148 1041 108 1076 q 231 940 189 1006 q 275 872 255 903 q 310 818 296 842 q 336 768 325 793 q 355 717 348 743 q 371 666 362 693 q 390 610 380 639 q 408 553 399 582 q 422 495 416 524 q 440 378 436 434 q 444 275 444 321 z "},"*":{"ha":714,"x_min":11,"x_max":701,"o":"m 701 766 q 656 723 701 733 l 658 723 q 637 720 652 722 q 603 717 623 719 q 561 714 583 715 q 518 711 538 713 q 483 709 498 710 q 460 707 467 708 q 446 705 452 707 q 499 642 475 670 q 541 592 524 614 q 569 553 559 570 q 578 526 578 537 q 573 502 578 513 q 559 481 568 490 q 538 467 550 472 q 514 462 527 462 q 491 468 503 462 q 469 484 479 475 q 451 502 458 492 q 440 517 443 511 q 417 543 433 524 q 382 588 400 562 q 360 620 368 608 q 336 646 351 633 q 334 643 335 644 q 331 639 332 641 q 321 618 330 635 q 300 577 313 600 q 274 528 288 553 q 248 483 260 503 q 185 429 215 429 q 169 432 176 429 q 155 440 161 435 q 123 467 135 454 q 111 500 111 479 q 122 524 111 505 q 150 568 133 543 q 187 622 167 594 q 226 673 208 650 q 190 671 206 673 q 160 667 174 669 q 132 660 146 664 q 102 652 118 656 q 73 645 83 647 q 52 642 62 642 q 33 649 41 642 q 21 665 26 656 q 13 682 16 673 q 11 695 11 691 q 14 707 11 701 q 20 720 16 713 q 29 731 24 726 q 38 739 34 736 q 58 748 43 743 q 90 758 73 753 q 123 765 107 762 q 149 768 140 768 q 206 769 182 768 q 247 773 230 770 q 237 786 244 777 q 222 803 229 795 q 209 818 214 812 q 204 824 203 825 q 153 922 153 892 q 157 937 153 928 q 168 951 161 945 q 183 963 175 958 q 200 968 192 968 q 339 846 248 968 q 356 865 342 849 q 386 902 370 882 q 418 940 403 922 q 439 966 433 959 q 451 982 446 974 q 465 996 457 989 q 483 1007 473 1003 q 505 1011 492 1011 q 530 1008 518 1011 q 551 998 542 1004 q 567 982 561 991 q 572 960 572 972 q 568 943 572 951 q 557 929 564 936 q 543 917 551 923 q 530 903 536 910 q 503 859 516 877 q 481 830 490 840 q 472 821 477 826 q 460 810 467 816 q 506 815 481 814 q 556 825 531 817 q 605 832 584 830 q 644 835 625 835 q 688 806 675 835 q 701 766 701 781 z "},"+":{"ha":793,"x_min":50,"x_max":745,"o":"m 739 337 q 659 312 720 312 q 637 313 654 312 q 600 317 620 315 q 563 320 581 319 q 538 321 545 321 l 439 321 q 433 291 435 309 q 431 251 431 273 q 430 170 431 199 q 429 128 429 142 q 427 112 428 115 q 427 109 427 109 q 413 66 427 78 q 364 54 400 54 q 329 57 342 54 q 307 68 315 60 q 296 90 299 77 q 293 122 293 103 q 295 149 293 134 q 300 187 297 164 q 307 243 303 210 q 313 322 310 275 l 300 322 q 276 322 290 322 q 249 321 263 321 q 220 320 235 320 q 193 319 206 319 l 121 312 q 94 317 107 312 q 72 331 81 322 q 56 351 62 340 q 50 376 50 363 q 54 394 50 383 q 65 414 58 405 q 83 431 73 424 q 106 437 94 437 q 131 437 117 437 q 158 435 144 436 q 181 433 171 434 q 192 432 191 432 l 301 432 l 323 435 q 326 450 325 442 q 326 466 326 458 q 325 500 326 481 q 322 545 324 519 q 320 576 321 563 q 318 597 319 589 q 318 612 318 606 q 317 621 317 617 q 319 646 317 627 q 327 683 320 664 q 349 718 334 703 q 391 732 364 732 q 437 701 419 732 q 453 658 453 675 q 451 617 453 643 q 447 566 450 591 q 443 518 445 540 q 441 490 441 497 l 441 469 q 441 456 441 462 q 443 439 441 450 q 465 439 452 439 q 495 439 478 439 q 518 439 504 439 q 549 440 532 439 q 585 441 566 441 q 623 441 604 441 q 685 437 661 441 q 722 421 709 432 q 740 392 735 410 q 745 349 745 374 l 739 337 z "},",":{"ha":475,"x_min":77,"x_max":431,"o":"m 431 77 q 423 49 431 69 q 406 7 416 29 q 384 -36 395 -16 q 365 -65 373 -57 q 342 -87 355 -75 q 314 -109 330 -98 q 279 -127 298 -119 q 239 -140 260 -136 q 225 -143 230 -141 q 216 -146 220 -144 q 166 -164 190 -157 q 122 -170 142 -170 q 77 -121 77 -170 q 93 -87 77 -103 q 176 -58 140 -76 q 236 -17 212 -39 q 248 1 241 -11 q 259 27 254 14 q 268 51 264 40 q 272 64 272 61 q 272 81 272 71 q 270 103 271 92 q 266 124 269 114 q 258 142 263 135 q 245 177 245 161 q 249 196 245 185 q 259 218 253 208 q 276 236 266 229 q 298 243 286 243 q 327 238 310 243 q 360 227 345 233 q 389 212 376 220 q 403 197 401 204 q 431 77 431 123 z "},"-":{"ha":890,"x_min":134,"x_max":766,"o":"m 766 389 q 748 341 766 357 q 687 326 730 326 q 668 328 680 326 q 644 334 656 331 q 620 340 631 337 q 604 342 608 342 q 592 342 600 342 q 576 340 585 341 q 558 339 567 340 q 542 338 549 338 q 514 340 533 338 q 476 342 496 341 q 438 345 456 344 q 412 347 420 347 q 375 345 400 347 q 322 342 350 344 q 269 340 294 341 q 231 338 243 338 q 191 341 209 338 q 161 349 174 343 q 141 367 148 355 q 134 396 134 378 q 145 426 134 414 q 172 446 155 438 q 208 459 188 454 q 246 466 227 464 q 280 469 264 469 q 302 470 295 470 q 325 468 310 470 q 351 463 340 465 q 433 463 398 463 q 494 465 468 464 q 541 468 521 466 q 576 471 560 469 q 636 475 604 475 q 661 471 646 475 q 691 461 675 467 q 721 449 707 456 q 743 438 735 443 q 752 430 747 435 q 759 417 756 424 q 764 402 762 410 q 766 389 766 395 z "},".":{"ha":349,"x_min":64,"x_max":271,"o":"m 271 157 q 264 110 271 142 q 250 86 262 100 q 214 53 237 72 q 174 26 192 35 q 144 18 156 18 q 102 23 118 18 q 78 41 87 29 q 67 72 70 53 q 64 117 64 91 q 65 149 64 136 q 67 172 65 162 q 186 218 73 218 q 229 212 213 218 q 258 190 245 205 q 271 157 271 177 z "},"/":{"ha":799,"x_min":-27,"x_max":796,"o":"m 796 994 q 781 957 796 985 q 738 885 766 928 q 669 785 710 842 q 576 662 629 728 q 559 637 574 658 q 522 585 544 616 q 473 513 500 553 q 418 434 446 474 q 363 355 390 393 q 315 286 336 316 q 281 236 294 255 q 267 216 268 217 q 223 145 241 178 q 184 76 204 112 q 151 20 170 50 q 113 -34 132 -9 q 77 -74 94 -58 q 49 -90 60 -90 q 20 -83 34 -90 q -4 -65 7 -76 q -21 -42 -14 -55 q -27 -20 -27 -30 q -20 7 -27 -9 q 43 134 8 73 q 116 249 79 195 q 142 287 126 264 q 175 335 158 311 q 207 382 191 359 q 232 417 222 404 q 247 438 235 421 q 273 477 258 454 q 305 526 288 500 q 337 574 322 552 q 362 613 352 597 q 376 633 373 629 q 430 713 403 671 q 484 799 456 755 q 541 887 512 843 q 601 972 570 930 q 625 1003 611 986 q 654 1037 638 1021 q 687 1063 670 1053 q 718 1074 703 1074 q 746 1065 732 1074 q 771 1043 760 1056 q 789 1017 782 1031 q 796 994 796 1003 z "},":":{"ha":414,"x_min":104,"x_max":326,"o":"m 326 598 q 316 564 326 582 q 290 530 307 545 q 249 506 273 515 q 195 496 225 496 q 138 537 163 496 l 138 536 q 116 597 116 572 q 121 616 116 604 q 134 641 126 628 q 152 666 142 654 q 170 684 161 677 l 169 683 q 227 698 189 698 q 241 694 233 698 q 258 687 250 691 q 272 679 266 683 q 280 675 279 675 q 306 655 297 663 q 320 641 315 647 q 325 626 324 634 q 326 604 326 618 l 326 598 m 309 155 q 308 137 309 148 q 303 111 306 126 q 290 85 302 102 q 260 53 277 68 q 225 25 243 37 q 193 13 207 13 q 145 20 163 13 q 118 42 127 27 q 106 79 109 57 q 104 131 104 101 q 105 154 104 144 q 110 173 106 164 q 122 190 114 182 q 145 208 131 198 q 198 227 174 227 q 236 223 216 227 q 272 210 256 219 q 299 188 288 201 q 309 155 309 174 z "},";":{"ha":458,"x_min":-18,"x_max":343,"o":"m 343 598 q 331 564 343 580 q 300 534 319 547 q 258 514 281 522 q 212 507 235 507 q 183 515 196 507 q 161 537 170 524 q 147 565 152 550 q 142 591 142 579 q 146 614 142 600 q 158 643 151 628 q 174 672 165 659 q 191 690 183 685 l 191 690 q 227 699 205 699 q 275 682 238 699 l 275 682 q 319 660 313 665 q 343 598 343 637 m 329 86 q 323 60 329 78 q 307 20 317 41 q 287 -21 298 -1 q 267 -52 277 -41 q 247 -72 259 -62 q 217 -91 235 -81 q 176 -112 199 -100 q 122 -137 153 -123 q 25 -161 68 -161 q -18 -115 -18 -161 q -15 -97 -18 -106 q -5 -79 -11 -87 q 142 -7 92 -57 q 148 4 142 -6 q 160 27 153 14 q 171 52 166 39 q 176 69 176 64 q 176 91 176 79 q 175 115 176 103 q 171 137 174 126 q 164 154 169 147 q 154 173 157 164 q 151 189 151 181 q 155 209 151 197 q 166 231 159 220 q 185 248 174 241 q 210 255 196 255 q 240 252 224 255 q 268 243 255 249 q 291 230 281 238 q 304 210 300 221 q 322 140 316 171 q 329 86 329 110 z "},"<":{"ha":745,"x_min":61,"x_max":678,"o":"m 678 186 q 671 161 678 175 q 653 136 665 148 q 627 117 642 125 q 596 109 612 109 q 541 134 585 109 q 418 198 472 172 q 326 240 365 224 q 280 261 307 248 q 223 292 253 275 q 165 327 194 309 q 113 363 136 346 q 75 396 90 381 q 61 422 61 412 q 85 481 61 452 q 155 546 110 509 q 231 616 195 578 q 303 686 267 654 q 338 714 313 696 q 391 754 363 733 q 445 794 419 775 q 484 825 471 814 q 496 840 489 830 q 514 859 504 850 q 539 876 525 869 q 573 883 554 883 q 600 879 587 883 q 623 866 613 874 q 639 848 633 859 q 645 823 645 837 q 627 784 645 808 q 575 727 609 760 q 493 654 541 694 q 385 569 445 614 q 333 523 367 555 q 249 443 300 490 q 270 431 260 436 q 289 421 281 425 q 303 415 298 418 q 308 413 308 413 q 327 403 317 410 q 348 389 338 396 q 366 376 357 382 q 378 368 374 370 q 406 356 386 365 q 453 336 427 347 q 508 311 479 324 q 563 287 537 298 q 606 268 588 276 q 627 258 623 260 q 678 186 678 234 z "},"=":{"ha":869,"x_min":86,"x_max":771,"o":"m 771 294 q 767 271 771 283 q 756 248 764 259 q 739 229 749 237 q 716 220 729 221 q 648 228 692 220 q 611 233 627 231 q 583 235 594 235 q 498 234 542 235 q 412 234 454 234 q 330 233 369 233 q 258 232 290 232 q 204 231 227 231 q 174 229 182 230 q 150 239 163 229 q 125 262 136 249 q 106 291 113 276 q 98 316 98 306 q 114 347 98 335 q 159 365 129 358 q 205 374 185 371 q 245 376 226 376 q 274 376 258 376 q 309 375 291 376 q 345 374 327 375 q 377 373 362 374 q 400 373 391 373 q 411 372 410 372 q 437 374 420 372 q 472 377 454 376 q 508 381 490 379 q 536 382 526 382 q 626 378 583 382 q 700 362 668 373 q 751 335 732 351 q 771 294 770 318 l 771 294 m 761 612 q 758 587 761 600 q 745 562 754 573 q 722 544 736 551 q 686 537 708 537 q 635 550 665 537 q 604 558 612 558 q 595 557 602 558 q 579 554 588 556 q 562 552 571 553 q 546 551 553 551 q 519 552 536 551 q 484 555 502 553 q 449 557 465 556 q 422 559 432 559 l 171 540 q 135 542 151 540 q 108 551 119 544 q 92 572 98 558 q 86 608 86 585 q 106 654 86 637 q 157 682 127 672 q 220 694 186 691 q 282 697 254 697 l 368 692 q 433 692 404 692 q 487 695 463 693 q 533 699 512 696 q 573 705 554 701 q 583 706 577 706 q 597 707 588 707 l 631 707 q 659 704 638 707 q 701 691 679 701 q 742 663 724 682 q 761 613 760 644 l 761 612 z "},">":{"ha":796,"x_min":98,"x_max":733,"o":"m 733 469 q 698 421 733 450 q 616 360 652 385 q 557 317 581 336 q 542 303 548 308 q 530 294 535 298 q 458 216 509 271 q 416 167 438 189 q 378 130 393 145 q 346 97 363 112 q 313 67 330 81 q 266 54 298 54 q 236 60 250 54 q 210 77 221 67 q 192 100 199 87 q 185 123 185 113 q 192 148 185 137 q 210 170 199 159 q 232 189 220 180 q 252 205 243 197 q 319 281 287 246 q 385 349 352 316 q 410 370 393 355 q 448 400 427 384 q 490 434 469 417 q 524 465 511 452 q 464 517 494 502 q 440 529 456 521 q 407 547 425 537 q 369 568 389 557 q 332 588 349 578 q 300 606 314 598 q 279 617 286 614 q 270 622 278 618 q 260 627 262 626 q 219 648 237 637 q 181 674 201 659 q 140 715 157 698 q 115 747 124 732 q 101 775 105 762 q 98 806 98 789 q 113 842 98 827 q 155 857 127 857 q 197 844 177 857 q 245 808 211 836 q 272 788 262 795 q 286 779 282 781 q 316 759 293 774 q 371 724 340 744 q 439 683 403 705 q 507 641 475 661 q 563 607 538 621 q 597 587 588 592 q 667 551 640 565 q 708 524 694 536 q 728 499 723 512 q 733 469 733 487 z "},"?":{"ha":715,"x_min":96,"x_max":728,"o":"m 332 72 q 316 28 332 47 q 280 -4 301 9 q 235 -24 258 -17 q 197 -31 212 -31 q 159 -24 177 -31 q 126 -7 140 -18 q 104 21 113 5 q 96 58 96 37 q 110 92 96 75 q 150 126 124 109 q 166 138 160 133 q 178 146 172 143 q 192 151 184 149 q 215 153 200 153 q 226 151 219 153 q 241 145 233 149 q 257 138 249 142 q 270 130 264 134 q 332 72 332 125 m 728 775 q 697 628 728 686 q 614 534 666 569 q 564 508 592 520 q 504 483 536 495 q 437 460 472 471 q 368 436 403 448 q 350 383 358 411 q 336 322 342 355 q 322 288 332 302 q 299 267 313 275 q 266 256 286 259 q 222 253 247 253 q 202 262 210 253 q 190 286 195 272 q 183 313 185 299 q 181 338 181 328 q 183 367 181 354 q 191 397 185 380 q 210 441 197 415 q 242 509 222 467 q 285 541 263 526 q 329 566 307 555 q 370 583 342 572 q 428 606 397 594 q 486 629 458 618 q 526 645 513 640 q 546 663 536 651 q 562 689 555 675 q 572 720 568 704 q 576 751 576 736 q 573 777 576 762 q 567 807 570 792 q 559 834 563 822 q 554 850 556 846 q 539 868 550 861 q 515 880 528 876 q 488 887 502 884 q 462 889 473 889 q 424 888 441 889 q 393 884 407 888 q 365 872 378 880 q 338 850 352 864 q 333 835 335 846 q 327 814 332 825 q 310 795 321 804 q 279 780 299 786 q 229 774 260 774 q 166 834 166 774 q 177 874 166 852 q 207 918 188 896 q 251 960 226 939 q 306 996 277 980 l 305 996 q 345 1016 328 1009 q 378 1025 361 1022 q 412 1028 394 1027 q 457 1029 431 1028 q 491 1030 475 1029 q 515 1031 507 1031 q 539 1028 526 1031 q 567 1022 553 1026 q 593 1013 581 1018 q 612 1002 606 1008 q 673 954 650 977 q 708 907 696 932 q 723 851 720 882 q 728 776 727 820 l 728 775 z "},"@":{"ha":1143,"x_min":60,"x_max":1072,"o":"m 654 570 q 665 591 663 591 q 655 600 660 594 q 644 608 650 605 q 628 605 635 608 q 614 600 621 603 q 595 588 608 596 q 569 569 583 581 q 557 555 566 566 q 536 529 548 545 q 512 492 525 513 q 488 450 500 472 q 472 399 472 417 q 483 377 472 382 q 517 372 494 372 q 534 376 522 372 q 561 387 546 380 q 591 403 575 393 q 622 424 608 412 q 635 437 630 431 q 640 448 640 444 l 637 513 q 641 539 637 525 q 654 570 644 553 m 1072 589 q 1060 503 1072 547 q 1026 421 1048 460 q 972 352 1004 382 q 900 304 940 321 q 883 298 897 302 q 852 289 870 294 q 798 276 812 276 q 738 290 766 276 q 688 325 709 304 q 638 296 667 311 q 579 271 609 282 q 521 252 549 259 q 473 244 493 244 q 416 257 444 244 q 367 289 388 269 q 332 332 345 309 q 319 378 319 356 q 323 425 319 401 q 338 475 328 449 q 367 532 349 502 q 412 599 385 563 q 450 645 428 621 q 497 689 472 669 q 550 722 522 709 q 606 735 578 735 q 686 726 652 735 q 747 692 719 718 q 759 678 754 687 q 764 658 764 669 l 764 651 q 771 653 767 652 q 780 654 774 654 q 842 600 842 654 q 834 570 842 594 q 810 509 826 546 q 800 484 804 494 q 794 466 796 474 q 792 449 792 457 q 791 429 791 440 q 795 421 791 424 q 809 419 798 419 q 851 433 828 419 q 895 470 875 447 q 929 522 916 492 q 943 583 943 552 q 896 732 943 650 q 870 779 879 762 q 852 807 861 795 q 834 826 844 818 q 807 846 825 835 q 777 867 793 857 q 744 883 760 876 q 712 895 727 890 q 686 899 696 899 q 590 880 641 899 q 490 830 539 861 q 397 760 441 800 q 323 678 353 720 q 294 632 309 659 q 266 573 279 605 q 240 508 252 542 q 219 440 228 473 q 204 377 210 408 q 199 323 199 347 q 212 267 199 293 q 248 217 225 240 q 303 170 274 191 q 364 133 333 149 q 453 103 405 113 q 553 94 500 94 q 614 98 582 94 q 680 111 647 103 q 746 128 713 118 q 808 149 779 138 q 867 174 838 160 q 917 201 897 188 q 935 216 924 208 q 957 231 946 224 q 978 242 968 238 q 992 247 987 247 q 1016 242 1005 247 q 1036 230 1027 237 q 1049 215 1044 223 q 1054 201 1054 208 q 1039 134 1054 163 q 971 83 1011 106 q 885 42 932 60 q 789 12 839 24 q 689 -9 739 -1 q 593 -21 639 -17 q 509 -24 547 -24 q 407 -14 458 -24 q 304 16 355 -3 q 131 136 199 58 q 60 322 60 218 q 67 382 60 348 q 84 455 73 416 q 109 534 95 494 q 139 611 123 574 q 172 679 155 648 q 202 730 188 710 q 297 843 245 791 q 410 933 350 895 q 538 993 470 971 q 679 1015 606 1015 q 769 1002 726 1015 q 850 968 812 990 q 923 914 889 945 q 985 844 957 882 q 1020 787 1004 818 q 1046 721 1035 755 q 1072 589 1072 647 z "},"A":{"ha":1162,"x_min":10,"x_max":1134,"o":"m 681 404 q 742 420 711 412 q 799 436 772 428 q 777 505 788 469 q 752 577 765 541 q 727 646 740 612 q 700 707 714 680 q 584 542 642 629 q 474 365 526 455 q 517 368 494 367 q 553 373 539 369 q 586 382 571 378 q 615 390 600 387 q 645 397 629 393 q 681 404 661 400 m 1134 62 q 1127 31 1134 45 q 1110 4 1121 16 q 1083 -14 1099 -7 q 1048 -20 1067 -20 q 1015 -9 1031 -20 q 984 18 999 1 q 955 57 968 35 q 929 100 941 78 q 909 141 918 121 q 895 174 901 161 q 880 208 888 192 q 865 248 873 223 q 858 268 860 261 q 853 278 855 275 q 851 284 852 282 q 848 292 850 287 q 819 284 835 286 q 785 283 804 283 q 773 281 781 283 q 754 275 765 279 q 733 268 744 272 q 711 262 722 264 q 641 246 679 254 q 562 232 603 239 q 477 217 520 224 q 391 203 434 210 q 382 200 386 202 q 373 190 379 198 q 355 163 367 181 q 320 113 342 146 q 271 48 294 76 q 228 1 248 21 q 186 -28 208 -18 q 140 -39 164 -39 q 85 -31 109 -39 q 44 -11 60 -23 q 19 16 27 1 q 10 42 10 30 q 30 74 10 65 q 84 90 50 83 q 92 100 84 90 q 109 121 99 109 q 129 145 119 134 q 143 163 139 157 q 198 240 170 200 q 262 331 227 279 l 262 330 q 291 373 279 356 q 312 405 302 390 q 333 435 322 420 q 361 474 345 451 q 434 574 403 533 q 486 642 466 615 q 532 715 511 680 q 551 745 542 730 q 568 774 559 760 q 582 801 576 789 q 592 823 589 814 q 730 1020 673 1020 q 771 1016 755 1020 q 795 1003 787 1013 q 807 979 804 994 q 810 942 810 964 q 810 909 810 921 q 809 888 810 897 q 808 871 808 880 q 806 847 808 862 q 838 776 823 812 q 867 703 853 739 q 879 669 869 695 q 900 608 888 643 q 927 533 913 572 q 952 459 941 494 q 973 399 964 425 q 985 368 982 374 q 1034 242 994 330 q 1043 223 1040 231 q 1052 206 1047 215 q 1065 186 1057 197 q 1087 156 1074 174 q 1134 62 1134 92 z "},"B":{"ha":1048,"x_min":139,"x_max":1015,"o":"m 1015 368 q 1008 306 1015 335 q 990 247 1002 276 q 960 189 978 218 q 917 128 941 160 q 888 94 903 111 q 859 63 873 77 q 831 37 844 49 q 806 18 817 26 q 750 -13 785 3 q 672 -41 715 -28 q 590 -62 630 -55 q 515 -69 550 -69 q 452 -63 480 -69 q 404 -43 424 -56 q 374 -8 385 -29 q 363 41 363 12 q 372 74 363 59 q 394 99 380 89 q 426 116 408 110 q 466 121 445 121 q 488 120 479 121 q 505 117 497 119 q 521 112 513 115 q 539 104 529 109 q 589 90 572 90 q 613 93 598 90 q 645 101 629 96 q 676 112 661 106 q 699 123 691 118 q 753 169 726 142 q 802 226 780 195 q 838 289 824 257 q 852 350 852 321 q 841 393 852 374 q 814 427 831 412 q 778 452 798 441 q 739 470 758 463 q 703 480 720 477 q 678 484 687 484 q 637 482 654 484 q 607 477 620 480 q 582 469 593 474 q 556 458 570 465 q 528 448 540 451 q 505 444 517 444 q 473 450 488 444 q 449 465 459 456 q 434 487 439 475 q 429 511 429 499 q 436 552 429 534 q 455 584 443 570 q 483 605 467 597 q 515 617 498 614 q 537 620 525 619 q 560 621 549 621 q 579 621 571 621 q 590 622 588 621 q 626 644 605 631 q 669 674 646 658 q 713 709 691 691 q 754 746 736 728 q 783 780 772 764 q 793 808 793 796 q 771 846 793 833 q 696 859 748 859 q 604 850 656 859 q 503 827 552 842 q 460 810 481 820 q 421 790 439 801 q 387 767 402 779 q 363 743 372 755 q 359 729 361 740 q 357 698 358 718 q 356 646 357 677 q 353 571 355 615 q 350 524 351 543 q 348 490 349 506 q 345 456 347 473 q 339 410 342 438 q 329 336 334 372 q 325 275 325 301 l 325 151 q 300 53 325 83 q 226 22 275 22 q 183 31 200 22 q 156 60 166 41 q 143 107 146 79 q 139 173 139 136 q 141 188 139 174 q 146 225 143 203 q 153 273 149 247 q 160 323 157 300 q 166 366 163 347 q 169 391 168 385 q 171 411 170 393 q 176 455 173 429 q 181 509 178 480 q 186 564 184 538 q 191 608 189 590 q 193 630 193 627 q 199 692 199 682 q 198 709 199 700 q 195 729 197 719 q 192 746 193 739 q 191 757 191 754 q 195 806 191 783 q 211 849 200 829 q 269 905 238 901 q 308 913 289 908 q 345 924 328 918 q 478 968 429 951 q 543 989 528 985 q 585 1000 564 996 q 629 1007 606 1004 q 681 1010 653 1009 q 745 1011 709 1011 q 792 1004 766 1011 q 843 983 819 996 q 888 953 867 970 q 920 916 909 936 q 929 896 924 908 q 937 869 933 883 q 943 843 941 856 q 945 819 945 829 q 904 714 945 768 q 787 595 864 660 q 874 557 833 581 q 947 503 916 533 q 996 437 978 472 q 1015 368 1015 403 z "},"C":{"ha":1024,"x_min":84,"x_max":1171,"o":"m 1171 439 q 1153 386 1171 416 q 1103 323 1135 356 q 1031 255 1072 290 q 943 184 989 220 q 811 94 881 137 q 668 17 741 50 q 524 -37 595 -17 q 387 -57 452 -57 q 252 -35 309 -57 q 157 28 195 -13 q 102 126 120 68 q 84 253 84 183 q 98 372 84 311 q 135 493 111 433 q 192 608 159 553 q 262 711 224 664 q 313 767 283 738 q 376 825 343 797 q 444 879 410 854 q 508 922 477 903 q 563 950 530 935 q 632 980 596 966 q 704 1004 669 994 q 765 1013 739 1013 q 838 1007 811 1013 q 886 985 865 1001 q 909 962 897 978 q 934 928 922 947 q 954 892 945 910 q 962 862 962 874 q 957 840 962 854 q 943 810 951 826 q 925 776 935 793 q 905 743 915 759 q 886 715 895 728 q 873 697 878 703 q 796 661 842 661 q 736 683 758 661 q 715 737 715 705 q 726 769 715 747 q 764 818 738 791 q 787 843 777 831 q 802 865 796 856 q 767 871 785 871 q 714 861 746 871 q 649 834 683 850 q 582 799 614 819 q 527 761 549 779 q 409 646 465 710 q 317 507 353 583 q 290 444 302 477 q 267 375 277 410 q 252 305 258 340 q 247 239 247 270 q 254 175 247 204 q 279 124 262 146 q 324 90 296 102 q 393 78 352 78 q 494 91 441 78 q 601 127 547 104 q 710 179 655 150 q 815 241 764 209 q 910 307 865 274 q 992 370 956 340 q 1024 397 1006 382 q 1059 430 1041 413 q 1094 465 1077 447 q 1126 497 1112 482 q 1151 483 1141 489 q 1164 470 1160 477 q 1170 456 1168 464 q 1171 439 1171 449 z "},"D":{"ha":1206,"x_min":152,"x_max":1155,"o":"m 989 610 q 972 686 989 654 q 927 739 955 718 q 863 773 899 761 q 789 791 827 785 q 699 803 744 799 q 606 806 653 806 q 564 805 587 806 q 517 801 541 803 q 468 796 492 798 q 419 793 443 793 q 396 676 408 734 q 376 569 385 618 q 359 481 366 519 q 351 425 353 443 q 340 345 345 387 q 335 269 335 303 q 336 239 335 252 q 341 214 338 226 q 473 249 404 225 q 627 300 542 272 q 711 331 671 315 q 783 362 751 347 q 839 392 815 377 q 878 419 863 406 q 892 435 882 423 q 915 463 902 446 q 940 498 927 479 q 964 537 954 517 q 982 576 975 557 q 989 610 989 595 m 1155 610 q 1087 437 1155 523 q 924 292 1025 359 q 827 233 880 261 q 724 181 775 205 q 625 140 671 157 q 538 110 578 122 q 478 88 511 101 q 403 52 446 75 q 363 36 384 42 q 325 25 343 29 q 293 19 307 21 q 273 18 279 18 q 203 41 232 18 q 165 102 174 64 q 155 150 158 130 q 152 180 152 170 q 153 192 152 184 q 156 208 155 199 q 159 224 157 216 q 160 237 160 232 q 161 254 160 244 q 164 275 162 264 q 167 297 165 286 q 170 317 169 308 q 201 502 188 408 q 235 694 214 595 q 240 715 237 703 q 245 738 243 726 q 250 761 248 750 q 252 778 252 771 q 247 793 252 789 q 233 803 242 797 q 217 816 224 810 q 206 828 210 822 q 199 840 201 833 q 197 857 197 847 q 205 889 197 871 q 226 921 213 906 q 257 945 239 935 q 293 955 274 955 q 330 953 307 955 q 376 949 353 951 q 418 945 399 947 q 442 943 437 943 q 554 947 492 943 q 677 951 616 951 q 844 934 766 951 q 985 880 921 917 q 1016 861 999 872 q 1050 832 1033 849 q 1085 793 1068 816 q 1118 737 1103 770 q 1145 666 1135 699 q 1155 610 1155 633 z "},"E":{"ha":1042,"x_min":103,"x_max":1072,"o":"m 1072 945 q 1068 927 1072 939 q 1058 905 1065 916 q 1044 883 1052 893 q 1027 869 1036 873 q 992 857 1009 861 q 952 848 976 852 q 830 827 890 836 q 717 814 770 819 q 620 807 664 809 q 545 805 576 805 l 445 805 q 405 805 423 805 q 370 806 387 805 q 366 752 368 784 q 362 687 364 720 q 358 623 360 654 q 353 571 356 592 q 396 568 371 569 q 444 568 420 568 q 510 570 477 568 q 564 574 543 572 q 598 577 575 576 q 647 581 621 578 q 698 585 673 583 q 737 591 723 588 q 763 602 751 597 q 786 610 774 607 q 809 614 797 613 q 834 616 821 616 q 865 609 852 616 q 884 590 877 602 q 893 563 890 578 q 896 531 896 547 q 885 498 896 511 q 857 476 873 485 q 823 464 841 468 q 792 456 805 459 q 751 451 781 454 q 683 445 722 448 q 601 439 644 442 q 519 435 558 437 q 451 432 481 433 q 408 431 420 431 q 369 427 387 431 q 332 418 351 424 q 319 348 323 386 q 304 269 314 310 q 297 235 301 252 q 291 203 294 218 q 286 175 288 188 q 283 154 283 162 q 316 155 297 154 q 355 157 334 155 q 396 160 375 158 q 435 163 416 161 q 517 171 483 168 q 579 176 551 174 q 630 181 606 178 q 680 188 653 184 q 714 192 694 190 q 756 196 734 194 q 799 202 777 199 q 838 210 820 205 q 860 217 848 212 q 882 225 871 221 q 906 232 894 229 q 930 235 918 235 q 957 229 944 235 q 981 212 970 222 q 997 185 991 201 q 1003 153 1003 170 q 997 135 1003 146 q 979 113 990 124 q 952 92 968 102 q 918 79 937 83 q 798 61 859 68 q 665 45 738 55 q 561 33 613 39 q 464 21 509 27 q 385 11 419 16 q 335 3 351 7 q 302 -4 319 1 q 266 -14 284 -9 q 232 -22 248 -19 q 203 -26 216 -26 l 201 -26 q 159 -20 177 -26 q 128 0 140 -14 q 110 40 116 15 q 103 102 103 64 q 111 166 103 131 q 128 252 119 202 q 146 338 138 299 q 163 415 155 378 q 177 489 171 452 q 187 569 184 526 q 189 592 188 574 q 192 635 191 610 q 196 689 194 661 q 200 743 198 718 q 203 786 202 768 q 204 810 204 804 q 203 823 204 814 q 201 838 201 832 q 207 872 201 853 q 225 910 213 890 q 246 931 231 920 q 279 950 261 941 q 314 964 296 959 q 345 970 332 970 q 369 967 353 970 q 402 961 385 964 q 435 955 419 958 q 457 952 450 952 q 499 951 473 952 q 558 951 526 951 q 679 955 618 951 q 802 970 739 960 q 854 982 829 975 q 902 997 878 989 q 949 1009 925 1004 q 999 1014 972 1014 q 1025 1008 1012 1014 q 1048 992 1038 1002 q 1065 970 1059 983 q 1072 945 1072 958 z "},"F":{"ha":809,"x_min":108,"x_max":888,"o":"m 834 868 q 813 860 826 861 q 786 858 801 858 q 730 857 756 858 q 690 856 703 856 q 645 853 673 856 q 583 846 616 850 q 515 837 550 842 q 451 825 481 831 q 400 812 421 819 q 372 800 378 806 q 359 761 368 793 q 341 683 350 729 q 326 584 332 637 q 319 480 319 530 q 395 497 356 488 q 481 514 435 506 q 535 526 506 518 q 593 543 564 534 q 649 557 622 551 q 699 563 677 563 q 740 561 724 563 q 767 554 757 559 q 782 537 778 549 q 787 507 787 526 q 778 472 787 489 q 756 441 770 456 q 721 422 747 431 q 664 407 694 414 q 607 394 634 399 q 567 387 579 389 q 473 369 519 379 q 389 350 427 359 q 328 332 352 340 q 301 318 304 323 q 293 289 296 307 q 288 248 290 271 q 286 200 286 225 q 285 151 285 175 q 284 83 285 111 q 284 28 284 56 q 282 -4 284 12 q 273 -32 280 -20 q 252 -51 266 -43 q 214 -58 237 -58 q 207 -58 210 -58 q 199 -57 203 -58 q 180 -51 195 -56 q 149 -34 165 -45 q 120 -4 133 -22 q 108 39 108 14 q 117 192 108 117 q 132 329 125 267 q 136 355 133 334 q 144 410 139 377 q 155 484 149 443 q 167 567 161 525 q 179 651 173 610 q 189 725 184 692 q 197 780 194 758 q 199 807 199 802 q 197 825 199 816 q 191 844 194 834 q 184 863 187 853 q 182 883 182 873 q 190 910 182 896 q 211 936 199 924 q 238 956 224 948 q 265 964 253 964 q 313 959 293 964 q 350 954 332 954 q 412 960 376 954 q 494 976 448 966 q 574 991 534 984 q 653 1004 614 998 q 726 1013 691 1010 q 792 1017 762 1017 q 820 1011 804 1017 q 851 996 836 1005 q 877 975 867 987 q 888 953 888 964 q 877 911 888 932 q 833 867 865 889 l 834 868 z "},"G":{"ha":1116,"x_min":66,"x_max":1101,"o":"m 967 1038 q 1017 1028 993 1038 q 1060 1002 1041 1019 q 1090 963 1079 985 q 1101 915 1101 941 q 1079 856 1101 878 q 1014 835 1057 835 q 982 842 996 835 q 956 858 968 850 q 933 874 944 867 q 911 882 923 882 q 826 871 875 882 q 715 835 778 861 q 602 775 656 810 q 496 697 548 740 q 400 604 446 656 q 318 499 353 551 q 293 452 304 479 q 272 396 281 426 q 258 333 263 366 q 253 269 253 301 q 271 218 253 238 q 315 186 289 198 q 369 171 340 175 q 418 166 397 166 q 502 176 458 166 q 590 202 546 185 q 677 241 635 218 q 753 288 719 263 q 779 310 762 295 q 810 343 795 326 q 838 379 826 361 q 850 407 850 396 q 848 421 850 413 q 845 437 846 429 q 841 453 843 446 q 840 466 840 461 q 924 510 840 510 q 967 500 946 510 q 1004 475 987 490 q 1030 446 1020 461 q 1042 420 1041 431 q 1036 405 1042 418 q 1021 373 1030 392 q 1001 332 1012 354 q 981 291 990 310 q 964 258 971 272 q 956 241 957 244 q 934 182 945 216 q 912 112 922 147 q 897 46 903 77 q 890 -1 890 16 q 893 -12 890 -7 q 900 -21 897 -17 q 906 -30 903 -26 q 909 -38 909 -34 q 902 -75 909 -58 q 881 -104 895 -92 q 850 -124 868 -117 q 811 -132 832 -132 q 771 -124 787 -132 q 745 -103 755 -117 q 731 -70 735 -90 q 728 -27 728 -51 q 735 11 728 -14 q 753 63 743 35 q 774 117 763 90 q 791 161 785 144 q 704 104 746 131 q 616 58 662 78 q 517 27 570 39 q 396 16 464 16 q 268 35 328 16 q 163 85 208 53 q 93 161 119 117 q 66 254 66 204 q 111 456 66 351 q 247 666 156 560 q 325 750 285 710 q 401 821 365 789 q 459 864 427 842 q 526 907 491 886 q 599 945 562 927 q 673 977 636 962 q 749 1003 713 991 q 820 1022 785 1015 q 891 1034 855 1029 q 967 1038 927 1038 z "},"H":{"ha":1144,"x_min":106,"x_max":1093,"o":"m 1093 1031 q 1085 941 1093 996 q 1063 812 1077 886 q 1032 639 1048 732 q 1008 449 1016 546 q 1007 425 1008 444 q 1004 377 1006 406 q 999 311 1002 348 q 995 233 997 274 q 991 149 993 192 q 990 66 990 106 q 982 25 990 43 q 959 -6 973 7 q 926 -25 945 -18 q 886 -31 907 -31 q 859 -26 873 -31 q 832 -11 844 -21 q 810 14 819 -1 q 802 49 802 28 q 805 87 802 62 q 812 142 808 111 q 822 207 817 172 q 832 275 827 241 q 839 340 836 309 q 842 393 842 370 q 840 414 842 405 q 829 424 838 424 q 774 421 808 424 q 702 416 739 419 q 628 411 664 413 q 570 408 593 408 q 547 407 566 408 q 503 405 528 406 q 448 401 477 404 q 393 397 419 399 q 349 392 368 395 q 326 388 330 390 q 318 360 322 385 q 309 303 313 336 q 301 238 304 271 q 296 185 298 205 q 291 102 296 142 q 274 29 286 61 q 241 -22 261 -3 q 190 -41 220 -41 q 156 -32 171 -41 q 130 -7 140 -22 q 113 25 119 7 q 106 57 106 42 q 110 90 106 71 q 117 128 113 109 q 124 163 121 147 q 128 186 127 179 q 146 282 137 228 q 164 400 155 336 q 183 533 174 463 q 200 675 192 603 q 217 819 209 747 q 232 958 225 891 q 240 980 233 968 q 257 1000 246 991 q 281 1015 267 1009 q 309 1021 294 1021 q 315 1021 313 1021 q 321 1020 318 1021 q 363 1007 347 1015 q 387 985 378 998 q 397 955 395 972 q 400 914 400 937 q 394 824 400 871 q 377 728 388 777 q 368 681 372 705 q 360 632 363 656 q 355 585 357 608 q 353 543 353 562 q 360 539 354 541 q 373 537 366 538 q 388 536 380 536 q 401 536 396 536 q 436 536 412 536 q 493 538 460 536 q 564 541 526 539 q 641 545 602 543 q 717 552 680 548 q 783 560 753 555 q 832 571 813 565 q 857 585 852 577 q 865 612 860 589 q 877 669 871 635 q 890 748 884 704 q 902 839 897 791 q 911 935 907 886 q 914 1026 914 983 q 921 1046 914 1034 q 939 1070 928 1059 q 967 1090 951 1082 q 1002 1099 983 1099 q 1029 1095 1014 1099 q 1059 1082 1045 1090 q 1082 1061 1073 1074 q 1093 1031 1092 1048 z "},"I":{"ha":432,"x_min":85,"x_max":384,"o":"m 384 865 q 380 831 384 855 q 361 771 376 807 q 343 722 350 742 q 335 691 336 701 q 312 525 323 614 q 287 332 300 436 q 280 273 283 304 q 273 215 276 242 q 269 167 271 188 q 267 139 267 146 q 270 126 267 134 q 276 110 273 118 q 282 94 279 102 q 285 81 285 87 q 275 50 285 66 q 244 20 266 35 q 209 0 227 7 q 174 -7 191 -6 q 123 9 141 -7 q 97 47 105 25 q 87 94 88 70 q 85 135 85 119 q 87 197 85 168 q 92 255 89 227 q 108 363 98 301 q 130 494 118 425 q 136 528 132 505 q 146 583 140 552 q 158 648 152 614 q 171 713 165 682 q 182 769 177 745 q 189 806 186 794 q 195 841 193 829 q 199 864 197 853 q 203 887 201 874 q 211 923 206 900 l 210 922 q 218 946 212 932 q 235 971 225 959 q 257 990 245 983 q 282 998 270 998 q 330 985 311 998 q 362 953 350 972 q 379 912 374 934 q 384 875 384 891 l 384 865 z "},"J":{"ha":851,"x_min":30,"x_max":781,"o":"m 781 717 q 774 505 781 596 q 755 353 768 413 q 723 259 744 307 q 672 167 703 211 q 602 86 642 123 q 513 26 562 50 q 448 5 484 12 q 370 -3 412 -2 q 253 5 312 -3 q 190 17 220 9 q 133 36 159 25 q 85 60 106 47 q 47 90 63 74 q 30 130 30 109 q 56 189 30 169 q 123 208 82 208 q 215 179 144 208 q 255 163 237 170 q 287 152 272 157 q 317 145 302 147 q 351 143 332 143 q 541 256 479 143 q 602 595 602 369 q 600 724 602 661 q 594 838 597 787 q 590 900 591 875 q 589 943 589 926 q 599 967 589 956 q 622 989 608 979 q 651 1004 636 998 q 677 1010 667 1010 q 728 996 707 1010 q 755 960 750 982 q 759 936 757 956 q 764 889 762 916 q 770 832 767 862 q 775 776 772 802 q 779 734 777 751 q 781 717 781 717 z "},"K":{"ha":1084,"x_min":157,"x_max":1080,"o":"m 1080 195 q 1072 159 1080 176 q 1049 129 1064 142 q 1013 109 1034 117 q 966 102 992 102 q 842 130 925 102 q 698 185 772 155 q 547 255 625 216 q 457 290 511 273 q 339 314 403 306 q 334 295 336 309 q 330 264 332 281 q 328 229 328 247 q 327 198 327 212 q 332 148 327 168 q 346 106 336 127 q 365 62 359 81 q 371 33 371 43 q 344 -13 371 6 q 264 -45 317 -32 q 209 -1 230 -25 q 176 53 188 24 q 161 116 165 82 q 157 186 157 149 q 158 249 157 209 q 161 339 159 288 q 165 447 163 389 q 169 562 167 505 q 173 674 171 620 q 177 772 175 728 q 179 846 178 817 q 180 884 180 876 q 180 893 180 888 q 178 906 179 899 q 176 920 177 913 q 176 930 176 926 q 201 984 176 958 q 259 1007 226 1007 q 313 993 286 1007 q 352 946 352 973 q 350 923 352 937 q 346 899 347 909 q 340 849 342 875 q 337 796 338 824 q 331 649 334 727 q 326 481 329 570 q 339 488 331 484 q 355 497 347 492 q 373 507 364 502 q 389 517 382 513 q 498 597 444 551 q 606 707 553 644 q 670 782 641 749 q 725 845 699 816 q 774 899 751 873 q 822 950 798 925 q 834 962 827 955 q 851 976 842 969 q 870 986 860 982 q 891 991 880 991 q 915 981 901 991 q 940 959 928 972 q 961 932 952 946 q 969 909 969 918 q 958 876 969 897 l 947 852 q 943 843 945 848 q 940 834 941 838 q 936 823 938 828 q 930 814 934 819 q 919 804 926 809 q 902 794 913 800 q 887 788 895 791 q 872 782 880 785 q 860 776 865 779 q 854 770 855 773 q 815 714 831 734 q 788 679 800 694 q 744 629 769 655 q 693 579 719 603 q 640 532 667 555 q 587 490 612 509 q 565 474 576 481 q 541 459 553 467 q 514 442 528 451 q 484 421 500 433 q 649 356 564 393 q 827 286 734 319 q 873 269 857 275 q 900 259 889 262 q 919 256 911 256 q 942 255 928 255 q 962 256 949 255 q 990 260 975 258 q 1023 264 1006 262 q 1056 269 1040 267 q 1074 232 1067 250 q 1080 195 1080 213 z "},"L":{"ha":940,"x_min":124,"x_max":923,"o":"m 905 79 q 886 62 897 69 q 863 49 876 54 q 839 42 851 44 q 816 39 826 39 l 713 39 q 645 34 682 39 q 568 20 607 28 q 491 2 530 12 q 420 -17 453 -8 q 317 -44 365 -33 q 235 -56 269 -56 q 184 -48 205 -56 q 150 -27 163 -40 q 130 3 136 -14 q 124 39 124 20 q 132 122 124 73 q 151 224 140 171 q 161 279 154 238 q 177 374 168 320 q 196 490 186 429 q 215 608 206 552 q 230 707 224 663 q 238 769 236 751 q 243 832 241 802 q 248 887 245 862 q 256 931 251 911 q 273 965 262 951 q 302 986 284 979 q 349 993 321 993 q 391 984 375 993 q 417 961 408 975 q 430 929 427 947 q 434 892 434 911 q 430 861 434 886 q 419 800 426 836 q 404 719 412 764 q 387 629 395 675 q 370 538 378 583 q 356 459 362 494 q 342 389 351 427 q 327 312 334 351 q 317 255 322 283 q 308 200 312 226 q 301 153 304 174 q 299 118 299 132 q 300 104 299 111 q 306 98 302 98 q 343 102 320 98 q 393 113 366 106 q 449 128 420 120 q 503 144 478 136 q 526 149 509 145 q 565 157 543 153 q 613 167 588 162 q 662 176 639 172 q 702 182 684 180 q 726 184 720 184 q 761 188 736 184 q 820 191 786 191 q 899 178 874 191 q 923 132 923 165 q 919 104 923 118 q 905 79 914 90 z "},"M":{"ha":1396,"x_min":75,"x_max":1295,"o":"m 1295 1006 q 1292 991 1295 996 q 1285 980 1289 986 q 1276 964 1281 974 q 1267 937 1271 955 q 1259 903 1263 918 q 1253 876 1255 889 q 1248 850 1250 863 q 1246 819 1246 837 q 1245 759 1246 789 q 1241 697 1244 729 q 1235 630 1238 665 q 1226 554 1231 595 q 1213 432 1219 496 q 1206 299 1206 368 q 1206 256 1206 281 q 1207 204 1206 232 q 1210 148 1208 176 q 1215 92 1211 119 q 1220 87 1218 88 q 1227 83 1223 86 q 1263 56 1252 67 q 1274 24 1274 44 q 1265 -6 1274 10 q 1241 -35 1256 -22 q 1208 -58 1227 -49 q 1170 -66 1190 -66 q 1105 -42 1131 -66 q 1064 21 1079 -18 q 1044 106 1050 59 q 1038 199 1038 153 l 1038 223 q 1042 281 1038 242 q 1052 369 1046 319 q 1064 474 1057 418 q 1079 583 1072 530 q 1094 682 1087 636 q 1107 758 1101 728 q 1084 729 1099 748 q 1052 686 1069 709 q 1014 635 1034 662 q 975 584 994 609 q 940 536 956 558 q 911 498 923 513 q 862 428 886 463 q 812 357 838 393 q 806 348 810 355 q 796 333 802 341 q 785 316 791 324 q 776 304 780 308 q 671 224 728 240 q 613 249 635 235 q 576 278 591 262 q 552 313 562 294 q 530 353 543 332 q 505 395 516 376 q 486 429 494 414 q 453 496 469 461 q 424 568 437 532 q 407 621 414 599 q 394 661 400 642 q 382 700 388 680 q 368 746 376 720 q 363 723 367 741 q 353 677 359 705 q 339 617 347 650 q 324 549 332 584 q 310 482 317 515 q 297 422 302 449 q 287 379 291 396 q 282 358 283 361 q 269 255 269 304 q 268 223 269 245 q 267 178 267 202 q 266 132 267 154 q 265 97 265 109 q 259 72 265 87 q 242 43 253 57 q 217 20 231 30 q 187 10 203 10 q 149 12 165 10 q 120 20 132 14 q 100 38 109 26 q 83 68 91 50 q 79 81 81 74 q 77 99 78 88 q 76 126 76 110 q 75 166 75 142 q 80 196 75 174 q 93 251 85 219 q 111 320 101 283 q 130 392 120 357 q 148 459 140 428 q 162 511 157 491 q 182 581 172 545 q 202 655 192 618 q 221 729 212 692 q 239 800 231 766 q 248 849 243 833 q 258 888 252 867 q 275 926 265 909 q 299 955 285 943 q 332 966 313 966 q 419 954 387 966 q 472 917 452 942 q 504 851 492 891 q 528 755 515 811 q 536 727 531 739 q 546 701 541 715 q 602 561 569 631 q 678 424 635 492 q 710 460 696 438 q 743 514 725 482 q 774 567 758 542 q 810 614 790 591 q 834 642 818 622 q 872 689 850 662 q 917 745 893 715 q 962 802 941 775 q 999 849 983 829 q 1022 879 1015 870 q 1034 893 1029 888 q 1044 905 1038 898 q 1068 938 1051 916 q 1104 985 1085 960 q 1140 1033 1122 1010 q 1165 1067 1157 1056 q 1201 1082 1175 1082 q 1232 1073 1215 1082 q 1262 1053 1248 1065 q 1285 1027 1276 1040 q 1294 1003 1294 1013 l 1295 1006 z "},"N":{"ha":1163,"x_min":112,"x_max":1104,"o":"m 141 218 q 160 294 149 248 q 182 395 170 340 q 205 508 193 449 q 226 623 216 567 q 242 727 235 679 q 252 810 250 776 l 252 847 q 256 877 252 859 q 270 910 260 894 q 300 937 281 926 q 350 947 319 947 q 391 938 375 947 q 418 911 407 928 q 436 870 429 894 q 452 816 444 846 q 477 747 459 788 q 522 656 496 706 q 581 551 548 607 q 650 439 614 496 q 726 328 687 383 q 804 225 765 273 q 821 302 812 261 q 837 384 829 342 q 852 465 845 425 q 865 538 859 505 q 875 599 871 572 q 882 640 880 625 q 900 737 892 695 q 912 816 907 779 q 920 888 918 852 q 923 965 923 923 q 925 989 923 976 q 931 1014 927 1002 q 940 1037 935 1026 q 953 1054 946 1048 q 975 1072 965 1065 q 995 1080 985 1078 q 1013 1084 1004 1083 q 1034 1084 1023 1084 q 1073 1073 1059 1084 q 1094 1044 1086 1062 q 1102 1006 1101 1027 q 1104 966 1104 985 q 1101 943 1104 960 q 1095 907 1099 927 q 1086 865 1091 886 q 1078 829 1082 844 q 1028 625 1049 721 q 992 444 1008 528 q 967 287 977 359 q 949 156 956 215 q 947 140 948 147 q 946 123 946 132 q 945 102 945 114 q 945 71 945 90 q 933 17 945 36 q 906 -12 922 -3 q 870 -23 889 -21 q 838 -24 852 -24 q 791 -12 808 -24 q 758 23 773 1 q 726 77 743 46 q 682 145 709 109 q 528 365 606 248 q 369 627 450 482 q 345 501 356 567 q 325 370 334 435 q 309 247 316 306 q 296 141 302 188 q 293 102 296 123 q 288 63 291 81 q 282 31 285 44 q 277 14 279 17 q 266 -7 274 5 q 248 -30 258 -19 q 224 -49 237 -41 q 197 -57 211 -57 q 154 -50 170 -57 q 128 -28 138 -42 q 115 8 119 -14 q 112 57 112 29 q 114 87 112 68 q 121 128 117 106 q 130 174 125 151 q 141 218 136 197 z "},"O":{"ha":1116,"x_min":68,"x_max":1078,"o":"m 652 858 q 570 840 609 858 q 497 794 532 823 q 430 729 462 765 q 370 655 399 692 q 321 580 345 622 q 280 492 298 538 q 251 395 262 445 q 240 297 240 346 q 254 218 240 254 q 291 156 268 182 q 343 117 314 131 q 404 102 372 102 q 503 117 454 102 q 595 156 551 131 q 680 214 640 180 q 753 285 720 247 q 813 365 787 323 q 859 448 840 407 q 891 541 878 488 q 904 648 904 593 q 902 691 904 670 q 892 732 899 712 q 867 772 886 750 q 819 813 849 794 q 747 845 789 832 q 652 858 705 858 m 1078 623 q 1064 528 1078 581 q 1024 418 1050 475 q 963 307 999 362 q 882 204 927 252 q 751 82 812 130 q 628 4 689 33 q 502 -36 567 -24 q 361 -47 437 -47 q 282 -32 320 -47 q 213 8 245 -17 q 154 67 180 33 q 108 138 127 101 q 79 215 90 176 q 68 291 68 254 q 89 432 68 355 q 146 587 109 509 q 236 738 183 665 q 353 868 288 811 q 493 958 418 924 q 652 992 569 992 q 735 987 694 992 q 813 972 777 982 q 881 948 850 962 q 937 916 913 934 q 1014 846 985 879 q 1056 779 1042 813 q 1074 707 1070 745 q 1078 623 1078 669 z "},"P":{"ha":1084,"x_min":137,"x_max":1076,"o":"m 688 879 q 571 872 635 879 q 446 856 508 866 q 467 801 467 836 q 461 780 467 797 q 450 742 456 762 q 438 704 444 722 q 431 682 433 686 q 424 660 427 673 q 418 631 421 647 q 412 599 415 616 q 407 567 410 583 q 400 530 403 546 q 397 502 398 514 q 394 477 395 489 q 393 454 393 466 q 444 475 415 463 q 502 499 472 487 q 559 525 531 512 q 609 547 587 537 q 635 561 621 553 q 665 576 650 568 q 696 593 680 585 q 724 610 711 602 q 792 656 757 629 q 856 713 827 683 q 904 775 885 744 q 922 835 922 807 q 888 858 922 849 q 784 875 837 871 q 688 879 730 879 m 1076 826 q 1070 796 1076 815 q 1056 754 1065 777 q 1038 712 1048 732 q 1018 677 1027 691 q 955 609 995 645 q 859 536 914 573 q 754 469 808 501 q 647 410 700 437 q 515 349 583 378 q 381 299 447 320 l 381 267 q 382 238 381 258 q 385 193 383 218 q 388 138 387 167 q 392 81 390 109 q 394 29 393 53 q 395 -9 395 5 q 373 -63 395 -44 q 315 -83 351 -83 q 217 248 217 -83 q 219 307 217 277 q 224 371 220 336 q 233 444 228 405 q 246 532 239 484 q 259 610 252 573 q 273 683 265 648 q 293 753 281 719 q 319 823 304 788 q 275 809 298 817 q 227 793 252 802 q 212 788 220 790 q 196 786 205 786 q 154 800 170 786 q 137 838 137 814 q 149 886 137 865 q 185 923 160 907 q 251 952 211 939 q 347 976 290 964 q 418 989 380 983 q 494 1001 456 996 q 570 1009 533 1006 q 636 1013 606 1013 q 706 1012 672 1013 q 772 1008 739 1011 q 837 1001 804 1006 q 902 988 869 996 q 1021 934 977 970 q 1076 826 1076 892 z "},"Q":{"ha":1154,"x_min":65,"x_max":1088,"o":"m 1088 491 q 1077 415 1088 452 q 1046 343 1065 378 q 1003 277 1027 309 q 954 219 979 246 q 878 153 918 181 q 795 98 838 124 q 827 60 810 83 q 864 12 845 37 q 901 -40 883 -14 q 933 -89 919 -66 q 956 -130 947 -112 q 964 -157 964 -149 q 953 -183 964 -172 q 926 -204 941 -195 q 895 -217 910 -212 q 872 -222 880 -222 q 831 -210 848 -222 q 805 -188 814 -198 q 781 -144 795 -168 q 750 -96 766 -120 q 719 -50 734 -72 q 689 -10 703 -27 q 668 17 676 7 q 659 28 660 28 q 630 22 652 28 q 576 9 608 16 q 503 -3 544 3 q 414 -9 461 -9 q 335 -2 376 -9 q 255 21 294 5 q 181 59 216 36 q 121 115 147 83 q 80 190 95 148 q 65 283 65 231 q 81 409 65 345 q 127 537 98 473 q 196 661 156 600 q 282 775 235 721 q 382 874 330 829 q 489 952 435 920 q 597 1004 543 985 q 701 1022 651 1022 q 744 1011 720 1022 q 789 981 768 1000 q 827 939 811 963 q 846 891 843 916 q 937 806 893 854 q 1014 703 981 757 q 1068 594 1048 649 q 1088 491 1088 539 m 655 863 q 618 861 637 863 q 583 849 599 858 q 494 788 537 825 q 412 704 450 750 q 340 605 373 658 q 284 499 308 553 q 248 393 261 446 q 235 294 235 340 q 252 215 235 247 q 294 164 269 183 q 350 136 319 144 q 408 127 380 127 q 430 128 414 127 q 467 131 446 129 q 512 136 488 132 q 559 144 536 139 q 531 174 547 159 q 500 204 515 190 q 475 232 486 219 q 465 253 465 244 q 479 295 465 278 q 511 322 492 312 q 550 337 530 332 q 583 341 570 341 q 619 330 602 341 q 648 292 636 319 q 665 263 654 277 q 686 236 675 248 q 706 216 697 224 q 717 208 715 208 q 759 222 736 208 q 807 259 783 236 q 853 312 831 282 q 894 373 876 342 q 922 435 911 404 q 933 490 933 466 q 916 575 933 531 q 873 660 899 618 q 814 738 846 701 q 750 803 781 775 q 694 847 720 831 q 655 863 668 863 z "},"R":{"ha":1217,"x_min":135,"x_max":1242,"o":"m 1242 41 q 1230 9 1241 24 q 1200 -15 1219 -5 q 1169 -26 1186 -22 q 1134 -31 1152 -31 q 1054 -14 1093 -31 q 969 33 1015 3 q 912 73 947 48 q 833 132 878 98 q 790 165 822 140 q 705 232 758 190 q 627 293 656 271 q 594 317 598 315 q 578 320 586 320 q 549 321 570 321 q 540 321 545 321 q 529 320 535 321 q 512 319 522 320 q 484 317 501 319 q 442 397 442 347 q 454 437 442 421 q 487 460 465 452 q 495 462 492 461 q 501 463 498 463 q 509 464 504 463 q 525 466 515 465 q 563 471 545 466 q 598 483 581 475 q 632 498 616 490 q 663 514 648 507 q 708 539 684 525 q 755 569 731 553 q 796 600 776 583 q 836 637 816 617 q 858 668 851 652 q 865 700 865 684 q 850 745 865 724 q 813 785 836 767 q 763 815 790 802 q 713 835 736 828 q 621 848 666 848 q 587 847 607 848 q 541 843 566 846 q 496 838 518 840 q 454 832 474 836 q 439 830 444 831 q 428 828 433 829 q 415 826 422 827 q 396 822 408 825 q 406 795 401 809 q 413 764 410 781 q 421 715 419 737 q 422 675 422 693 q 422 637 422 655 q 420 601 422 618 q 412 529 418 565 q 396 437 406 494 q 382 352 388 389 q 374 287 377 315 q 369 234 370 260 q 367 185 367 208 q 369 145 367 164 q 375 108 371 126 q 388 73 380 90 q 407 36 395 55 q 390 16 400 25 q 367 -1 379 6 q 343 -13 355 -9 q 320 -18 331 -18 q 240 5 265 -18 q 205 62 212 30 q 201 99 202 79 q 200 145 200 119 q 204 217 200 182 q 212 276 208 248 q 222 332 216 304 q 227 355 225 344 q 231 377 229 366 q 235 403 233 389 q 239 435 237 417 q 254 543 248 491 q 259 637 259 594 q 257 705 259 669 q 252 779 256 741 q 215 770 230 773 q 195 767 200 767 q 147 784 159 767 q 135 833 135 802 q 196 898 135 868 q 244 919 220 909 q 292 936 268 928 q 355 951 318 944 q 435 966 391 959 q 515 976 477 972 q 583 979 553 979 q 782 955 686 979 q 874 920 832 942 q 949 868 916 899 q 1023 698 1023 802 q 970 564 1023 630 q 869 470 926 510 q 744 392 812 429 q 787 361 766 376 q 834 328 809 345 q 904 279 871 302 q 964 237 936 256 q 1027 193 993 217 q 1103 141 1061 170 q 1175 93 1142 115 q 1230 58 1208 72 l 1242 41 z "},"S":{"ha":850,"x_min":14,"x_max":817,"o":"m 817 846 q 815 823 817 837 q 808 795 812 810 q 797 767 803 781 q 784 746 791 754 l 785 746 q 682 720 763 720 q 680 771 682 749 q 672 805 677 792 q 655 823 667 816 q 628 836 643 831 q 597 843 612 840 q 570 845 581 845 q 513 844 541 845 q 458 838 485 842 q 404 827 431 834 q 348 808 376 819 q 305 787 328 800 q 262 760 282 775 q 229 727 243 745 q 212 688 215 709 l 212 690 q 223 653 212 673 q 253 614 234 633 q 296 579 271 595 q 347 555 320 563 q 359 551 349 555 q 382 544 368 548 q 411 534 395 539 q 439 524 426 528 q 461 516 452 519 q 472 513 471 513 q 705 416 629 473 q 781 278 781 360 q 770 225 781 252 q 741 176 758 199 q 702 132 723 152 q 663 98 682 112 l 664 99 q 620 67 644 83 q 566 35 595 51 q 507 6 538 20 q 445 -18 477 -7 q 382 -36 415 -27 q 317 -50 349 -44 q 254 -60 284 -56 q 199 -63 224 -63 q 168 -60 186 -63 q 129 -52 149 -57 q 87 -39 108 -46 q 50 -22 66 -31 q 24 -1 34 -12 q 14 22 14 9 q 18 48 14 33 q 30 78 22 64 q 48 103 37 93 q 71 114 58 114 q 102 110 87 114 q 136 101 117 106 q 179 91 155 96 q 241 87 204 87 q 317 95 277 87 q 395 116 357 102 q 469 146 434 129 q 533 181 505 163 q 560 200 545 189 q 587 223 574 210 q 608 249 600 235 q 616 277 616 262 q 592 308 616 293 l 592 307 q 521 340 556 329 q 459 359 486 352 q 277 420 385 378 l 278 420 q 191 465 233 437 q 119 524 149 493 q 51 697 51 599 q 73 772 51 736 q 132 841 94 809 q 218 901 169 873 q 323 947 267 928 q 436 977 378 966 q 549 988 494 988 q 591 986 566 988 q 643 979 616 983 q 694 968 670 975 q 733 954 719 962 l 732 954 q 794 903 772 932 q 817 846 817 874 z "},"T":{"ha":974,"x_min":12,"x_max":1080,"o":"m 1080 887 q 1073 853 1080 866 q 1057 834 1067 841 q 1035 824 1046 827 q 1012 822 1023 822 q 968 822 987 822 q 930 823 949 823 q 892 824 912 824 q 846 825 872 825 q 807 823 829 825 q 761 817 785 821 q 713 809 737 814 q 669 800 690 804 q 634 790 649 795 q 612 781 618 785 q 603 765 607 778 q 600 743 600 753 l 582 581 q 563 394 572 486 q 553 212 553 302 q 555 177 553 200 q 560 132 557 155 q 565 93 563 110 q 567 75 567 76 q 562 41 567 58 q 547 11 557 24 q 524 -11 538 -3 q 492 -20 510 -20 q 468 -14 481 -20 q 443 2 455 -8 q 421 25 431 12 q 406 53 412 38 q 397 92 400 70 q 391 138 393 115 q 389 184 389 161 q 388 225 388 207 q 391 302 388 256 q 400 402 395 349 q 411 510 405 455 q 423 614 417 566 q 433 699 429 663 q 439 749 437 734 q 384 746 417 749 q 312 737 351 742 q 212 726 263 731 q 114 720 160 720 q 87 722 104 720 q 54 729 71 724 q 26 743 38 734 q 14 767 14 752 q 12 774 12 772 q 12 783 12 776 q 14 805 12 794 q 21 825 16 816 q 37 841 26 834 q 64 852 47 848 q 149 866 102 861 q 242 871 195 871 q 275 874 251 871 q 331 881 299 877 q 400 890 363 885 q 471 900 437 895 q 531 909 505 905 q 570 915 557 913 q 658 932 614 923 q 746 951 702 942 q 834 965 790 960 q 920 971 878 971 q 938 971 926 971 q 966 969 950 970 q 999 965 981 968 q 1031 958 1016 962 q 1051 945 1042 954 q 1066 926 1060 937 q 1076 904 1073 915 q 1080 887 1080 894 z "},"U":{"ha":1073,"x_min":112,"x_max":1029,"o":"m 956 325 q 901 189 942 251 q 797 82 859 127 q 655 12 734 37 q 485 -13 575 -13 q 420 -4 455 -13 q 351 17 385 4 q 289 47 317 31 q 243 79 260 63 q 183 153 208 112 q 142 238 158 193 q 119 330 127 283 q 112 422 112 377 q 115 473 112 445 q 121 531 117 501 q 131 592 125 562 q 141 649 136 622 q 153 717 148 685 q 163 780 157 749 q 178 873 171 827 q 198 956 185 919 q 233 1015 211 992 q 293 1038 256 1038 q 320 1026 307 1038 q 344 998 334 1014 q 361 966 355 982 q 368 941 368 949 q 365 922 368 937 q 357 889 362 908 q 346 848 352 870 q 335 808 340 827 q 327 774 330 789 q 322 756 323 760 q 315 717 319 742 q 306 661 311 692 q 296 597 301 631 q 287 531 291 563 q 281 473 283 500 q 278 429 278 446 q 312 248 278 329 q 341 208 320 228 q 387 172 361 188 q 437 145 412 155 q 481 136 463 136 q 652 164 583 136 q 755 258 720 193 q 780 321 771 289 q 795 386 789 354 q 804 449 800 418 q 812 507 807 480 q 823 640 819 576 q 833 758 827 703 q 846 857 838 812 q 868 933 854 901 q 904 982 882 965 q 958 1000 926 1000 q 992 992 979 1000 q 1014 972 1006 985 q 1025 943 1022 960 q 1029 908 1029 926 q 1024 848 1029 883 q 1014 777 1020 813 q 1002 706 1008 740 q 992 648 996 671 q 986 596 989 627 q 981 532 983 565 q 973 435 979 487 q 956 325 967 382 z "},"V":{"ha":1014,"x_min":21,"x_max":1025,"o":"m 1025 838 q 935 616 1025 782 q 881 526 910 572 q 829 447 854 483 q 777 372 804 411 q 739 315 758 343 q 697 256 719 287 q 661 202 677 228 q 631 157 644 177 q 588 77 608 119 q 558 -8 568 35 q 500 -5 526 -8 q 452 3 473 -3 q 418 31 437 7 q 380 95 400 55 q 360 135 371 113 q 338 182 349 157 q 315 232 326 206 q 294 281 304 257 q 248 391 271 335 q 203 503 224 447 q 157 620 158 618 q 100 752 126 693 q 54 858 75 811 q 21 975 30 910 q 96 1027 45 1027 q 163 1000 125 1027 q 169 987 164 998 q 182 956 174 975 q 198 914 189 938 q 222 859 208 890 q 253 784 236 823 q 286 703 269 744 q 315 625 301 667 q 346 543 330 583 q 424 341 389 434 q 493 174 458 248 q 538 252 511 211 q 592 334 564 292 q 648 416 621 375 q 696 492 675 456 q 742 577 724 540 q 776 647 759 614 q 842 785 803 699 q 877 862 861 827 q 902 922 892 896 q 920 946 909 938 q 950 955 932 955 q 1015 908 994 955 q 1024 871 1023 890 q 1025 838 1025 852 z "},"W":{"ha":1407,"x_min":76,"x_max":1397,"o":"m 1397 1008 q 1395 966 1397 991 q 1388 911 1392 941 q 1377 847 1383 881 q 1364 776 1371 812 q 1332 637 1348 702 q 1298 525 1316 572 q 1266 436 1280 478 q 1237 360 1252 395 q 1223 327 1234 351 q 1198 269 1212 302 q 1167 200 1183 237 q 1137 130 1151 163 q 1112 74 1122 98 q 1098 41 1101 50 q 1086 27 1095 35 q 1066 14 1078 20 q 1042 4 1055 7 q 1020 0 1029 0 q 981 9 1000 0 q 946 35 962 18 q 915 73 929 51 q 890 123 901 96 l 732 511 q 698 436 718 478 q 657 351 679 395 q 615 264 636 307 q 575 187 593 222 q 479 16 524 89 l 479 17 q 399 -64 431 -64 q 333 -38 359 -64 q 289 30 307 -13 q 257 127 271 73 q 227 241 243 182 q 118 704 174 430 q 111 732 117 710 q 96 787 104 753 l 96 787 q 81 848 85 823 q 76 888 76 873 q 82 912 76 900 q 97 935 87 925 q 120 952 107 945 q 149 959 134 959 q 180 947 164 959 q 210 912 195 936 q 252 819 237 870 q 264 772 258 802 q 280 701 271 743 q 301 603 289 659 q 331 476 314 547 q 357 358 347 409 q 376 269 368 307 q 391 205 385 231 q 403 161 397 179 q 465 271 437 219 q 516 366 494 322 q 555 444 538 409 q 583 501 572 478 q 620 584 601 538 q 669 694 639 631 q 680 711 673 703 q 698 725 688 719 q 720 736 708 732 q 743 740 732 740 q 784 718 763 740 q 825 653 805 696 q 834 630 827 648 q 850 587 841 612 q 871 533 860 562 q 893 477 882 504 q 912 428 903 450 q 925 395 920 406 q 984 253 963 306 q 1017 184 1005 201 q 1067 286 1043 231 q 1112 398 1090 340 q 1151 515 1133 456 q 1184 629 1169 574 q 1210 741 1200 686 q 1228 849 1221 797 q 1239 949 1235 902 q 1245 1038 1243 997 q 1252 1055 1246 1044 q 1268 1074 1258 1065 q 1291 1090 1278 1084 q 1316 1097 1303 1097 q 1382 1062 1365 1097 q 1397 1008 1397 1035 z "},"X":{"ha":1019,"x_min":-6,"x_max":1003,"o":"m 1003 94 q 994 62 1003 79 q 968 31 984 45 q 932 8 952 17 q 892 -1 912 -1 q 722 106 849 -1 q 646 182 682 140 q 565 275 609 224 q 543 303 557 285 q 512 343 528 322 q 480 386 496 365 q 454 419 465 406 q 399 366 429 397 q 345 305 370 334 q 284 238 314 271 q 227 169 254 205 q 206 143 219 159 q 179 109 193 127 q 150 71 165 90 q 125 36 136 52 q 113 15 119 26 q 99 -5 106 4 q 82 -21 91 -15 q 62 -27 73 -27 q 33 -18 46 -27 q 12 7 20 -9 q -2 42 3 22 q -6 83 -6 62 q 49 208 -6 136 q 104 272 73 239 q 176 344 136 306 q 243 407 208 374 q 307 466 278 439 q 354 512 336 493 q 373 537 373 532 q 351 578 373 544 q 298 667 330 612 q 212 825 243 765 q 180 909 180 885 q 185 942 180 922 q 200 981 190 962 q 225 1013 210 1000 q 259 1026 240 1026 q 309 999 290 1026 q 346 918 328 972 q 367 872 358 892 q 383 834 376 852 q 399 800 391 817 q 418 764 408 783 q 434 734 427 749 q 449 704 441 720 q 465 673 456 689 q 484 642 473 658 q 514 673 497 656 q 544 703 530 690 l 632 791 q 645 805 636 795 q 666 827 654 814 q 690 853 677 840 q 714 880 703 867 q 734 902 726 892 q 745 915 743 911 q 769 942 753 924 q 805 977 785 960 q 847 1007 825 994 q 892 1020 870 1020 q 933 1013 917 1020 q 958 993 949 1006 q 970 963 967 981 q 974 926 974 946 q 967 904 974 915 q 949 885 960 893 q 923 872 938 877 q 892 867 908 867 q 879 859 888 867 q 857 839 869 850 q 834 813 846 827 q 815 790 823 800 q 765 731 790 755 q 714 682 739 706 q 700 668 710 678 q 675 645 689 659 q 644 614 661 631 q 611 582 627 598 q 580 550 595 566 q 555 524 566 535 q 585 488 569 507 q 617 449 601 469 q 649 412 633 430 q 678 378 665 394 q 734 317 706 347 q 798 255 763 288 q 878 188 839 215 q 942 153 916 161 q 989 131 975 142 q 1003 94 1003 119 z "},"Y":{"ha":946,"x_min":35,"x_max":984,"o":"m 984 1112 q 983 1099 984 1108 q 979 1082 981 1090 q 930 998 962 1044 q 859 904 898 953 q 778 805 820 855 q 701 705 736 754 q 675 666 687 686 q 644 617 663 647 q 630 594 639 608 q 611 564 621 580 q 591 533 602 548 q 573 507 581 517 q 564 327 568 418 q 554 138 559 235 q 549 59 551 88 q 546 22 548 29 q 512 -24 539 -9 q 450 -39 486 -39 q 419 -30 433 -39 q 394 -8 405 -21 q 378 19 384 5 q 372 46 372 34 q 373 78 372 58 q 377 123 374 98 q 381 175 379 148 q 387 229 384 203 q 392 276 389 254 q 395 312 394 298 q 406 422 402 378 q 409 488 409 466 q 407 510 409 499 q 401 529 405 521 q 337 577 368 549 q 278 637 306 606 q 258 660 271 646 q 233 689 246 673 q 205 721 219 705 q 181 751 192 737 q 163 773 170 764 q 157 783 157 781 q 111 834 133 810 q 72 876 89 857 q 45 909 56 895 q 35 932 35 924 q 46 959 35 944 q 81 987 57 973 q 117 1001 102 998 q 143 1003 132 1003 q 182 992 163 1003 q 223 961 201 982 q 272 907 245 939 q 332 832 298 875 q 435 713 392 757 q 500 661 478 669 q 509 677 499 662 q 537 718 519 693 q 577 775 555 743 q 624 841 600 807 q 671 906 648 874 q 712 963 694 938 q 742 1004 730 989 q 753 1021 753 1020 q 786 1065 769 1042 q 821 1114 803 1088 q 838 1139 830 1128 q 854 1158 845 1150 q 873 1169 863 1165 q 899 1173 884 1173 q 950 1161 929 1173 q 975 1140 966 1153 q 984 1112 984 1126 z "},"Z":{"ha":1178,"x_min":79,"x_max":1258,"o":"m 1258 257 q 1250 229 1258 242 q 1224 210 1241 216 q 1210 208 1220 210 q 1187 203 1200 205 q 1158 199 1173 201 q 1126 195 1142 197 q 1083 188 1112 193 q 1016 177 1054 183 q 933 163 978 170 q 844 148 889 156 q 756 133 800 140 q 679 120 713 126 q 620 111 644 115 q 588 106 595 107 q 435 88 514 95 q 279 77 356 81 q 264 68 273 74 q 246 54 256 62 q 198 24 222 36 q 142 13 173 13 q 117 22 129 13 q 97 45 106 32 q 84 71 89 58 q 79 93 79 85 q 90 121 79 106 q 119 154 101 137 q 159 191 136 172 q 207 229 182 210 q 257 268 232 248 q 302 306 281 288 q 334 332 318 319 q 365 356 349 344 q 396 383 380 369 q 429 414 412 397 q 458 445 440 426 q 498 487 476 464 q 544 536 520 511 q 589 586 567 562 q 629 630 611 610 q 658 662 647 650 q 685 692 666 671 q 728 735 705 713 q 773 779 751 758 q 808 809 795 800 q 789 806 795 808 q 773 803 783 804 q 736 797 761 801 q 679 787 711 792 q 609 775 646 781 q 535 764 572 769 q 466 756 499 759 q 408 753 433 753 q 288 761 346 753 q 182 787 231 768 q 156 798 167 792 q 139 810 146 803 q 129 826 132 817 q 126 848 126 835 q 128 863 126 853 q 132 884 130 873 q 138 905 134 895 q 144 920 141 915 q 164 937 151 928 q 195 945 177 945 q 215 942 203 945 q 312 915 267 925 q 396 904 357 904 q 418 905 401 904 q 456 907 434 905 q 502 909 477 908 q 549 912 527 911 q 587 914 570 913 q 610 915 604 915 q 688 921 641 916 q 785 932 736 926 q 878 943 835 938 q 941 947 920 947 q 975 941 958 947 q 1005 924 991 935 q 1027 900 1019 913 q 1036 870 1036 886 q 1030 851 1036 861 q 1014 832 1023 842 q 996 813 1005 822 q 981 800 987 805 q 826 638 903 722 q 681 475 749 555 q 616 403 648 437 q 551 337 583 369 q 488 275 519 305 q 427 215 456 245 q 506 225 465 218 q 592 241 548 233 q 683 260 637 250 q 774 277 728 269 q 1000 311 892 299 q 1211 323 1108 323 q 1228 317 1219 323 q 1243 301 1236 311 q 1254 280 1250 292 q 1258 257 1258 269 z "},"[":{"ha":564,"x_min":107,"x_max":583,"o":"m 583 968 q 574 944 583 956 q 550 922 566 932 q 511 906 534 912 q 456 900 488 900 q 418 900 435 900 q 383 900 400 900 q 348 901 366 901 q 307 901 330 901 q 307 899 307 901 q 307 894 307 896 q 308 889 307 895 q 310 876 309 884 q 312 860 311 868 q 313 846 313 852 q 311 781 313 829 q 305 667 309 734 q 297 522 301 601 q 288 362 292 443 q 279 204 283 281 q 272 66 275 127 q 267 -34 269 5 q 264 -81 264 -74 q 267 -107 264 -85 q 269 -168 269 -130 q 265 -189 269 -189 q 292 -194 273 -194 q 328 -192 310 -194 q 374 -184 346 -191 q 409 -176 396 -178 q 423 -173 421 -173 q 503 -243 503 -173 q 492 -289 503 -272 q 461 -315 481 -305 q 412 -329 441 -324 q 345 -337 382 -333 q 310 -341 323 -340 q 287 -345 296 -343 q 270 -350 277 -347 q 254 -355 263 -352 q 219 -365 237 -361 q 182 -368 201 -368 q 151 -361 165 -368 q 127 -343 137 -354 q 113 -318 118 -332 q 107 -292 107 -304 l 117 -181 q 114 -140 116 -161 q 112 -102 113 -122 q 111 -66 111 -82 q 112 -32 111 -52 q 114 12 113 -12 q 117 59 115 35 q 121 105 119 83 q 124 146 123 127 q 127 175 125 164 q 127 180 127 178 q 127 183 127 182 q 130 213 128 191 q 134 269 132 236 q 138 341 136 302 q 144 421 141 381 q 149 500 146 462 q 153 568 151 538 q 156 617 155 598 q 157 637 157 636 q 158 676 158 655 q 159 718 159 697 q 157 755 159 732 q 153 805 156 779 q 145 856 150 831 q 135 897 141 880 q 124 935 127 920 q 120 960 121 951 q 126 997 120 980 q 148 1025 132 1013 q 191 1043 164 1036 q 259 1049 218 1049 q 309 1050 279 1049 q 368 1051 339 1050 q 418 1053 396 1052 q 448 1053 441 1053 q 583 968 583 1053 z "},"\\":{"ha":762,"x_min":5,"x_max":753,"o":"m 753 -67 q 750 -91 753 -79 q 740 -111 747 -102 q 721 -128 733 -121 q 690 -139 709 -135 q 668 -142 677 -142 q 651 -142 659 -142 q 624 -134 635 -142 q 606 -117 612 -126 q 573 -48 593 -88 q 531 38 553 -8 q 484 134 508 84 q 435 231 459 183 q 390 323 412 279 q 350 402 368 368 q 321 460 333 437 q 307 490 310 484 q 246 606 273 554 q 189 702 219 658 q 165 741 180 720 q 138 781 151 762 l 138 781 q 124 801 131 791 q 113 818 118 810 l 114 817 q 104 833 109 825 q 92 852 99 841 q 47 924 64 895 q 21 972 30 953 q 8 1004 12 991 q 5 1027 5 1017 q 14 1051 5 1039 q 35 1073 22 1063 q 66 1089 49 1083 q 100 1096 83 1096 q 132 1088 119 1096 q 158 1065 146 1080 q 180 1032 170 1051 q 202 989 191 1013 q 219 956 213 969 q 229 939 226 943 q 269 881 250 911 q 307 819 288 850 q 342 754 325 787 q 378 691 360 722 l 378 692 q 391 670 384 682 q 408 638 397 657 q 432 592 418 620 q 465 526 446 565 q 474 506 467 522 q 493 469 482 490 q 516 422 503 447 q 539 376 528 398 q 559 336 551 353 q 571 313 568 319 q 653 164 614 235 q 729 18 692 92 q 753 -67 753 -31 z "},"]":{"ha":582,"x_min":-29,"x_max":543,"o":"m 543 1008 q 519 925 543 967 q 509 897 514 917 q 498 851 504 878 q 487 793 493 825 q 476 732 481 762 q 467 673 471 701 q 459 625 463 646 q 442 523 450 568 q 431 444 434 478 q 425 373 427 410 q 421 298 422 336 q 419 225 420 260 q 417 160 418 189 q 417 112 417 132 q 416 85 416 92 q 413 49 414 71 q 411 4 412 28 q 409 -45 410 -20 q 408 -89 408 -69 q 407 -123 407 -109 q 406 -139 406 -136 q 408 -161 406 -148 q 411 -192 409 -174 q 417 -250 417 -228 q 334 -324 417 -324 l 226 -313 q 136 -321 200 -313 q 83 -326 105 -324 q 47 -328 60 -328 q 20 -323 33 -328 q -5 -311 6 -319 q -22 -295 -16 -304 q -29 -277 -29 -286 q -16 -207 -29 -238 q 8 -178 -8 -189 q 49 -168 24 -168 q 72 -169 59 -168 q 97 -171 85 -170 q 120 -172 110 -172 q 136 -173 131 -173 q 152 -171 139 -173 q 181 -168 165 -170 q 214 -164 197 -165 q 240 -162 231 -162 q 251 -161 245 -161 q 264 -160 256 -160 q 264 -37 264 -98 q 266 79 265 24 q 268 182 267 134 q 271 267 269 230 q 273 330 272 304 q 275 364 274 355 q 298 556 287 467 q 319 712 310 645 q 336 820 329 779 q 345 869 342 861 q 348 879 345 870 q 356 898 352 887 q 364 918 360 908 q 368 931 368 927 q 271 923 313 930 q 218 910 258 921 q 180 902 197 905 q 151 899 163 899 q 122 904 139 899 q 91 916 106 908 q 64 935 75 924 q 54 959 54 946 q 62 990 54 972 q 84 1025 71 1008 q 114 1053 98 1041 q 148 1064 131 1064 q 161 1063 153 1064 q 178 1062 170 1063 q 194 1060 186 1061 q 204 1059 201 1059 q 224 1061 208 1059 q 261 1065 241 1063 q 300 1071 281 1068 q 327 1074 319 1074 q 363 1080 343 1077 q 401 1084 382 1082 q 434 1088 419 1086 q 454 1089 448 1089 q 488 1081 472 1089 q 516 1061 504 1073 q 535 1034 528 1048 q 543 1008 543 1020 z "},"^":{"ha":799,"x_min":40,"x_max":770,"o":"m 770 438 q 764 416 770 429 q 748 391 758 403 q 726 371 739 379 q 702 363 714 363 q 676 370 689 363 q 652 389 663 378 q 632 413 641 400 q 618 437 623 426 q 595 472 610 450 q 558 524 581 493 q 471 641 510 589 q 400 732 433 693 q 384 713 393 724 q 367 691 376 703 q 334 647 349 666 q 306 611 319 628 q 282 576 294 594 q 258 536 270 559 q 251 522 256 531 q 239 503 245 513 q 227 481 233 492 q 214 460 220 469 q 204 444 208 450 q 200 436 201 437 q 164 388 182 406 q 117 370 146 370 q 83 378 98 370 q 60 398 69 386 q 45 424 50 410 q 40 450 40 438 q 71 509 40 471 q 113 564 94 541 q 151 616 133 587 q 167 642 156 626 q 192 678 178 659 q 220 718 205 697 q 247 755 235 738 q 269 785 260 772 q 279 802 277 798 q 283 807 281 804 q 286 813 284 810 q 291 821 289 817 q 296 828 294 825 q 325 871 313 853 q 350 901 338 889 q 376 918 362 912 q 410 923 391 923 q 439 917 428 923 q 460 898 450 911 q 483 864 471 885 q 514 814 495 844 q 563 745 533 784 q 637 655 592 705 q 683 601 659 631 q 725 541 706 571 q 757 483 745 510 q 770 438 770 456 z "},"_":{"ha":579,"x_min":-43,"x_max":619,"o":"m 619 -104 q 611 -132 619 -125 q 578 -139 602 -139 q 507 -133 562 -139 q 463 -129 480 -130 q 436 -127 445 -127 q 361 -130 404 -127 q 274 -136 319 -133 q 186 -142 229 -139 q 111 -144 144 -144 q 92 -144 106 -144 q 55 -142 77 -143 q 18 -140 33 -140 q -1 -139 4 -139 q -33 -126 -22 -139 q -43 -94 -43 -113 q -31 -66 -43 -78 q -1 -54 -19 -54 q 14 -53 2 -54 q 45 -51 25 -52 q 79 -48 64 -50 q 103 -47 94 -47 q 133 -48 115 -47 q 172 -50 150 -49 q 214 -52 193 -52 q 254 -53 235 -53 q 345 -47 286 -53 q 399 -43 376 -44 q 439 -41 422 -41 q 507 -47 450 -41 q 554 -53 536 -51 q 578 -54 572 -54 q 607 -67 595 -54 q 619 -104 619 -80 z "},"`":{"ha":436,"x_min":26,"x_max":412,"o":"m 412 758 q 396 718 412 734 q 349 702 380 702 q 328 708 344 702 q 297 726 311 714 q 290 731 294 728 q 281 739 286 734 q 257 758 271 747 q 230 777 243 768 q 205 794 216 787 q 189 806 195 802 q 169 821 185 809 q 130 847 153 832 q 52 906 77 880 q 26 954 26 932 q 34 973 26 962 q 52 994 41 984 q 74 1009 62 1003 q 94 1016 85 1016 q 126 1009 108 1016 q 164 988 144 1002 q 198 961 183 975 q 226 936 212 947 q 258 908 241 923 q 298 878 275 894 q 339 845 323 860 q 368 821 354 830 q 412 758 412 790 z "},"a":{"ha":911,"x_min":41,"x_max":1126,"o":"m 510 525 q 508 539 510 531 q 502 554 505 547 q 493 567 498 562 q 484 572 488 572 q 402 548 439 572 q 326 482 366 524 q 278 422 303 460 q 231 341 252 384 q 195 256 209 298 q 180 180 180 213 q 181 164 180 172 q 185 151 182 157 q 194 140 189 144 q 208 136 199 136 q 267 153 234 136 q 332 196 299 170 q 396 258 365 223 q 448 330 427 293 q 492 423 473 374 q 510 525 510 472 m 1126 455 q 1123 436 1126 447 q 1116 413 1120 425 q 1105 392 1111 402 q 1094 374 1099 381 q 1083 360 1090 369 q 1066 341 1076 352 q 1045 319 1057 331 q 1021 294 1033 307 q 941 222 981 258 q 857 159 901 186 q 764 115 812 132 q 662 98 716 98 q 615 108 639 98 q 571 136 591 118 q 535 178 551 153 q 514 231 520 203 q 482 188 502 211 q 439 141 463 164 q 391 97 416 118 q 344 62 366 77 q 308 41 329 52 q 262 21 286 30 q 215 6 239 12 q 170 0 191 0 q 113 19 138 0 q 73 64 89 37 q 49 122 57 92 q 41 177 41 153 q 55 268 41 222 q 89 359 68 315 q 135 443 109 403 q 184 514 160 483 q 246 579 210 547 q 321 636 282 611 q 399 677 361 662 q 467 693 437 693 q 501 692 484 693 q 535 689 518 691 q 568 683 552 687 q 595 673 583 679 q 613 653 604 667 q 632 624 623 640 q 646 592 640 608 q 652 568 652 576 q 647 523 652 549 q 634 468 641 496 q 621 410 627 439 q 614 353 614 380 q 620 314 614 334 q 635 278 625 294 q 660 252 646 262 q 692 242 674 242 q 771 257 732 242 q 850 298 810 272 q 928 360 889 324 q 1008 437 968 395 q 1019 447 1009 437 q 1041 469 1028 457 q 1069 492 1055 481 q 1095 502 1084 502 q 1120 490 1114 502 q 1126 455 1126 479 z "},"b":{"ha":942,"x_min":138,"x_max":1169,"o":"m 1169 493 q 1162 465 1169 480 q 1137 431 1155 450 q 1088 388 1119 412 q 1011 333 1058 364 q 898 264 964 302 q 745 176 832 225 q 678 138 705 155 q 636 113 650 122 q 615 95 627 107 q 585 65 602 83 q 533 15 559 41 q 479 -32 507 -11 q 421 -65 451 -52 q 358 -79 391 -79 q 297 -66 321 -79 q 274 -27 274 -54 q 285 3 274 -14 q 312 36 296 19 q 349 68 329 52 q 389 98 370 84 q 424 122 408 112 q 447 138 439 132 q 498 171 479 158 q 518 186 517 184 q 585 242 555 212 q 637 300 615 271 q 668 360 658 327 q 678 429 678 393 q 674 459 678 441 q 664 495 671 478 q 647 525 657 513 q 625 538 637 538 q 561 515 595 538 q 495 462 528 493 q 430 390 463 431 q 363 300 398 349 q 326 236 340 265 q 306 184 313 208 q 297 140 299 160 q 294 105 295 121 q 286 70 294 87 q 267 39 279 52 q 241 17 256 25 q 212 9 227 9 q 154 36 170 9 q 138 121 138 64 q 139 138 138 123 q 140 174 140 153 q 142 220 141 195 q 144 265 143 244 q 145 301 144 286 q 146 317 146 315 q 151 395 148 357 q 158 473 154 433 q 166 555 161 513 q 176 644 170 597 q 199 817 188 733 q 231 980 210 901 q 238 1001 233 986 q 253 1032 243 1016 q 275 1060 262 1048 q 306 1072 289 1072 q 356 1062 338 1072 q 382 1038 374 1052 q 393 1008 391 1023 q 395 981 395 992 q 388 945 395 970 q 372 876 381 920 q 341 728 356 806 q 317 576 326 650 q 312 539 315 561 q 308 492 310 517 q 303 444 305 468 q 298 400 300 420 q 379 521 336 468 q 477 615 422 574 q 554 657 515 642 q 629 671 594 671 q 706 652 670 671 q 770 601 743 632 q 812 530 797 569 q 828 452 828 490 q 826 432 828 445 q 820 404 825 419 q 808 371 816 388 q 788 339 800 355 q 897 409 846 375 q 1002 475 949 443 q 1044 502 1027 490 q 1073 521 1060 513 q 1122 543 1108 543 q 1158 527 1147 543 q 1169 493 1169 511 z "},"c":{"ha":729,"x_min":61,"x_max":969,"o":"m 969 467 q 965 444 969 454 q 954 424 962 434 q 934 403 946 414 q 904 374 922 391 l 844 314 q 811 282 825 295 q 784 258 797 269 q 756 235 770 247 q 722 206 742 223 q 635 136 677 169 q 551 78 592 104 q 420 18 490 39 q 273 -3 351 -3 q 182 16 222 -3 q 116 66 143 35 q 75 140 89 98 q 61 229 61 182 q 98 408 61 318 q 201 585 136 498 q 239 630 217 606 q 286 673 261 654 q 336 705 310 692 q 386 718 361 718 q 417 708 402 718 q 447 684 433 699 q 475 647 462 668 q 498 603 488 627 q 520 534 520 555 q 518 506 520 522 q 509 474 515 489 q 492 449 503 459 q 464 438 481 438 q 422 454 439 438 q 395 491 406 470 q 378 532 385 512 q 366 562 372 553 q 332 538 350 555 q 296 494 314 520 q 263 436 279 469 q 236 368 248 404 q 217 294 224 332 q 210 218 210 256 q 235 158 210 184 q 288 130 263 130 q 436 158 365 130 q 574 234 508 186 q 668 306 619 266 q 775 401 717 345 q 818 440 796 421 q 860 473 839 458 q 899 496 880 487 q 934 505 918 505 q 969 467 969 505 z "},"d":{"ha":982,"x_min":39,"x_max":1189,"o":"m 488 360 q 499 375 493 366 q 512 394 506 384 q 525 415 519 404 q 536 434 532 425 q 515 459 522 444 q 509 492 509 475 q 510 507 509 498 q 512 525 511 516 q 514 543 513 534 q 515 555 515 551 q 510 573 515 564 q 497 591 505 583 q 480 605 489 600 q 463 610 471 610 q 425 591 447 610 q 380 543 404 572 q 333 479 356 513 q 290 414 309 444 q 252 351 268 380 q 225 298 237 321 q 189 176 189 220 q 204 135 189 135 q 239 144 218 135 q 290 174 261 154 q 346 214 321 195 q 388 252 370 233 q 450 317 426 290 q 488 360 473 344 m 1189 469 q 1185 445 1189 456 q 1173 418 1182 433 q 1148 384 1164 404 q 1109 336 1133 364 l 1109 336 q 1056 278 1084 307 q 995 219 1027 250 q 932 164 964 189 q 872 121 901 139 q 817 92 843 102 q 771 81 791 81 q 696 103 724 81 q 652 162 669 125 q 627 250 635 199 q 610 357 618 300 q 571 298 592 330 q 528 235 551 267 q 480 175 505 204 q 430 122 456 146 q 291 30 362 60 q 143 -1 219 -1 q 97 12 117 -1 q 64 47 77 26 q 45 94 52 68 q 39 143 39 119 q 41 198 39 175 q 50 236 44 220 q 114 394 79 319 q 202 542 150 469 q 267 623 235 588 q 334 683 298 659 q 411 719 370 707 q 504 731 452 731 q 575 699 547 731 q 614 610 603 667 q 624 669 619 636 q 632 737 628 701 q 640 812 636 773 q 646 888 643 850 q 654 978 649 941 q 668 1028 660 1015 q 695 1057 679 1046 q 739 1069 711 1069 q 771 1064 756 1069 q 799 1051 787 1059 q 817 1033 810 1043 q 824 1014 824 1023 q 821 987 824 1005 q 811 941 817 970 q 798 870 806 912 q 779 772 789 829 q 778 757 779 768 q 773 732 776 746 q 769 703 771 718 q 764 675 766 688 q 760 652 762 662 q 758 641 758 643 q 744 543 749 588 q 739 452 739 497 q 739 408 739 431 q 740 362 739 385 q 742 315 741 338 q 746 271 743 292 q 749 260 747 267 q 756 248 752 254 q 767 238 761 242 q 781 234 773 234 q 801 238 790 234 q 824 247 812 241 q 847 259 836 253 q 867 272 858 266 q 938 323 903 296 q 1008 383 972 351 q 1077 445 1042 415 q 1138 504 1112 475 q 1164 514 1148 514 q 1182 504 1175 514 q 1189 469 1189 494 z "},"e":{"ha":731,"x_min":99,"x_max":956,"o":"m 427 593 q 424 622 427 608 q 414 639 420 635 q 365 619 391 639 q 315 563 338 600 q 272 476 291 527 q 245 362 254 425 q 309 412 277 386 q 367 467 341 438 q 410 527 393 495 q 427 593 427 558 m 956 469 q 937 424 956 456 q 859 323 902 373 q 767 229 816 273 q 665 145 718 184 q 558 79 612 107 q 450 36 504 52 q 345 20 396 20 q 164 85 229 20 q 99 283 99 151 q 106 387 99 336 q 131 488 114 438 q 176 586 149 538 q 245 680 204 634 q 280 712 260 696 q 322 740 300 728 q 370 760 345 752 q 419 767 395 767 q 481 753 455 767 q 524 717 507 740 q 549 665 541 694 q 557 603 557 635 q 513 478 557 543 q 389 345 468 413 q 329 298 363 323 q 253 241 295 273 q 263 209 254 224 q 286 183 271 194 q 321 165 300 172 q 367 159 341 159 q 437 167 400 159 q 511 190 475 176 q 583 223 548 204 q 646 262 617 241 q 742 339 696 298 q 832 425 789 381 l 868 460 q 932 494 905 494 q 950 485 945 494 q 956 469 956 475 z "},"f":{"ha":553,"x_min":-35,"x_max":795,"o":"m 795 514 q 789 497 795 507 q 776 477 784 488 q 757 458 768 467 q 736 444 747 449 q 703 432 726 439 q 647 419 679 425 q 579 407 616 412 q 509 398 543 401 q 456 393 478 395 q 416 389 434 391 q 383 386 399 387 q 349 385 368 385 q 344 340 348 372 q 335 268 340 309 q 324 183 330 228 q 312 97 318 138 q 302 23 307 56 q 295 -26 298 -10 q 281 -104 289 -64 q 262 -171 273 -144 q 230 -237 250 -205 q 184 -298 210 -269 q 57 -357 131 -357 q 24 -351 41 -357 q -6 -336 7 -345 q -27 -315 -19 -327 q -35 -292 -35 -304 q -31 -266 -35 -281 q -17 -237 -26 -251 q 3 -214 -8 -224 q 29 -204 15 -204 q 40 -205 33 -204 q 53 -208 46 -206 q 67 -211 60 -210 q 80 -212 75 -212 q 100 -187 92 -203 q 115 -151 109 -171 q 127 -107 121 -130 q 136 -63 132 -85 q 152 24 145 -18 q 165 104 159 65 q 176 182 172 144 q 184 260 181 220 q 187 283 185 269 q 190 314 189 298 q 193 346 192 330 q 194 375 194 362 q 187 387 194 380 q 172 402 180 393 q 157 421 164 411 q 151 442 151 431 q 192 508 153 459 q 217 544 209 529 q 229 573 225 558 q 234 606 232 588 q 239 650 235 623 q 251 720 245 688 q 264 781 256 752 q 283 838 272 810 q 313 896 295 865 q 348 945 327 920 q 394 991 368 970 q 448 1024 419 1011 q 505 1036 476 1036 q 606 996 566 1036 q 651 898 651 954 q 599 753 651 830 q 526 703 566 703 l 514 703 q 527 765 523 736 q 531 819 531 794 q 530 847 531 829 q 524 882 528 865 q 513 912 520 899 q 496 924 507 924 q 480 915 490 924 q 461 891 471 905 q 441 860 451 877 q 425 827 432 843 q 406 774 416 808 q 387 701 395 740 q 371 623 378 662 q 361 554 364 584 l 361 527 q 371 520 361 523 q 396 517 380 518 q 433 515 412 515 q 474 515 453 515 q 542 516 509 515 q 606 520 574 517 q 670 528 637 524 q 739 540 703 533 q 750 541 745 541 q 761 541 755 541 q 795 514 795 541 z "},"g":{"ha":677,"x_min":-50,"x_max":635,"o":"m 476 400 q 483 450 479 421 q 489 522 486 478 q 492 556 490 545 q 494 575 494 568 q 492 597 494 590 q 481 608 490 605 q 456 612 473 611 q 395 563 425 591 q 337 501 365 534 q 286 432 310 468 q 243 362 262 396 q 212 290 224 326 q 201 229 201 254 q 208 214 201 218 q 225 210 216 210 q 271 220 245 210 q 321 245 296 231 q 370 276 347 260 q 410 304 393 292 q 427 319 416 309 q 448 342 437 329 q 467 371 458 355 q 476 400 475 386 m 625 517 q 617 417 620 472 q 608 297 614 363 q 603 240 606 273 q 596 175 600 208 q 589 109 593 141 q 581 52 585 77 q 565 -32 574 12 q 540 -118 555 -75 q 504 -200 525 -161 q 452 -270 482 -239 q 382 -317 422 -300 q 290 -335 342 -335 q 226 -328 258 -335 q 162 -307 193 -320 q 102 -277 131 -294 q 50 -240 74 -260 q -33 -148 -8 -192 q -46 -123 -41 -134 q -50 -99 -50 -112 q -41 -74 -50 -84 q -18 -64 -32 -64 q -3 -69 -12 -64 q 15 -80 6 -74 q 31 -93 24 -87 q 39 -100 37 -98 q 160 -182 97 -155 q 289 -208 224 -208 q 355 -183 328 -208 q 398 -119 381 -157 q 425 -37 415 -81 q 441 47 435 8 q 451 136 447 87 q 460 231 456 185 q 391 170 429 199 q 313 117 354 140 q 230 80 273 94 q 146 66 188 66 q 105 76 125 66 q 72 103 86 85 q 50 144 58 120 q 41 199 41 169 q 55 282 41 237 q 90 371 68 326 q 136 457 111 416 q 186 532 162 499 q 247 600 211 564 q 323 665 282 635 q 409 713 365 694 q 494 732 453 732 q 544 726 519 732 q 589 705 569 719 q 623 670 610 691 q 635 622 635 650 q 634 598 635 611 q 632 570 633 585 q 628 543 630 556 q 625 517 627 529 l 625 517 z "},"h":{"ha":1107,"x_min":115,"x_max":1323,"o":"m 1323 447 q 1317 424 1323 437 q 1299 393 1310 411 q 1281 368 1292 382 q 1257 339 1270 354 q 1232 310 1244 324 q 1210 286 1220 296 q 1127 210 1171 246 q 1036 144 1084 173 q 937 99 988 116 q 832 81 886 81 q 750 98 785 81 q 696 153 715 115 q 682 191 689 165 q 669 248 675 218 q 659 307 663 278 q 653 355 654 336 q 651 383 652 367 q 647 413 650 399 q 641 437 645 427 q 631 447 637 447 q 618 444 625 447 q 578 412 606 437 q 514 348 550 387 q 438 259 478 309 q 362 154 398 209 q 334 109 349 134 q 306 59 320 84 q 279 9 292 33 q 255 -33 266 -14 q 237 -51 248 -43 q 217 -64 227 -59 q 199 -71 208 -68 q 187 -73 191 -73 q 159 -66 172 -73 q 136 -48 146 -59 q 120 -24 126 -38 q 115 3 115 -11 q 117 30 115 10 q 123 73 119 49 q 131 124 127 98 q 137 173 134 151 q 148 268 142 216 q 159 372 154 319 q 169 474 164 424 q 175 564 173 524 q 177 598 176 576 q 180 645 178 619 q 183 700 182 671 q 186 755 184 728 q 189 806 188 782 q 191 846 190 829 q 193 881 191 865 q 198 914 195 898 q 208 947 202 930 q 223 983 214 964 q 234 1000 227 991 q 252 1016 241 1008 q 275 1028 262 1023 q 300 1034 288 1034 q 349 1014 329 1034 q 369 958 369 994 q 367 930 369 947 q 361 897 364 913 q 356 868 358 881 q 353 851 353 854 q 348 817 351 842 q 340 759 345 792 q 331 685 336 725 q 321 605 326 646 q 311 527 316 565 q 303 459 307 489 q 297 410 299 429 q 294 389 295 391 q 289 350 292 375 q 282 299 286 326 q 276 250 279 273 q 271 217 273 227 q 287 241 277 226 q 308 272 297 256 q 328 302 318 288 q 342 323 337 317 q 367 360 353 340 q 398 402 382 380 q 432 444 414 423 q 466 481 450 465 q 513 526 487 503 q 569 568 540 549 q 629 600 598 587 q 688 612 659 612 q 706 608 695 612 q 729 598 718 605 q 749 583 740 592 q 763 561 759 573 q 778 502 772 536 q 789 429 784 467 q 800 354 794 391 q 812 288 805 317 q 828 240 819 258 q 850 222 837 222 q 885 223 869 222 q 916 228 901 224 q 947 237 931 231 q 980 251 962 242 q 1044 286 1017 269 q 1096 320 1072 302 q 1144 360 1120 338 q 1201 411 1169 382 q 1260 461 1235 442 q 1297 481 1286 481 q 1311 477 1305 481 q 1318 469 1316 474 q 1322 458 1321 464 q 1323 447 1323 452 z "},"i":{"ha":647,"x_min":129,"x_max":853,"o":"m 431 992 q 425 950 431 970 q 405 912 418 930 q 326 876 379 876 q 287 880 307 876 q 252 889 267 883 q 226 905 236 895 q 216 926 216 914 q 227 971 216 947 q 255 1014 237 994 q 293 1047 272 1034 q 332 1061 313 1061 q 374 1058 356 1061 q 405 1047 393 1055 q 425 1026 418 1040 q 431 992 431 1013 m 853 434 q 841 394 853 418 q 809 341 829 370 q 760 278 788 311 q 698 209 731 244 q 620 133 662 170 q 530 61 578 96 q 438 8 484 27 q 352 -10 393 -10 q 270 6 304 -10 q 210 49 235 22 q 170 112 185 77 q 145 188 154 148 q 132 268 136 227 q 129 345 129 309 q 131 388 129 359 q 137 448 133 416 q 145 509 140 479 q 154 555 149 538 q 201 618 164 589 q 279 647 236 647 q 323 594 323 647 q 319 541 323 569 q 309 486 315 513 q 297 396 300 436 q 294 326 294 357 q 298 259 294 292 q 310 201 302 227 q 329 160 317 176 q 357 144 341 144 q 399 148 378 144 q 452 168 421 152 q 576 254 510 200 q 628 299 599 273 q 687 353 658 326 q 742 407 716 380 q 783 452 768 433 q 788 461 785 456 q 797 471 792 466 q 807 480 802 477 q 819 484 813 484 q 834 481 829 484 q 846 463 840 478 q 853 434 853 446 z "},"j":{"ha":422,"x_min":-151,"x_max":469,"o":"m 469 981 q 464 968 469 977 q 452 946 459 958 q 435 921 444 934 q 417 898 426 908 q 399 880 408 887 q 386 873 391 873 q 354 877 366 873 q 331 888 341 880 q 313 907 321 895 q 294 937 305 920 q 279 963 284 953 q 275 982 275 973 q 283 1009 275 996 q 306 1035 292 1023 q 334 1054 319 1046 q 364 1061 350 1061 q 400 1056 382 1061 q 434 1039 419 1050 q 459 1014 450 1029 q 469 981 469 999 m 351 620 q 347 603 351 613 q 339 582 344 593 q 330 560 334 571 q 322 539 325 549 q 313 412 313 501 q 313 374 313 397 q 314 326 314 351 q 315 277 315 301 q 316 237 316 253 q 309 32 316 126 q 283 -134 302 -62 q 253 -213 272 -176 q 206 -275 233 -249 q 143 -317 179 -302 q 63 -332 108 -332 q -14 -318 24 -332 q -83 -286 -52 -304 q -132 -247 -113 -267 q -151 -214 -151 -227 q -142 -187 -151 -195 q -115 -180 -134 -180 q -94 -185 -110 -180 q -57 -197 -79 -191 q -9 -209 -35 -203 q 42 -214 16 -214 q 84 -201 66 -214 q 115 -165 102 -188 q 136 -112 128 -142 q 149 -45 144 -81 q 156 28 154 -10 q 157 103 157 66 q 157 144 157 121 q 156 195 157 168 q 155 249 155 221 q 153 302 154 277 q 152 348 153 327 q 152 382 152 369 q 182 606 152 532 q 281 680 213 680 q 331 664 311 680 q 351 620 351 648 z "},"k":{"ha":964,"x_min":112,"x_max":1081,"o":"m 1081 292 q 1062 259 1081 284 q 1011 201 1043 234 q 938 131 979 168 q 852 63 897 94 q 763 13 808 33 q 680 -7 719 -7 q 623 0 650 -7 q 573 20 597 7 q 527 48 549 32 q 484 83 505 65 q 444 122 464 102 q 405 162 423 142 q 369 198 386 181 q 338 227 353 215 q 297 184 313 201 q 272 151 281 166 q 260 120 263 136 q 256 83 256 105 q 253 31 256 52 q 241 -3 250 9 q 216 -21 233 -16 q 174 -26 200 -26 q 141 -23 153 -26 q 122 -11 129 -19 q 114 10 116 -3 q 112 41 112 23 q 114 80 112 58 q 120 123 117 101 q 127 167 123 146 q 134 206 131 189 q 137 228 134 210 q 142 275 139 247 q 151 339 146 304 q 160 412 155 375 q 169 483 164 448 q 176 546 173 518 q 182 591 180 574 q 184 611 184 609 q 195 695 190 652 q 204 781 200 739 q 212 864 209 823 q 217 941 216 905 q 223 974 218 957 q 239 1006 229 991 q 265 1029 250 1020 q 300 1038 280 1038 q 344 1029 328 1038 q 368 1008 360 1021 q 378 982 376 996 q 380 960 380 969 q 378 927 380 949 q 371 878 375 905 q 363 822 368 851 q 354 768 358 793 q 346 724 349 743 q 341 697 342 705 q 319 571 328 618 q 306 497 311 523 q 295 436 299 460 q 288 394 291 412 q 283 362 286 376 q 278 332 281 348 q 325 390 300 360 q 374 449 349 420 q 420 506 398 479 q 459 555 443 533 q 498 607 475 577 q 549 663 521 636 q 609 708 577 689 q 672 726 640 726 q 705 720 692 726 q 725 703 718 713 q 735 681 732 692 q 739 659 739 669 q 723 621 739 642 q 686 577 708 600 q 638 534 663 555 q 593 493 613 512 q 505 404 543 444 q 435 326 467 364 q 473 295 453 314 q 516 256 494 276 q 561 215 538 235 q 606 179 584 195 q 645 154 630 163 q 673 140 661 144 q 696 135 685 136 q 723 134 708 134 q 765 142 742 134 q 813 163 789 150 q 864 194 838 177 q 912 229 889 211 q 956 265 936 248 q 991 297 977 283 q 1021 323 1009 313 q 1046 334 1032 334 q 1063 328 1056 334 q 1074 314 1069 321 q 1079 300 1078 307 q 1081 292 1081 293 z "},"l":{"ha":616,"x_min":130,"x_max":800,"o":"m 800 414 q 792 375 800 398 q 766 320 784 351 q 717 251 747 290 q 641 166 686 212 q 584 116 616 141 q 517 72 553 91 q 445 40 482 52 q 370 28 407 28 q 276 45 319 28 q 199 99 232 63 q 148 191 167 136 q 130 319 130 245 q 134 419 130 368 q 146 524 139 471 q 162 629 153 577 q 180 728 172 681 q 191 786 186 761 q 198 836 195 811 q 207 890 202 861 q 218 958 212 919 q 230 995 222 977 q 251 1025 238 1012 q 280 1046 263 1038 q 317 1054 297 1054 q 391 1007 368 1054 l 383 968 q 367 892 377 936 q 346 797 357 848 q 324 689 335 745 q 303 574 313 632 q 289 458 294 515 q 283 347 283 400 q 289 273 283 306 q 307 216 294 239 q 340 180 320 193 q 389 167 361 167 q 448 179 418 167 q 510 210 479 191 q 570 253 541 229 q 625 302 600 277 q 671 350 651 327 q 705 391 692 374 q 718 408 711 399 q 734 425 725 417 q 754 439 743 433 q 777 444 764 444 q 793 436 786 444 q 800 414 800 429 z "},"m":{"ha":1413,"x_min":149,"x_max":1620,"o":"m 1620 469 q 1617 453 1620 463 q 1609 432 1614 444 q 1598 410 1605 421 q 1586 388 1592 398 q 1556 349 1575 371 q 1516 302 1538 326 q 1468 253 1493 277 q 1419 208 1443 229 q 1373 172 1399 191 q 1316 135 1346 152 q 1256 107 1286 118 q 1196 96 1225 96 q 1145 106 1170 96 q 1099 146 1120 117 q 1061 227 1078 175 q 1036 363 1045 279 q 1034 388 1035 371 q 1032 423 1033 406 q 1029 453 1031 440 q 1027 466 1028 466 q 1009 450 1021 466 q 979 407 996 433 q 941 345 962 380 q 899 273 921 310 q 848 188 872 225 q 803 124 824 150 q 761 85 781 99 q 721 72 741 72 q 670 84 690 72 q 639 120 650 96 q 623 184 627 145 q 616 277 618 223 q 611 416 614 366 q 600 467 607 467 q 573 446 592 467 q 528 388 554 425 q 471 302 502 351 q 408 195 440 252 q 388 161 399 180 q 364 121 376 141 q 340 81 352 100 q 319 49 328 62 q 289 22 307 31 q 252 13 271 13 q 204 25 224 13 q 172 57 184 37 q 154 105 160 77 q 149 164 149 133 q 150 214 149 192 q 154 259 151 237 q 160 307 157 282 q 169 365 164 332 q 175 425 173 393 q 179 487 177 456 q 184 543 181 517 q 191 585 186 568 q 200 610 195 597 q 216 634 205 623 q 241 653 226 646 q 280 661 257 661 q 314 653 301 661 q 334 632 327 646 q 343 602 340 619 q 345 566 345 585 q 341 522 345 549 q 330 460 336 494 q 315 390 323 427 q 300 321 307 354 q 288 261 293 288 q 280 219 282 234 q 288 233 281 222 q 303 259 294 243 q 323 292 313 275 q 342 326 333 310 q 358 353 351 341 q 366 367 365 364 q 395 413 378 387 q 429 464 411 438 q 464 514 446 490 q 495 554 481 538 q 560 606 526 589 q 633 624 594 624 q 702 595 674 624 q 739 521 730 567 q 745 478 743 504 q 748 424 747 452 q 749 368 749 396 q 750 317 750 339 q 751 280 751 294 q 754 266 752 266 q 772 283 760 266 q 798 326 783 300 q 827 381 812 351 q 857 436 843 411 q 907 513 881 476 q 960 578 934 550 q 1010 623 986 606 q 1052 640 1034 640 q 1078 637 1065 640 q 1104 629 1092 634 q 1127 617 1117 624 q 1143 601 1137 610 q 1160 561 1154 583 q 1167 513 1165 539 q 1171 454 1170 486 q 1176 384 1172 422 q 1198 273 1183 313 q 1238 233 1212 233 q 1269 242 1250 233 q 1309 263 1287 250 q 1355 293 1331 277 q 1398 326 1378 309 q 1441 362 1421 343 q 1481 400 1461 380 q 1522 441 1501 420 q 1566 486 1543 463 q 1598 500 1580 500 q 1620 469 1620 500 z "},"n":{"ha":1053,"x_min":120,"x_max":1283,"o":"m 1283 485 q 1278 457 1283 472 q 1266 427 1274 441 q 1251 398 1259 412 q 1235 376 1242 385 q 1186 319 1213 349 q 1131 258 1160 288 q 1071 201 1101 229 q 1010 153 1040 174 q 964 123 986 137 q 919 98 942 109 q 869 81 895 87 q 812 75 843 75 q 727 96 761 75 q 673 150 694 116 q 641 228 652 184 q 623 319 629 271 q 604 421 614 383 q 577 458 593 458 q 551 452 564 458 q 518 425 538 446 q 470 363 499 404 q 393 256 440 323 q 353 204 376 233 q 304 150 330 176 q 253 103 278 123 q 205 76 227 83 q 120 239 120 95 q 128 347 120 276 q 137 414 132 379 q 150 485 142 450 q 169 555 158 521 q 194 618 180 589 q 212 644 202 635 q 233 659 222 654 q 255 665 243 663 q 278 666 267 666 q 298 661 288 666 q 315 646 307 656 q 327 623 322 637 q 331 592 331 610 q 328 562 331 576 q 321 533 326 548 q 311 500 316 517 q 300 462 306 484 q 291 425 297 448 q 278 379 284 403 q 266 332 271 355 q 259 293 260 309 q 287 329 271 307 q 321 375 303 350 q 357 425 338 399 q 393 474 375 451 q 440 530 417 504 q 489 576 463 557 q 544 607 514 595 q 611 618 574 618 q 683 600 655 618 q 727 550 711 582 q 752 474 744 518 q 765 379 760 431 q 772 325 768 353 q 785 274 777 297 q 808 237 794 252 q 844 222 823 222 q 912 239 875 222 q 989 285 949 256 q 1073 353 1030 314 q 1158 435 1116 391 q 1184 464 1172 450 q 1208 489 1197 477 q 1231 507 1220 500 q 1253 513 1242 513 q 1262 512 1257 513 q 1272 508 1267 511 q 1280 500 1277 505 q 1283 485 1283 494 z "},"o":{"ha":803,"x_min":48,"x_max":1063,"o":"m 537 412 q 535 448 537 429 q 528 482 534 466 q 513 510 523 498 q 488 526 504 522 q 450 539 465 532 q 426 552 435 546 q 414 562 417 558 q 409 566 410 566 q 394 557 404 566 q 372 534 384 548 q 348 503 360 519 q 323 473 335 487 q 297 438 309 455 q 272 404 284 422 q 249 366 260 386 q 225 323 237 347 q 209 270 214 301 q 203 210 203 238 q 206 187 203 199 q 214 165 209 175 q 229 150 220 156 q 250 144 237 144 q 302 147 281 144 q 342 158 323 150 q 379 179 360 165 q 424 212 397 192 q 448 234 436 221 q 473 261 460 246 q 496 291 485 275 q 517 322 508 307 q 527 343 523 330 q 533 370 530 357 q 536 395 535 384 q 537 412 537 407 l 537 412 m 1063 565 q 1058 539 1063 553 q 1044 513 1053 526 q 1024 490 1036 500 q 1002 471 1013 479 q 931 443 977 455 q 819 431 884 431 q 778 433 800 431 q 735 441 757 436 q 691 453 713 446 q 650 469 670 460 q 657 452 654 463 q 661 430 660 441 q 662 408 662 418 q 663 391 663 397 q 647 305 663 348 q 607 222 632 262 q 550 150 582 183 q 485 92 518 116 q 426 58 458 72 q 358 34 394 43 q 285 20 323 24 q 209 15 248 15 q 148 31 177 15 q 97 71 119 46 q 61 127 75 96 q 48 189 48 158 q 63 293 48 243 q 102 390 77 343 q 159 482 126 437 q 227 571 191 527 q 275 621 248 597 q 333 665 302 646 q 394 696 363 684 q 453 707 425 707 q 494 702 477 707 q 526 687 511 696 q 554 663 541 677 q 583 631 568 648 l 597 615 q 626 599 602 610 q 684 577 650 588 q 753 559 717 567 q 820 551 790 551 q 878 551 850 551 q 932 556 905 552 q 990 570 960 561 q 1057 595 1020 579 q 1062 580 1060 589 q 1063 565 1063 570 z "},"p":{"ha":933,"x_min":68,"x_max":1177,"o":"m 1176 507 q 1173 493 1176 503 q 1163 471 1171 484 q 1140 441 1155 458 q 1102 405 1126 425 q 1044 364 1080 387 q 965 318 1008 342 q 872 268 921 294 q 775 219 823 243 q 682 174 727 195 q 600 135 636 152 q 552 109 576 124 q 507 80 529 94 q 464 56 485 66 q 425 46 444 46 q 388 51 406 46 q 356 65 370 56 q 334 91 342 75 q 326 129 326 106 q 338 160 326 147 q 370 183 351 174 q 409 200 389 193 q 445 213 430 208 q 483 225 465 220 q 513 237 501 231 q 547 263 531 247 q 578 298 564 279 q 606 339 593 317 q 630 380 618 360 q 643 408 637 392 q 652 439 648 423 q 659 468 656 454 q 661 492 661 482 q 648 550 661 528 q 618 571 636 571 q 583 560 603 571 q 541 533 562 549 q 501 499 520 517 q 471 469 482 481 q 413 404 444 440 q 356 329 383 368 q 306 249 328 290 q 270 170 283 209 q 258 117 262 147 q 251 55 254 87 q 248 -11 249 22 q 244 -76 246 -45 q 240 -177 241 -127 q 232 -270 240 -228 q 222 -296 229 -283 q 205 -317 216 -308 q 180 -333 195 -327 q 149 -338 166 -338 q 124 -333 138 -338 q 98 -319 110 -328 q 77 -298 85 -310 q 68 -273 68 -286 q 70 -238 68 -258 q 74 -196 71 -218 q 79 -150 76 -173 q 84 -105 81 -126 q 89 -68 87 -85 q 92 -44 91 -52 q 109 101 101 20 q 120 268 116 182 q 122 322 121 290 q 124 388 123 355 q 126 448 125 420 q 128 488 127 475 q 156 594 134 559 q 219 629 178 629 q 250 622 235 629 q 276 603 265 615 q 294 577 288 591 q 301 549 301 563 q 298 515 301 536 q 292 473 296 495 q 284 429 288 450 q 276 392 279 407 q 307 442 290 416 q 340 494 323 469 q 374 542 357 519 q 407 578 391 564 q 465 630 435 606 q 524 672 494 654 q 588 700 555 690 q 658 710 621 710 q 714 696 686 710 q 765 656 743 682 q 802 593 787 630 q 816 509 816 556 q 809 459 816 486 q 789 406 802 433 q 760 355 777 380 q 723 312 743 331 q 813 359 766 334 q 908 413 861 385 q 1003 469 956 441 q 1088 522 1049 497 q 1123 544 1108 535 q 1153 552 1137 552 q 1171 546 1164 552 q 1177 528 1177 539 q 1177 517 1177 522 q 1176 507 1176 511 z "},"q":{"ha":903,"x_min":63,"x_max":1114,"o":"m 525 410 q 550 458 540 429 q 562 522 559 487 q 535 541 547 529 q 524 575 524 553 q 528 606 524 590 q 532 627 532 622 q 528 635 532 635 q 464 608 509 635 q 363 528 420 581 q 338 500 353 519 q 304 457 322 481 q 269 405 287 433 q 237 348 251 376 q 213 294 222 320 q 204 249 204 269 q 212 214 204 224 q 231 204 220 204 q 258 211 242 204 q 293 226 275 217 q 330 247 311 235 q 362 267 348 258 q 399 293 376 275 q 447 333 422 311 q 493 375 471 354 q 525 410 515 395 m 1114 442 q 1087 371 1114 412 q 1017 281 1060 330 q 921 180 975 233 q 812 73 867 127 q 790 51 809 70 q 744 6 771 33 q 687 -51 718 -20 q 629 -107 656 -81 q 585 -152 603 -133 q 564 -173 566 -170 q 544 -193 551 -186 q 532 -204 536 -199 q 524 -215 527 -209 q 515 -234 520 -221 q 504 -266 510 -250 q 490 -295 497 -281 q 473 -320 482 -309 q 453 -335 464 -330 q 419 -323 438 -332 q 385 -304 401 -315 q 357 -278 368 -292 q 347 -246 347 -263 q 352 -205 347 -231 q 367 -145 358 -178 q 388 -74 376 -112 q 412 0 399 -37 q 422 29 415 9 q 438 74 429 49 q 457 126 447 99 q 475 178 467 154 q 491 222 484 203 q 500 250 498 241 q 435 192 472 223 q 356 134 398 161 q 270 89 315 107 q 180 71 224 71 q 94 107 125 71 q 63 218 63 143 q 111 390 63 292 q 162 480 132 435 q 231 571 192 525 q 307 649 267 614 q 390 713 347 684 q 476 756 434 743 q 559 769 519 769 q 602 761 582 769 q 637 738 621 752 q 663 706 652 724 q 678 667 674 687 q 673 638 673 652 q 676 621 673 631 q 684 598 679 612 q 696 566 692 581 q 700 541 700 552 q 695 516 700 536 q 685 474 690 496 q 673 432 679 452 q 667 408 668 413 q 645 333 659 385 q 608 206 631 282 q 601 180 606 197 q 589 141 595 163 q 575 97 583 120 q 562 54 568 74 q 552 19 556 34 q 546 0 547 5 q 598 45 570 22 q 652 90 625 68 q 703 133 678 112 q 746 170 727 153 q 864 276 808 224 q 968 377 920 328 q 1004 413 984 393 q 1053 466 1023 433 q 1072 480 1063 475 q 1093 486 1081 486 q 1100 484 1096 486 q 1106 478 1103 483 q 1112 465 1109 473 q 1114 442 1114 456 z "},"r":{"ha":711,"x_min":119,"x_max":779,"o":"m 779 542 q 776 526 779 536 q 768 505 773 515 q 754 488 762 495 q 733 479 745 480 q 722 480 730 479 q 703 481 713 480 q 684 482 692 481 q 671 482 675 482 q 475 401 557 476 q 436 361 456 384 q 396 310 416 338 q 359 252 377 283 q 328 186 342 220 q 305 129 316 159 q 286 67 294 100 q 279 36 281 50 q 271 5 277 23 q 260 -13 268 -5 q 241 -26 252 -21 q 218 -34 230 -31 q 195 -37 206 -37 q 135 2 151 -37 q 119 119 119 41 q 119 153 119 137 q 120 184 119 168 q 123 217 121 200 q 126 256 124 235 q 134 332 129 288 q 144 421 138 376 q 156 508 149 466 q 169 579 162 550 q 196 635 177 615 q 253 656 216 656 q 275 650 264 656 q 295 636 286 644 q 310 618 304 628 q 317 602 316 609 l 317 589 q 314 545 317 570 q 305 490 311 519 q 293 432 299 461 q 280 375 286 402 q 268 326 273 349 q 260 288 263 303 q 311 385 284 338 q 370 471 338 431 q 437 542 401 511 q 514 592 473 573 q 574 615 547 607 q 623 623 601 623 q 676 617 648 623 q 726 601 703 612 q 764 576 749 591 q 779 542 779 561 z "},"s":{"ha":579,"x_min":9,"x_max":818,"o":"m 818 490 q 802 445 818 472 q 761 387 785 417 q 705 325 736 356 q 646 265 675 293 q 596 220 629 249 q 522 157 563 191 q 436 85 481 122 q 352 16 391 48 q 281 -39 312 -16 q 238 -72 251 -63 q 160 -115 196 -100 q 95 -130 123 -130 q 55 -125 71 -130 q 28 -114 39 -121 q 14 -97 18 -106 q 9 -79 9 -88 q 18 -36 9 -55 q 45 -1 26 -18 q 93 30 64 15 q 161 62 121 45 q 207 81 186 72 q 243 102 228 91 q 267 127 258 113 q 275 162 275 142 q 268 180 275 167 q 252 210 262 193 q 229 247 241 227 q 204 286 216 267 q 181 322 192 305 q 164 351 170 339 q 136 456 136 402 q 140 503 136 479 q 154 553 144 528 q 183 614 163 584 q 227 667 203 644 q 276 705 252 690 q 319 719 301 719 q 359 714 344 719 q 384 701 375 710 q 395 678 392 692 q 399 644 399 664 q 391 612 399 628 q 371 583 382 597 q 347 558 359 570 q 324 538 334 547 q 297 514 310 525 q 277 494 284 503 q 298 416 277 452 q 323 372 308 398 q 354 320 338 347 q 385 269 370 293 q 407 230 399 244 q 436 248 417 235 q 481 280 456 261 q 537 321 507 298 q 596 369 566 345 q 654 417 626 393 q 704 463 682 441 q 735 495 723 481 q 757 516 748 508 q 773 529 766 525 q 788 534 780 534 q 803 527 797 534 q 812 513 808 521 q 817 498 815 505 q 818 490 818 492 z "},"t":{"ha":518,"x_min":-15,"x_max":825,"o":"m 825 592 q 819 569 825 579 q 806 550 814 558 q 788 534 798 541 q 769 522 778 528 q 704 498 739 509 q 634 481 669 488 q 567 469 600 474 q 506 461 534 465 q 466 457 487 459 q 426 452 446 454 q 389 448 406 450 q 360 444 372 446 q 332 334 345 387 q 309 234 319 281 q 305 212 308 226 q 299 180 302 197 q 294 145 296 163 q 289 110 291 126 q 285 80 286 93 q 283 60 283 66 q 291 26 283 36 q 306 10 298 16 q 329 -11 319 -1 q 338 -39 338 -21 q 328 -64 338 -52 q 304 -85 319 -76 q 274 -99 290 -94 q 243 -104 258 -104 q 199 -93 219 -104 q 165 -61 180 -81 q 144 -16 151 -41 q 136 35 136 9 q 143 134 136 80 q 163 241 150 187 q 175 294 168 265 q 186 348 181 322 q 196 394 192 374 q 201 420 200 414 q 160 416 187 420 q 97 413 134 413 q 45 417 66 413 q 11 431 24 420 q -9 458 -3 441 q -15 505 -15 476 q -3 531 -15 521 q 25 546 8 541 q 60 552 42 551 q 93 554 79 554 q 117 556 100 554 q 154 559 134 557 q 192 563 174 561 q 221 564 211 564 q 230 577 224 564 q 240 610 235 590 q 251 655 245 631 q 262 704 257 680 q 272 749 268 728 q 279 781 277 769 q 292 844 287 809 q 307 911 297 880 q 336 964 317 943 q 389 985 355 985 q 444 969 426 985 q 461 917 461 954 q 458 877 461 900 q 448 831 455 854 q 420 733 431 779 q 401 654 408 688 q 391 602 394 621 q 388 583 388 583 q 441 583 416 583 q 493 584 467 583 q 548 587 519 585 q 611 593 577 589 q 677 603 650 598 q 725 612 705 608 q 763 618 746 616 q 798 621 780 621 q 816 616 808 621 q 825 592 825 611 z "},"u":{"ha":1061,"x_min":130,"x_max":1314,"o":"m 1314 544 q 1287 460 1314 506 q 1217 368 1260 414 q 1121 279 1174 322 q 1014 202 1067 235 q 913 148 961 168 q 835 127 866 127 q 761 146 791 127 q 711 196 731 165 q 680 266 691 227 q 663 348 668 306 q 635 295 652 323 q 599 239 618 267 q 559 186 579 211 q 522 144 539 161 q 470 95 498 119 q 409 54 441 72 q 340 26 376 37 q 264 16 304 16 q 206 30 231 16 q 163 66 180 43 q 138 117 146 88 q 130 175 130 146 q 134 228 130 201 q 144 284 138 256 q 154 339 149 312 q 161 393 159 367 q 164 435 163 412 q 167 480 165 457 q 171 525 168 503 q 176 568 173 548 q 184 595 179 582 q 199 617 189 608 q 223 633 208 627 q 258 639 237 639 q 318 613 301 639 q 336 536 336 588 q 334 500 336 521 q 328 458 332 480 q 320 414 325 436 q 311 371 316 391 q 289 282 299 326 q 279 205 279 239 q 287 170 279 184 q 306 155 294 155 q 367 173 335 155 q 428 218 398 191 q 485 276 458 245 q 530 334 511 308 q 566 395 548 359 q 601 470 584 431 q 635 549 618 510 q 664 618 651 588 q 705 680 682 658 q 749 701 728 701 q 787 691 775 701 q 800 654 800 681 q 797 621 800 643 q 791 573 794 598 q 785 526 787 549 q 782 492 782 503 q 782 465 782 481 q 783 433 783 450 q 786 401 784 416 q 789 374 787 385 q 798 345 792 363 q 813 309 804 326 q 833 279 823 292 q 857 267 844 267 q 931 285 892 267 q 1013 333 971 303 q 1096 399 1054 362 q 1177 474 1137 437 q 1209 506 1193 490 q 1240 534 1225 522 q 1267 555 1255 547 q 1290 563 1280 563 q 1307 556 1301 563 q 1314 544 1314 549 z "},"v":{"ha":810,"x_min":143,"x_max":1091,"o":"m 1091 532 q 1051 470 1091 504 q 997 432 1027 449 q 937 402 968 414 q 874 382 905 389 q 817 375 844 375 q 747 384 786 375 q 675 407 707 393 q 660 374 669 395 q 640 331 650 354 q 620 284 630 307 q 602 244 610 262 q 570 178 585 209 q 541 118 555 146 q 513 63 527 90 q 486 10 500 36 q 459 -32 473 -16 q 433 -57 446 -48 q 409 -70 420 -66 q 389 -74 398 -74 q 348 -62 368 -74 q 308 -23 329 -50 q 311 -5 310 -12 q 311 7 311 1 q 294 85 311 33 q 241 211 277 137 q 204 292 222 250 q 173 373 186 334 q 151 448 159 413 q 143 509 143 483 q 149 552 143 529 q 166 593 155 574 q 196 625 178 612 q 239 637 214 637 q 299 615 279 637 q 319 556 319 593 q 315 514 319 536 q 311 475 311 492 q 313 446 311 465 q 318 402 314 427 q 329 351 321 378 q 347 299 336 324 q 359 271 353 288 q 374 236 366 255 q 388 199 381 218 q 400 163 395 180 q 409 134 406 146 q 412 115 412 121 l 412 114 q 425 142 416 122 q 443 189 433 162 q 465 247 453 216 q 488 308 477 277 q 509 367 500 339 q 526 414 519 394 q 547 475 536 447 q 572 525 557 504 q 605 559 586 547 q 654 571 625 571 q 688 563 673 571 q 715 544 702 554 q 733 531 722 539 q 759 516 745 524 q 789 504 773 509 q 821 499 805 499 q 874 503 849 499 q 921 512 899 506 q 964 525 943 517 q 1004 540 984 532 q 1037 552 1024 547 q 1066 557 1050 557 q 1085 547 1080 557 q 1091 532 1091 538 z "},"w":{"ha":1246,"x_min":150,"x_max":1540,"o":"m 1540 561 q 1531 527 1540 543 q 1509 498 1522 511 q 1478 473 1495 484 q 1444 452 1461 461 q 1364 423 1409 435 q 1263 412 1320 412 q 1177 422 1217 412 q 1107 444 1137 432 q 1066 357 1086 407 q 1026 250 1046 308 q 1018 227 1023 243 q 1006 191 1013 211 q 992 149 1000 171 q 979 107 985 127 q 966 71 972 87 q 958 46 961 54 q 912 -22 941 -3 q 850 -41 884 -41 q 783 -17 813 -41 q 733 40 753 6 q 697 112 713 75 q 668 188 681 150 q 645 263 655 226 q 626 336 634 301 q 622 355 624 345 q 616 365 620 365 q 609 352 615 365 q 596 320 604 340 q 580 278 589 301 q 563 232 571 254 q 548 190 555 209 q 538 162 542 172 q 520 113 531 140 q 497 61 510 87 q 471 11 485 35 q 441 -32 456 -14 q 409 -62 425 -51 q 375 -73 392 -73 q 318 -55 342 -73 q 279 -10 293 -36 q 228 115 252 45 q 187 257 204 184 q 160 400 170 330 q 150 531 150 471 q 170 604 150 582 q 239 627 191 627 q 273 614 260 627 q 293 581 286 601 q 303 536 300 561 q 307 487 306 511 q 309 442 308 463 q 312 410 309 422 q 320 354 315 386 q 333 289 326 322 q 348 223 340 255 q 362 165 355 191 q 375 124 370 140 q 385 109 381 109 q 395 120 389 109 q 409 154 401 132 q 429 207 418 176 q 455 275 440 237 q 483 347 469 313 q 510 415 496 382 q 537 482 523 449 q 568 551 552 515 q 583 574 573 562 q 606 595 593 586 q 632 611 618 605 q 659 616 646 616 q 720 555 713 616 q 737 447 727 500 q 759 346 747 394 q 784 258 771 298 q 808 188 796 218 q 830 142 820 159 q 848 125 840 125 q 862 140 854 125 q 878 179 869 155 q 895 232 886 203 q 912 290 904 262 q 927 343 920 319 q 939 383 934 368 q 956 431 947 404 q 976 487 965 458 q 999 543 987 515 q 1027 591 1012 570 q 1058 625 1042 612 q 1094 638 1075 638 q 1126 633 1114 637 q 1147 624 1139 630 q 1163 611 1156 618 q 1177 594 1170 604 q 1199 576 1183 585 q 1234 559 1215 567 q 1271 547 1253 552 q 1299 543 1289 543 q 1397 551 1348 543 q 1491 581 1447 559 q 1508 588 1498 584 q 1522 593 1517 593 q 1528 592 1525 593 q 1533 588 1531 591 q 1538 579 1536 585 q 1540 561 1540 572 z "},"x":{"ha":940,"x_min":111,"x_max":1171,"o":"m 1171 488 q 1158 448 1171 473 q 1127 394 1146 423 q 1084 332 1108 364 q 1036 269 1060 299 q 991 214 1012 239 q 956 174 970 189 q 897 117 929 144 q 830 70 865 90 q 755 37 794 49 q 673 24 715 24 q 616 35 646 24 q 556 64 587 45 q 491 111 525 83 q 420 170 457 138 q 383 131 400 152 q 352 89 366 110 q 329 49 338 68 q 313 16 319 30 q 296 -25 306 -1 q 279 -71 287 -50 q 240 -149 264 -117 q 144 -121 178 -146 q 111 -44 111 -95 q 117 -3 111 -25 q 135 40 124 18 q 160 83 146 62 q 189 121 174 104 q 240 175 205 140 q 322 253 275 210 q 295 284 310 267 q 267 318 281 301 q 240 352 252 336 q 222 380 229 368 q 179 471 191 434 q 167 537 167 507 q 172 572 167 555 q 189 601 177 589 q 219 622 200 614 q 264 629 237 629 q 303 619 289 629 q 324 594 317 609 q 334 563 332 579 q 338 535 337 547 q 356 461 344 490 q 379 412 368 432 q 400 381 387 399 q 425 351 414 364 q 466 394 445 371 q 505 439 486 417 q 542 492 525 462 q 572 558 559 523 q 591 591 582 578 q 610 612 600 604 q 632 623 620 620 q 661 626 645 626 q 691 620 676 626 q 716 601 705 613 q 735 574 728 589 q 742 540 742 558 q 733 507 742 525 q 708 470 724 490 q 674 427 693 450 q 635 380 655 405 q 586 326 616 355 q 525 263 556 296 q 568 229 543 247 q 618 197 592 212 q 670 173 645 182 q 714 163 695 163 q 813 195 758 163 q 928 291 868 227 q 981 350 954 317 q 1043 427 1008 382 q 1137 518 1114 518 q 1162 510 1154 518 q 1171 488 1171 501 z "},"y":{"ha":874,"x_min":87,"x_max":804,"o":"m 804 601 q 802 559 804 586 q 797 503 800 532 q 792 445 795 473 q 789 399 790 416 q 782 309 787 355 q 770 215 777 262 q 753 121 763 168 q 734 33 744 75 q 715 -36 726 -1 q 691 -105 704 -71 q 662 -170 677 -138 q 629 -228 646 -201 q 425 -338 557 -338 q 260 -307 341 -338 q 200 -278 231 -296 q 144 -241 170 -260 q 103 -200 119 -221 q 87 -161 87 -180 q 89 -137 87 -149 q 96 -114 91 -124 q 111 -97 102 -104 q 135 -91 120 -91 q 154 -96 146 -91 q 170 -108 162 -100 q 222 -154 195 -135 q 280 -186 250 -174 q 344 -204 310 -199 q 418 -210 378 -210 q 460 -196 440 -210 q 498 -159 481 -182 q 531 -105 516 -136 q 559 -42 547 -75 q 580 25 571 -9 q 595 89 589 59 q 607 159 603 124 q 615 234 611 193 q 567 197 594 216 q 509 159 539 178 q 447 123 479 140 q 383 94 414 106 q 322 73 351 81 q 269 65 293 65 q 202 81 231 65 q 156 122 174 97 q 129 180 138 148 q 120 246 120 213 q 123 297 120 269 q 132 356 127 326 q 144 413 137 385 q 157 463 151 441 q 163 482 159 467 q 174 516 168 497 q 184 551 179 534 q 191 572 189 568 q 207 615 199 597 q 228 646 216 633 q 258 665 240 659 q 301 671 275 671 q 334 664 319 671 q 356 640 348 656 q 366 611 364 625 q 367 583 367 597 q 359 561 367 578 q 342 524 352 544 q 324 488 333 505 q 313 465 315 471 q 280 377 293 416 q 267 297 267 338 q 271 261 267 277 q 281 232 275 244 q 295 213 287 220 q 311 206 302 206 q 363 215 333 206 q 426 238 393 223 q 492 275 459 254 q 553 321 526 296 q 602 374 581 346 q 629 430 622 401 q 632 451 631 437 q 633 485 633 466 q 635 525 634 503 q 637 565 635 546 q 640 601 638 585 q 644 626 642 617 q 675 682 656 663 q 724 701 694 701 q 765 694 749 701 q 789 676 781 688 q 801 645 798 664 q 804 601 804 627 z "},"z":{"ha":838,"x_min":92,"x_max":837,"o":"m 798 146 q 817 143 810 146 q 829 133 824 139 q 835 121 833 127 q 837 109 837 115 q 819 68 837 92 q 772 22 802 44 q 704 -14 742 1 q 623 -29 665 -29 q 594 -26 614 -29 q 549 -17 574 -22 q 493 -6 523 -12 q 437 5 464 0 q 387 14 410 10 q 352 17 365 17 q 316 14 332 17 q 286 6 300 12 q 258 -7 272 1 q 230 -26 245 -16 q 212 -39 221 -33 q 194 -49 203 -45 q 172 -56 184 -54 q 146 -59 161 -59 q 121 -52 131 -59 q 104 -32 111 -44 q 95 -5 98 -20 q 92 24 92 9 q 168 112 132 73 q 240 186 203 151 q 311 257 276 221 q 389 333 346 292 q 435 376 410 353 q 483 424 459 399 q 526 472 506 448 q 558 517 546 496 q 530 515 547 517 q 494 511 512 513 q 459 506 475 509 q 437 503 444 504 q 411 496 429 500 q 373 488 393 492 q 333 481 353 484 q 302 478 313 478 q 177 499 216 478 q 137 568 137 520 q 143 594 137 583 q 160 612 149 605 q 184 624 170 620 q 214 627 198 627 q 250 624 231 627 q 278 617 269 620 q 304 612 292 613 q 332 611 317 611 q 365 613 342 611 q 418 618 388 615 q 482 625 448 621 q 546 631 515 628 q 601 636 576 634 q 636 638 625 638 q 667 635 650 638 q 698 625 684 632 q 722 605 712 617 q 732 574 732 593 l 732 569 q 696 506 713 534 q 660 454 678 479 q 620 407 641 430 q 574 356 600 383 q 514 295 547 326 q 451 234 482 264 q 392 177 419 205 q 346 126 364 150 q 363 130 353 128 q 384 133 374 132 q 403 135 394 134 q 415 136 412 136 q 461 134 439 136 q 507 129 482 132 q 544 122 524 127 q 587 112 564 117 q 632 102 609 106 q 677 98 655 98 q 715 106 697 98 q 750 126 733 115 q 774 141 763 135 q 798 146 785 146 z "},"{":{"ha":587,"x_min":-5,"x_max":605,"o":"m 605 -198 q 601 -216 605 -205 q 587 -241 596 -227 l 586 -241 q 571 -265 576 -256 q 557 -282 565 -275 q 536 -294 549 -289 q 500 -306 524 -300 q 462 -313 479 -311 q 430 -315 446 -315 q 408 -314 420 -315 q 388 -313 395 -313 q 318 -297 350 -313 q 260 -253 286 -280 q 217 -192 235 -226 q 191 -123 200 -158 q 183 -71 186 -100 q 181 -3 181 -41 q 182 46 181 22 q 182 102 182 71 q 174 214 182 180 q 157 249 166 249 q 146 244 158 249 q 119 234 134 239 q 89 223 103 228 q 68 218 74 218 q 43 225 56 218 q 20 243 31 233 q 2 267 9 254 q -5 292 -5 279 q 41 360 -5 323 q 65 378 54 371 q 87 389 76 385 q 109 397 98 393 q 134 404 121 400 q 163 421 145 409 q 198 449 181 433 q 227 480 214 464 q 239 509 239 496 q 237 532 239 516 q 233 565 235 547 q 228 598 231 583 q 223 622 225 614 q 209 695 214 661 q 205 757 205 728 q 233 888 205 829 q 317 994 262 947 q 343 1009 322 999 q 388 1030 363 1019 q 435 1048 412 1040 q 467 1056 457 1056 q 506 1051 488 1056 q 537 1038 524 1046 q 558 1019 550 1030 q 566 994 566 1008 q 563 966 566 982 q 554 935 560 949 q 536 909 547 920 q 507 899 525 899 q 495 901 503 899 q 477 903 486 902 q 459 906 468 905 q 445 907 450 907 q 428 901 439 907 q 406 884 418 895 q 384 861 394 873 q 368 836 373 848 q 362 804 364 829 q 359 737 359 779 q 362 709 359 728 q 369 669 366 690 q 376 631 373 649 q 379 606 379 613 q 371 488 379 534 q 349 420 363 442 q 336 402 345 412 q 316 380 327 391 q 292 361 304 370 q 267 348 279 352 q 295 323 283 338 q 313 289 306 307 q 323 250 320 270 q 326 210 326 229 q 326 189 326 205 q 324 149 325 172 q 322 100 323 126 q 321 52 321 75 q 319 11 320 28 q 319 -12 319 -6 q 406 -176 319 -176 q 427 -175 418 -176 q 445 -173 435 -175 q 467 -166 454 -171 q 499 -154 479 -162 q 512 -150 506 -151 q 525 -148 519 -148 q 605 -198 605 -148 z "},"|":{"ha":449,"x_min":136,"x_max":296,"o":"m 286 162 l 286 33 q 286 -1 286 24 q 286 -60 286 -26 q 287 -133 286 -94 q 287 -209 287 -172 q 288 -274 288 -245 q 288 -319 288 -304 q 287 -420 288 -378 q 287 -493 287 -463 q 266 -618 287 -577 q 208 -660 244 -660 q 182 -654 195 -660 q 159 -639 169 -648 q 142 -617 149 -629 q 136 -593 136 -605 q 137 -487 136 -547 q 138 -357 137 -427 q 139 -213 138 -288 q 141 -60 140 -137 q 143 91 142 16 q 145 234 144 166 q 146 360 146 302 q 146 461 146 418 q 147 512 146 476 q 148 596 147 547 q 150 702 149 644 q 152 818 151 759 q 154 933 153 877 q 156 1037 155 990 q 157 1116 157 1084 q 157 1160 157 1149 q 156 1187 157 1168 q 154 1228 155 1206 q 152 1268 153 1249 q 151 1293 151 1286 q 155 1337 151 1320 q 176 1370 160 1354 q 201 1385 186 1378 q 227 1393 216 1393 q 260 1385 247 1393 q 281 1364 273 1377 q 293 1333 290 1351 q 296 1294 296 1314 l 286 162 z "},"}":{"ha":559,"x_min":-15,"x_max":564,"o":"m 564 365 q 556 340 564 353 q 537 316 549 327 q 509 297 525 304 q 477 290 494 290 q 391 300 425 290 q 381 279 385 290 q 377 261 377 268 q 399 128 377 250 l 399 129 q 413 71 408 93 q 421 30 418 48 q 426 -7 425 12 q 427 -54 427 -26 q 423 -106 427 -79 q 412 -161 419 -134 q 393 -213 404 -189 q 366 -255 382 -237 q 292 -311 335 -292 q 190 -330 249 -330 q 136 -327 161 -330 q 87 -304 110 -323 l 87 -304 q 55 -248 55 -278 q 68 -219 55 -232 q 100 -197 81 -206 q 137 -184 118 -189 q 168 -180 156 -180 q 188 -181 173 -180 q 213 -184 202 -183 q 265 -26 265 -159 q 262 21 265 -5 q 256 74 260 47 q 247 127 252 101 q 240 176 243 154 q 234 224 237 203 q 232 261 232 245 q 245 311 232 293 q 278 342 259 329 q 266 347 275 344 q 255 351 256 350 q 203 405 222 375 q 184 476 184 435 q 188 526 184 499 q 201 581 191 553 l 201 581 q 208 602 203 587 q 219 638 212 618 q 233 681 225 659 q 247 725 240 704 q 258 762 253 745 q 265 785 263 778 q 271 820 269 800 q 273 860 273 840 q 265 891 273 878 q 245 915 257 905 q 217 930 233 925 q 188 935 202 935 q 158 934 174 935 q 125 929 142 932 q 95 919 109 925 q 71 902 81 912 q 49 887 59 892 q 29 881 39 881 q -5 891 5 881 q -15 916 -15 901 q 45 1032 -15 991 q 226 1072 104 1072 q 270 1065 246 1072 q 316 1046 294 1058 q 357 1017 338 1034 q 388 981 376 1000 q 413 924 404 956 q 422 850 422 891 q 419 802 422 827 q 411 759 416 778 q 401 728 408 749 q 387 686 394 708 q 373 645 380 664 q 362 617 366 625 q 348 577 354 596 q 338 538 342 557 q 333 498 334 519 q 331 455 331 478 q 348 441 340 445 q 362 437 355 437 q 381 438 368 437 q 410 440 394 439 q 439 443 425 441 q 461 444 454 444 q 502 439 483 444 q 534 424 520 434 q 555 399 547 414 q 564 365 564 385 z "},"~":{"ha":1080,"x_min":58,"x_max":1038,"o":"m 1038 630 q 1035 614 1038 626 q 1026 586 1033 603 q 1006 547 1019 569 q 972 499 993 525 q 940 461 959 482 q 899 421 922 441 q 849 387 876 402 q 795 364 823 371 q 723 350 754 354 q 671 347 692 347 q 628 354 648 347 q 588 374 608 361 q 550 404 569 387 q 510 441 530 421 q 466 481 486 465 q 431 509 447 498 q 399 524 414 519 q 366 529 383 529 q 350 531 358 529 q 336 533 342 533 q 317 525 330 533 q 290 503 304 517 q 260 469 275 489 q 235 426 245 450 l 235 427 q 221 399 231 415 q 198 363 212 383 q 140 318 169 318 q 110 323 124 318 q 83 337 95 328 q 65 358 72 346 q 58 386 58 371 q 67 467 58 433 q 106 526 76 500 q 122 543 113 533 q 142 564 132 553 q 163 585 153 575 q 184 600 174 594 l 183 600 q 217 621 195 608 q 266 645 240 633 q 316 666 291 657 q 355 675 340 675 q 377 673 363 675 q 410 668 391 672 q 450 654 429 663 q 495 628 472 644 q 533 600 511 617 q 577 566 555 583 q 615 535 598 549 q 635 519 631 522 q 659 501 650 508 q 673 490 667 494 q 686 484 680 486 q 705 483 693 483 q 727 485 715 483 q 750 489 739 486 q 773 493 762 491 q 790 497 783 496 q 810 515 798 498 q 839 569 823 532 q 903 659 872 631 q 971 686 935 686 q 1019 670 1000 686 q 1038 630 1038 655 z "},"":{"ha":1162,"x_min":10,"x_max":1134,"o":"m 681 404 q 742 420 711 412 q 799 436 772 428 q 777 505 788 469 q 752 577 765 541 q 727 646 740 612 q 700 707 714 680 q 584 542 642 629 q 474 365 526 455 q 517 368 494 367 q 553 373 539 369 q 586 382 571 378 q 615 390 600 387 q 645 397 629 393 q 681 404 661 400 m 1134 62 q 1127 31 1134 45 q 1110 4 1121 16 q 1083 -14 1099 -7 q 1048 -20 1067 -20 q 1015 -9 1031 -20 q 984 18 999 1 q 955 57 968 35 q 929 100 941 78 q 909 141 918 121 q 895 174 901 161 q 880 208 888 192 q 865 248 873 223 q 858 268 860 261 q 853 278 855 275 q 851 284 852 282 q 848 292 850 287 q 819 284 835 286 q 785 283 804 283 q 773 281 781 283 q 754 275 765 279 q 733 268 744 272 q 711 262 722 264 q 641 246 679 254 q 562 232 603 239 q 477 217 520 224 q 391 203 434 210 q 382 200 386 202 q 373 190 379 198 q 355 163 367 181 q 320 113 342 146 q 271 48 294 76 q 228 1 248 21 q 186 -28 208 -18 q 140 -39 164 -39 q 85 -31 109 -39 q 44 -11 60 -23 q 19 16 27 1 q 10 42 10 30 q 30 74 10 65 q 84 90 50 83 q 92 100 84 90 q 109 121 99 109 q 129 145 119 134 q 143 163 139 157 q 198 240 170 200 q 262 331 227 279 l 262 330 q 291 373 279 356 q 312 405 302 390 q 333 435 322 420 q 361 474 345 451 q 434 574 403 533 q 486 642 466 615 q 532 715 511 680 q 551 745 542 730 q 568 774 559 760 q 582 801 576 789 q 592 823 589 814 q 730 1020 673 1020 q 771 1016 755 1020 q 795 1003 787 1013 q 807 979 804 994 q 810 942 810 964 q 810 909 810 921 q 809 888 810 897 q 808 871 808 880 q 806 847 808 862 q 838 776 823 812 q 867 703 853 739 q 879 669 869 695 q 900 608 888 643 q 927 533 913 572 q 952 459 941 494 q 973 399 964 425 q 985 368 982 374 q 1034 242 994 330 q 1043 223 1040 231 q 1052 206 1047 215 q 1065 186 1057 197 q 1087 156 1074 174 q 1134 62 1134 92 m 958 1214 q 866 1126 958 1126 q 835 1132 850 1126 q 810 1148 821 1138 q 792 1172 799 1158 q 786 1200 786 1185 q 789 1227 786 1216 q 802 1247 793 1238 q 828 1263 811 1256 q 871 1276 844 1270 q 882 1279 876 1277 q 897 1281 888 1281 q 943 1262 928 1281 q 958 1214 958 1242 m 694 1155 q 608 1109 694 1109 q 579 1113 595 1109 q 549 1124 564 1117 q 525 1141 535 1131 q 515 1160 515 1150 q 518 1198 515 1181 q 528 1229 521 1216 q 549 1249 536 1242 q 583 1256 562 1256 q 664 1230 633 1256 q 694 1155 694 1203 z "},"":{"ha":1206,"x_min":-14,"x_max":1141,"o":"m 739 1097 q 737 1109 739 1106 q 731 1112 735 1112 q 691 1118 707 1114 q 667 1139 674 1122 q 643 1111 652 1124 q 633 1090 633 1097 q 640 1071 633 1079 q 659 1053 646 1063 q 693 1037 679 1043 q 720 1031 708 1031 q 736 1047 732 1031 q 739 1097 739 1063 m 675 404 q 716 411 695 408 q 749 418 736 414 q 727 515 739 465 q 705 614 715 566 q 688 708 694 663 q 681 791 681 753 q 678 810 681 804 q 630 734 656 777 q 575 646 603 691 q 519 555 547 600 q 470 474 492 511 q 432 410 448 437 q 411 374 416 384 q 474 380 439 377 q 545 388 509 384 q 614 396 581 391 q 675 404 648 400 m 1141 68 q 1135 38 1141 54 q 1118 9 1129 22 q 1090 -13 1106 -4 q 1054 -21 1074 -21 q 948 39 1004 -21 q 823 222 893 100 q 808 249 813 238 q 800 266 803 259 q 794 278 797 273 q 788 288 792 283 q 768 287 783 288 q 736 284 754 286 q 697 281 718 283 q 659 277 677 279 q 628 274 641 275 q 610 273 614 273 q 464 256 542 267 q 313 227 387 245 q 301 212 311 224 q 279 182 292 199 q 252 145 267 165 q 224 107 237 125 q 201 75 211 89 q 187 57 191 62 q 161 24 173 39 q 136 0 149 9 q 108 -16 123 -10 q 75 -21 94 -21 q 44 -12 60 -21 q 16 10 28 -3 q -5 38 3 23 q -14 63 -14 52 q 0 95 -14 73 q 34 147 13 117 q 81 211 55 176 q 133 277 107 245 q 180 337 158 309 q 216 380 203 364 q 270 451 242 413 q 324 528 298 490 q 382 617 350 567 q 452 729 414 667 q 478 764 463 745 q 514 805 494 783 q 562 878 539 838 q 602 954 585 918 q 536 1010 559 979 q 513 1069 513 1041 q 518 1092 513 1077 q 529 1124 522 1106 q 546 1161 536 1142 q 564 1196 555 1180 q 594 1226 576 1216 q 627 1237 613 1237 q 722 1230 680 1237 q 793 1207 764 1223 q 838 1164 823 1191 q 854 1098 854 1137 q 851 1043 854 1069 q 841 995 848 1017 q 821 956 833 972 q 791 930 809 939 q 797 900 794 918 q 802 864 799 882 q 810 819 810 825 q 817 787 812 808 q 826 742 821 766 q 837 690 831 717 q 848 640 843 663 q 858 597 854 616 q 865 570 863 579 q 875 542 869 557 q 886 510 880 526 q 898 480 892 494 q 907 456 903 466 q 962 467 937 465 q 1002 470 987 470 q 1050 467 1032 470 q 1077 458 1067 465 q 1089 439 1086 451 q 1092 410 1092 428 q 1066 361 1092 380 q 985 328 1041 342 q 975 325 983 327 q 962 321 966 323 q 990 268 978 290 q 1013 228 1002 245 q 1034 199 1024 212 q 1053 176 1043 186 q 1079 148 1065 163 q 1107 118 1094 132 q 1133 89 1124 101 q 1141 68 1141 76 z "},"":{"ha":1024,"x_min":89,"x_max":1250,"o":"m 480 -267 q 461 -320 480 -295 q 412 -364 442 -345 q 343 -394 381 -383 q 266 -406 304 -406 q 257 -404 263 -406 q 242 -400 250 -402 q 227 -395 235 -397 q 214 -392 219 -393 q 169 -376 187 -384 q 138 -359 150 -368 q 122 -339 127 -350 q 117 -314 117 -328 q 131 -279 117 -292 q 174 -265 144 -265 q 197 -270 186 -265 q 221 -281 208 -274 q 248 -292 236 -290 q 273 -294 259 -294 q 303 -291 287 -294 q 335 -279 320 -287 q 359 -259 349 -271 q 369 -231 369 -247 q 365 -216 369 -223 q 354 -204 360 -210 q 340 -196 347 -199 q 327 -193 333 -193 q 317 -196 325 -193 q 300 -202 310 -199 q 282 -207 291 -205 q 267 -210 273 -210 q 207 -156 207 -210 q 232 -90 221 -119 q 252 -39 243 -60 q 129 51 168 -13 q 89 223 89 114 q 100 347 89 282 q 133 475 112 412 q 185 598 155 539 q 254 704 216 657 q 307 762 276 731 q 373 822 338 792 q 443 877 408 851 q 510 922 479 903 q 566 950 532 935 q 637 980 600 966 q 711 1004 675 994 q 774 1013 747 1013 q 846 1007 819 1013 q 895 985 873 1001 q 918 962 905 978 q 942 929 930 947 q 962 892 954 911 q 970 862 970 874 q 958 828 970 850 q 931 785 947 807 q 901 743 916 762 q 878 714 886 723 q 802 678 848 678 q 742 694 762 678 q 723 737 723 711 q 734 769 723 747 q 772 818 746 791 q 795 843 785 831 q 810 865 804 856 q 775 871 793 871 q 721 861 754 871 q 653 834 688 850 q 585 799 618 819 q 529 761 551 779 q 411 646 467 710 q 319 507 355 583 q 292 439 304 477 q 271 362 279 401 q 257 285 262 323 q 252 216 252 247 q 289 112 252 146 q 393 78 327 78 q 458 84 420 78 q 537 103 495 91 q 622 135 578 116 q 705 177 665 153 q 781 223 747 203 q 845 262 815 243 q 901 299 874 281 q 955 337 927 317 q 1013 382 982 357 q 1081 437 1044 406 q 1140 492 1109 460 q 1202 557 1171 524 q 1226 542 1217 549 q 1241 529 1236 536 q 1248 515 1246 523 q 1250 498 1250 508 q 1234 451 1250 478 q 1192 394 1219 425 q 1128 331 1164 363 q 1051 267 1092 298 q 976 211 1014 239 q 901 159 938 184 q 831 112 865 134 q 769 73 798 90 q 565 -21 661 9 q 385 -56 470 -52 l 374 -54 q 362 -74 368 -64 q 357 -96 357 -85 q 361 -101 357 -100 q 372 -104 366 -103 q 385 -106 378 -105 q 397 -107 392 -106 q 441 -126 425 -113 q 466 -158 457 -138 q 477 -205 475 -178 q 480 -267 480 -232 z "},"":{"ha":1042,"x_min":103,"x_max":1072,"o":"m 1072 945 q 1068 927 1072 939 q 1058 905 1065 916 q 1044 883 1052 893 q 1027 869 1036 873 q 992 857 1009 861 q 952 848 976 852 q 830 827 890 836 q 717 814 770 819 q 620 807 664 809 q 545 805 576 805 l 445 805 q 405 805 423 805 q 370 806 387 805 q 366 752 368 784 q 362 687 364 720 q 358 623 360 654 q 353 571 356 592 q 396 568 371 569 q 444 568 420 568 q 510 570 477 568 q 564 574 543 572 q 598 577 575 576 q 647 581 621 578 q 698 585 673 583 q 737 591 723 588 q 763 602 751 597 q 786 610 774 607 q 809 614 797 613 q 834 616 821 616 q 865 609 852 616 q 884 590 877 602 q 893 563 890 578 q 896 531 896 547 q 885 498 896 511 q 857 476 873 485 q 823 464 841 468 q 792 456 805 459 q 751 451 781 454 q 683 445 722 448 q 601 439 644 442 q 519 435 558 437 q 451 432 481 433 q 408 431 420 431 q 369 427 387 431 q 332 418 351 424 q 319 348 323 386 q 304 269 314 310 q 297 235 301 252 q 291 203 294 218 q 286 175 288 188 q 283 154 283 162 q 316 155 297 154 q 355 157 334 155 q 396 160 375 158 q 435 163 416 161 q 517 171 483 168 q 579 176 551 174 q 630 181 606 178 q 680 188 653 184 q 714 192 694 190 q 756 196 734 194 q 799 202 777 199 q 838 210 820 205 q 860 217 848 212 q 882 225 871 221 q 906 232 894 229 q 930 235 918 235 q 957 229 944 235 q 981 212 970 222 q 997 185 991 201 q 1003 153 1003 170 q 997 135 1003 146 q 979 113 990 124 q 952 92 968 102 q 918 79 937 83 q 798 61 859 68 q 665 45 738 55 q 561 33 613 39 q 464 21 509 27 q 385 11 419 16 q 335 3 351 7 q 302 -4 319 1 q 266 -14 284 -9 q 232 -22 248 -19 q 203 -26 216 -26 l 201 -26 q 159 -20 177 -26 q 128 0 140 -14 q 110 40 116 15 q 103 102 103 64 q 111 166 103 131 q 128 252 119 202 q 146 338 138 299 q 163 415 155 378 q 177 489 171 452 q 187 569 184 526 q 189 592 188 574 q 192 635 191 610 q 196 689 194 661 q 200 743 198 718 q 203 786 202 768 q 204 810 204 804 q 203 823 204 814 q 201 838 201 832 q 207 872 201 853 q 225 910 213 890 q 246 931 231 920 q 279 950 261 941 q 314 964 296 959 q 345 970 332 970 q 369 967 353 970 q 402 961 385 964 q 435 955 419 958 q 457 952 450 952 q 499 951 473 952 q 558 951 526 951 q 679 955 618 951 q 802 970 739 960 q 854 982 829 975 q 902 997 878 989 q 949 1009 925 1004 q 999 1014 972 1014 q 1025 1008 1012 1014 q 1048 992 1038 1002 q 1065 970 1059 983 q 1072 945 1072 958 m 882 1310 q 879 1296 882 1303 q 866 1279 876 1289 q 834 1255 855 1270 q 776 1217 813 1240 q 754 1204 769 1213 q 719 1182 739 1194 q 677 1157 699 1171 q 636 1132 655 1143 q 603 1111 617 1120 q 583 1099 588 1102 q 577 1095 584 1099 q 562 1088 570 1092 q 546 1080 553 1084 q 536 1076 538 1076 q 495 1092 508 1076 q 481 1128 481 1107 q 575 1230 481 1164 q 629 1267 602 1249 q 682 1303 656 1286 q 728 1335 707 1320 q 766 1362 750 1350 q 790 1376 777 1371 q 819 1381 804 1381 q 835 1375 825 1381 q 856 1359 845 1369 q 874 1336 866 1349 q 882 1310 882 1324 z "},"":{"ha":1163,"x_min":112,"x_max":1104,"o":"m 141 218 q 160 294 149 248 q 182 395 170 340 q 205 508 193 449 q 226 623 216 567 q 242 727 235 679 q 252 810 250 776 l 252 847 q 256 877 252 859 q 270 910 260 894 q 300 937 281 926 q 350 947 319 947 q 391 938 375 947 q 418 911 407 928 q 436 870 429 894 q 452 816 444 846 q 477 747 459 788 q 522 656 496 706 q 581 551 548 607 q 650 439 614 496 q 726 328 687 383 q 804 225 765 273 q 821 302 812 261 q 837 384 829 342 q 852 465 845 425 q 865 538 859 505 q 875 599 871 572 q 882 640 880 625 q 900 737 892 695 q 912 816 907 779 q 920 888 918 852 q 923 965 923 923 q 925 989 923 976 q 931 1014 927 1002 q 940 1037 935 1026 q 953 1054 946 1048 q 975 1072 965 1065 q 995 1080 985 1078 q 1013 1084 1004 1083 q 1034 1084 1023 1084 q 1073 1073 1059 1084 q 1094 1044 1086 1062 q 1102 1006 1101 1027 q 1104 966 1104 985 q 1101 943 1104 960 q 1095 907 1099 927 q 1086 865 1091 886 q 1078 829 1082 844 q 1028 625 1049 721 q 992 444 1008 528 q 967 287 977 359 q 949 156 956 215 q 947 140 948 147 q 946 123 946 132 q 945 102 945 114 q 945 71 945 90 q 933 17 945 36 q 906 -12 922 -3 q 870 -23 889 -21 q 838 -24 852 -24 q 791 -12 808 -24 q 758 23 773 1 q 726 77 743 46 q 682 145 709 109 q 528 365 606 248 q 369 627 450 482 q 345 501 356 567 q 325 370 334 435 q 309 247 316 306 q 296 141 302 188 q 293 102 296 123 q 288 63 291 81 q 282 31 285 44 q 277 14 279 17 q 266 -7 274 5 q 248 -30 258 -19 q 224 -49 237 -41 q 197 -57 211 -57 q 154 -50 170 -57 q 128 -28 138 -42 q 115 8 119 -14 q 112 57 112 29 q 114 87 112 68 q 121 128 117 106 q 130 174 125 151 q 141 218 136 197 m 971 1306 q 965 1281 971 1296 q 951 1251 960 1267 q 933 1223 943 1238 q 909 1192 922 1208 q 886 1169 898 1179 q 863 1152 875 1159 q 814 1139 842 1139 q 763 1144 785 1139 q 724 1159 741 1148 q 707 1173 716 1164 q 684 1193 698 1181 q 670 1207 678 1198 q 658 1219 661 1216 q 646 1232 653 1225 q 630 1245 638 1239 q 615 1255 623 1251 q 602 1259 607 1259 q 570 1246 588 1259 q 530 1205 552 1234 q 507 1175 518 1189 q 486 1152 496 1162 q 463 1137 475 1142 q 436 1131 450 1131 q 398 1146 410 1131 q 387 1183 387 1161 q 423 1264 387 1215 q 458 1305 439 1285 q 499 1342 476 1324 q 585 1378 545 1378 q 627 1375 609 1378 q 657 1367 645 1373 q 683 1352 671 1362 q 709 1329 696 1343 q 731 1306 721 1318 q 749 1289 741 1295 q 763 1279 755 1286 q 778 1267 770 1273 q 792 1256 785 1261 q 804 1251 800 1251 q 828 1262 817 1251 q 850 1289 838 1273 q 864 1312 858 1301 q 879 1335 869 1323 q 923 1360 901 1360 q 961 1345 951 1360 q 971 1306 971 1331 z "},"":{"ha":1116,"x_min":68,"x_max":1078,"o":"m 652 858 q 570 840 609 858 q 497 794 532 823 q 430 729 462 765 q 370 655 399 692 q 321 580 345 622 q 280 492 298 538 q 251 395 262 445 q 240 297 240 346 q 254 218 240 254 q 291 156 268 182 q 343 117 314 131 q 404 102 372 102 q 503 117 454 102 q 595 156 551 131 q 680 214 640 180 q 753 285 720 247 q 813 365 787 323 q 859 448 840 407 q 891 541 878 488 q 904 648 904 593 q 902 691 904 670 q 892 732 899 712 q 867 772 886 750 q 819 813 849 794 q 747 845 789 832 q 652 858 705 858 m 1078 623 q 1064 528 1078 581 q 1024 418 1050 475 q 963 307 999 362 q 882 204 927 252 q 751 82 812 130 q 628 4 689 33 q 502 -36 567 -24 q 361 -47 437 -47 q 282 -32 320 -47 q 213 8 245 -17 q 154 67 180 33 q 108 138 127 101 q 79 215 90 176 q 68 291 68 254 q 89 432 68 355 q 146 587 109 509 q 236 738 183 665 q 353 868 288 811 q 493 958 418 924 q 652 992 569 992 q 735 987 694 992 q 813 972 777 982 q 881 948 850 962 q 937 916 913 934 q 1014 846 985 879 q 1056 779 1042 813 q 1074 707 1070 745 q 1078 623 1078 669 m 909 1206 q 817 1119 909 1119 q 786 1125 801 1119 q 761 1141 772 1131 q 744 1164 750 1151 q 737 1193 737 1178 q 741 1220 737 1208 q 753 1240 744 1231 q 779 1255 762 1249 q 822 1268 795 1262 q 833 1272 827 1270 q 848 1274 840 1274 q 894 1254 879 1274 q 909 1206 909 1235 m 646 1147 q 559 1101 646 1101 q 531 1105 547 1101 q 500 1117 515 1109 q 476 1133 486 1124 q 467 1153 467 1143 q 469 1191 467 1173 q 479 1221 472 1208 q 500 1241 487 1234 q 534 1249 513 1249 q 615 1222 585 1249 q 646 1147 646 1196 z "},"":{"ha":1073,"x_min":112,"x_max":1029,"o":"m 956 325 q 901 189 942 251 q 797 82 859 127 q 655 12 734 37 q 485 -13 575 -13 q 420 -4 455 -13 q 351 17 385 4 q 289 47 317 31 q 243 79 260 63 q 183 153 208 112 q 142 238 158 193 q 119 330 127 283 q 112 422 112 377 q 115 473 112 445 q 121 531 117 501 q 131 592 125 562 q 141 649 136 622 q 153 717 148 685 q 163 780 157 749 q 178 873 171 827 q 198 956 185 919 q 233 1015 211 992 q 293 1038 256 1038 q 320 1026 307 1038 q 344 998 334 1014 q 361 966 355 982 q 368 941 368 949 q 365 922 368 937 q 357 889 362 908 q 346 848 352 870 q 335 808 340 827 q 327 774 330 789 q 322 756 323 760 q 315 717 319 742 q 306 661 311 692 q 296 597 301 631 q 287 531 291 563 q 281 473 283 500 q 278 429 278 446 q 312 248 278 329 q 341 208 320 228 q 387 172 361 188 q 437 145 412 155 q 481 136 463 136 q 652 164 583 136 q 755 258 720 193 q 780 321 771 289 q 795 386 789 354 q 804 449 800 418 q 812 507 807 480 q 823 640 819 576 q 833 758 827 703 q 846 857 838 812 q 868 933 854 901 q 904 982 882 965 q 958 1000 926 1000 q 992 992 979 1000 q 1014 972 1006 985 q 1025 943 1022 960 q 1029 908 1029 926 q 1024 848 1029 883 q 1014 777 1020 813 q 1002 706 1008 740 q 992 648 996 671 q 986 596 989 627 q 981 532 983 565 q 973 435 979 487 q 956 325 967 382 m 873 1234 q 781 1147 873 1147 q 750 1153 764 1147 q 724 1168 735 1158 q 707 1192 713 1179 q 701 1221 701 1206 q 704 1247 701 1236 q 716 1267 707 1259 q 742 1283 726 1276 q 785 1296 759 1290 q 797 1299 790 1297 q 812 1301 803 1301 q 858 1282 842 1301 q 873 1234 873 1263 m 609 1175 q 523 1129 609 1129 q 494 1133 510 1129 q 464 1144 478 1137 q 440 1161 450 1152 q 430 1181 430 1171 q 433 1219 430 1201 q 443 1249 435 1236 q 463 1269 450 1262 q 497 1276 476 1276 q 578 1250 548 1276 q 609 1175 609 1223 z "},"":{"ha":579,"x_min":2,"x_max":572,"o":"m 572 634 q 547 578 572 593 q 481 564 523 564 q 424 563 446 564 q 391 560 402 562 q 375 556 379 559 q 371 551 371 554 q 369 529 371 548 q 365 480 368 510 q 360 413 363 450 q 354 338 357 376 q 348 263 351 300 q 343 197 345 227 q 339 150 340 168 q 338 131 338 132 q 330 109 337 119 q 314 92 323 99 q 291 80 304 84 q 266 76 279 76 q 235 86 252 76 q 205 112 219 97 q 183 143 192 127 q 174 170 174 159 q 176 181 174 173 q 180 198 178 189 q 184 215 182 207 q 187 225 186 222 q 196 273 193 252 q 201 316 199 293 q 207 368 203 338 q 218 441 210 397 q 228 506 225 485 q 231 536 231 527 q 209 533 227 536 q 167 527 190 530 q 121 520 144 523 q 86 517 98 517 q 26 538 50 517 q 2 596 2 558 q 21 631 2 618 q 67 653 39 645 q 128 664 95 661 q 189 669 161 667 q 235 670 216 670 q 254 670 254 669 q 258 733 254 700 q 272 799 263 766 q 293 862 281 832 q 319 916 304 892 q 349 952 333 939 q 382 966 365 966 q 408 961 395 966 q 429 948 420 956 q 444 930 439 940 q 450 913 450 921 q 444 891 450 907 q 432 859 439 876 q 418 825 425 842 q 410 802 412 809 q 405 781 409 795 q 397 750 401 767 q 390 716 393 733 q 385 689 386 700 q 404 690 392 690 q 431 692 415 690 q 469 698 451 695 q 503 701 487 701 q 529 694 517 701 q 551 677 542 688 q 566 656 561 667 q 572 634 572 644 z "},"":{"ha":704,"x_min":113,"x_max":616,"o":"m 493 743 q 489 784 493 764 q 479 821 486 804 q 465 847 473 837 q 448 857 456 857 q 432 853 439 857 q 418 845 425 849 q 405 837 411 841 q 392 833 398 833 q 379 834 387 833 q 361 837 370 836 q 345 840 353 839 q 334 841 338 841 q 302 829 317 841 q 276 799 287 817 q 258 760 264 781 q 252 721 252 739 q 283 665 252 690 q 347 638 317 638 q 402 643 377 638 q 445 656 427 648 q 456 668 448 657 q 473 692 465 678 q 487 719 481 705 q 493 742 493 733 l 493 743 m 616 758 q 596 673 616 715 q 538 598 575 631 q 449 546 500 566 q 337 526 398 526 q 250 539 290 526 q 179 579 209 553 q 131 643 149 606 q 113 727 113 680 q 121 765 113 742 q 144 815 130 789 q 178 867 159 841 q 220 914 197 893 q 268 948 243 935 q 317 962 292 962 q 334 963 324 962 q 358 965 345 964 q 386 969 372 968 q 410 970 399 970 q 440 967 422 970 q 474 959 457 964 q 505 948 491 954 q 526 937 519 943 q 566 887 544 923 q 605 808 593 841 q 616 758 616 775 z "},"":{"ha":707,"x_min":64,"x_max":651,"o":"m 651 625 q 648 594 651 606 q 637 573 645 581 q 616 562 629 566 q 582 559 602 559 q 547 568 561 559 q 513 593 532 577 q 497 604 502 602 q 489 608 493 606 q 474 537 481 577 q 459 446 467 496 q 451 397 454 416 q 448 368 448 378 q 469 376 456 370 q 497 390 482 382 q 525 404 511 397 q 546 414 538 411 q 571 418 558 418 q 595 414 585 418 q 621 395 613 407 q 629 374 629 383 q 620 330 629 349 q 589 297 610 311 q 513 267 570 281 q 473 257 488 261 q 449 248 458 253 q 437 235 441 243 q 431 215 433 228 q 421 129 423 169 q 415 58 420 88 q 396 11 410 28 q 350 -7 382 -7 q 317 1 332 -7 q 291 22 302 9 q 275 49 281 34 q 269 78 269 64 q 271 94 269 82 q 276 121 273 106 q 282 152 279 136 q 289 183 286 169 q 295 207 292 197 q 297 218 297 217 q 272 220 286 218 q 245 222 258 221 q 222 226 233 224 q 206 229 212 228 q 154 255 179 234 q 108 304 128 277 q 76 362 88 332 q 64 414 64 392 q 67 459 64 439 q 75 498 69 479 q 90 538 81 517 q 114 584 100 558 q 137 609 119 594 q 184 643 155 623 q 234 674 214 663 q 271 691 254 685 q 303 701 288 698 q 340 707 319 704 q 345 709 341 707 q 353 712 349 711 q 362 715 358 713 q 370 716 367 716 q 372 734 370 716 q 378 779 375 752 q 384 836 381 806 q 387 891 387 867 q 466 952 387 952 q 494 946 481 952 q 516 929 507 939 q 530 906 525 918 q 535 881 535 893 q 532 848 535 864 q 530 831 530 832 q 517 777 528 816 q 509 737 511 751 q 544 721 522 731 q 623 678 595 700 q 651 625 651 656 m 340 502 q 349 553 345 530 q 355 593 352 576 q 292 562 321 578 q 241 524 262 545 q 208 475 220 503 q 195 413 195 448 q 203 389 195 402 q 223 364 212 376 q 246 345 234 353 q 267 336 258 336 q 278 338 271 336 q 297 341 286 339 q 314 348 311 345 q 317 358 317 350 q 326 418 320 382 q 340 502 332 454 z "},"":{"ha":929,"x_min":26,"x_max":895,"o":"m 895 137 q 884 90 895 112 q 854 48 873 67 q 807 13 834 28 q 745 -13 779 -2 q 656 -29 694 -29 q 548 -9 616 -29 q 390 47 480 11 q 381 51 385 50 q 373 54 377 53 q 332 71 350 64 q 300 83 315 78 q 274 93 286 89 q 250 100 262 97 q 155 37 191 58 q 111 16 120 16 q 78 21 94 16 q 51 35 63 26 q 33 53 39 43 q 26 74 26 64 q 48 128 26 95 l 47 128 q 71 161 58 144 q 99 192 84 178 q 130 215 114 206 q 159 224 145 224 q 165 224 163 224 q 171 224 168 224 q 192 252 180 235 q 216 289 203 269 q 240 329 228 309 q 260 368 252 349 l 210 368 q 161 372 186 368 q 115 385 136 376 q 80 406 94 393 q 67 433 67 418 q 134 509 67 509 q 153 506 142 509 q 176 502 164 504 q 198 497 188 499 q 213 494 208 494 q 271 496 255 494 q 288 504 288 498 q 293 583 290 547 q 298 644 295 618 q 303 671 300 656 q 312 701 307 686 q 323 733 317 717 q 335 762 329 749 q 380 830 351 799 q 442 884 408 861 q 513 919 476 907 q 582 932 549 932 q 637 923 609 932 q 688 898 665 913 q 726 861 711 882 q 741 814 741 839 q 738 799 741 810 q 729 778 734 789 q 716 756 724 766 q 699 743 708 747 q 676 736 687 738 q 654 734 665 734 q 618 744 633 734 q 592 765 603 753 q 574 785 582 776 q 559 795 566 795 q 539 789 550 795 q 517 772 528 783 q 497 749 507 762 q 479 723 487 736 q 444 634 456 678 q 431 541 431 590 l 431 537 q 470 547 448 543 q 511 557 492 552 l 511 557 q 562 570 541 564 q 597 579 583 575 q 621 587 611 584 q 640 591 631 589 q 658 594 648 593 q 681 595 667 595 q 709 591 694 595 q 737 579 724 587 q 758 563 749 572 q 766 543 766 553 q 764 526 766 535 q 757 507 762 516 q 746 490 753 498 q 729 478 739 483 l 730 478 q 710 471 724 475 q 677 462 696 467 q 634 452 658 457 q 586 444 611 448 l 587 444 q 528 432 552 437 q 487 423 505 427 q 456 414 470 418 q 427 404 443 410 q 428 401 428 404 q 426 385 428 395 q 420 363 423 374 q 414 342 417 352 q 410 329 412 332 q 397 304 406 319 q 376 274 388 290 q 352 240 365 258 q 329 207 339 223 q 350 201 336 205 q 380 192 364 197 q 412 182 396 187 q 437 174 427 177 l 437 174 q 482 159 458 168 q 538 138 507 150 l 537 138 q 579 122 560 129 q 617 111 599 115 q 653 104 635 106 q 690 102 671 102 q 707 104 697 102 q 725 113 716 107 q 740 127 734 118 q 746 150 746 137 l 745 163 q 766 214 745 193 q 821 234 786 234 q 845 230 836 234 q 862 220 855 227 q 875 205 869 214 q 884 188 880 197 q 895 137 895 172 z "},"":{"ha":582,"x_min":45,"x_max":531,"o":"m 350 1038 q 407 1030 376 1038 q 466 1009 438 1023 q 512 975 494 995 q 531 928 531 954 q 524 896 531 913 q 505 865 517 880 q 476 842 492 851 q 441 832 460 832 q 397 871 414 832 q 374 916 388 902 q 336 929 361 929 q 317 926 330 929 q 292 917 304 923 q 271 903 280 911 q 262 884 262 895 q 266 834 262 854 q 291 802 271 814 q 338 770 318 782 q 374 748 358 758 q 405 728 391 738 q 435 704 419 718 q 481 654 463 677 q 510 608 499 630 q 525 564 521 585 q 530 522 530 543 q 519 476 530 500 q 491 429 509 452 q 452 387 474 406 q 408 355 431 368 q 413 352 410 353 q 418 349 415 350 q 452 322 436 336 q 481 291 469 309 q 502 248 494 273 q 509 187 509 223 q 488 95 509 134 q 431 32 467 56 q 348 -5 395 7 q 249 -16 300 -16 q 139 9 188 -16 q 64 83 91 34 l 64 82 q 50 113 55 98 q 45 142 45 127 q 47 170 45 155 q 55 197 50 185 q 69 218 60 210 q 92 226 78 226 q 134 221 117 226 q 160 208 150 216 q 176 188 170 199 q 187 163 182 176 q 193 145 191 152 q 197 133 195 138 q 202 123 199 127 q 211 114 205 119 q 235 99 224 101 q 262 97 245 97 q 302 103 282 97 q 339 120 323 110 q 366 144 355 131 q 376 170 376 157 q 367 210 376 194 q 340 239 357 227 q 299 262 323 252 q 247 288 275 273 q 200 315 227 298 q 148 353 174 332 q 100 394 121 373 q 70 431 79 415 q 56 473 60 449 q 52 521 52 496 q 58 559 52 539 q 75 600 64 580 q 103 638 87 620 q 141 671 120 657 q 159 683 150 676 q 178 696 169 689 q 197 708 188 703 q 214 716 206 713 q 168 758 187 738 q 138 793 148 777 l 138 792 q 121 867 121 823 q 126 888 121 872 q 138 923 131 905 q 153 959 144 942 q 168 983 161 977 q 202 1006 181 996 q 249 1023 224 1016 q 301 1034 275 1030 q 350 1038 328 1038 m 387 518 q 382 549 387 534 q 372 577 378 564 q 357 599 366 590 q 340 610 349 608 q 318 620 323 618 q 311 624 312 623 q 271 617 290 624 q 237 599 252 611 q 213 569 222 587 q 204 530 204 552 q 210 490 204 506 q 225 463 215 474 q 251 442 236 451 q 285 422 266 433 q 292 418 288 420 q 300 414 296 416 q 308 420 304 418 q 317 427 312 423 q 343 446 331 435 q 365 468 355 456 q 381 493 375 480 q 387 518 387 505 z "},"":{"ha":595,"x_min":86,"x_max":507,"o":"m 507 490 q 504 441 507 463 q 492 402 500 419 q 468 375 483 386 q 429 360 452 364 q 420 358 424 359 q 413 354 417 357 q 406 347 410 352 q 395 334 401 342 q 369 309 382 317 q 329 301 355 301 q 272 305 302 301 q 215 316 241 309 q 169 330 189 322 q 142 347 149 338 q 133 364 135 357 q 127 376 130 371 q 96 465 106 422 q 86 546 86 507 q 102 609 86 578 q 144 663 117 640 q 205 701 170 686 q 279 715 240 715 q 307 712 295 715 q 329 704 319 709 q 348 695 338 700 q 368 686 357 690 q 390 679 380 683 q 409 669 400 675 q 424 659 415 663 q 443 650 433 654 q 460 643 452 646 q 473 635 469 639 q 490 609 482 625 q 500 568 498 592 q 506 528 504 547 q 507 490 507 508 z "},"":{"ha":929,"x_min":73,"x_max":859,"o":"m 859 857 q 847 829 858 839 q 823 811 837 819 q 818 803 820 809 q 814 789 816 797 q 812 774 813 781 q 812 761 812 766 q 807 717 811 747 q 799 651 804 688 q 788 575 794 614 q 778 502 783 536 q 770 442 773 467 q 766 408 766 416 q 763 356 764 387 q 762 288 762 326 q 767 168 762 224 q 782 59 772 111 q 787 37 783 52 q 797 7 791 22 q 807 -20 802 -8 q 812 -35 811 -33 q 772 -66 800 -54 q 736 -75 751 -75 q 693 -59 711 -75 q 662 -9 675 -42 q 640 74 649 24 q 625 189 631 123 q 623 207 624 195 q 622 231 623 218 q 621 255 621 244 q 621 269 621 266 q 623 360 621 315 q 631 450 626 405 q 644 549 637 496 q 661 664 650 602 q 669 710 665 683 q 678 762 674 736 q 685 807 682 787 q 688 831 688 827 q 669 836 688 836 q 589 830 640 836 q 466 812 539 824 q 416 798 446 808 q 356 773 387 788 q 298 742 325 759 q 256 707 271 724 q 218 618 218 659 q 235 573 218 596 q 275 532 252 551 q 321 503 298 514 q 357 491 345 491 q 358 498 357 494 q 359 506 359 501 q 361 517 360 511 q 366 568 364 537 q 367 640 367 599 q 385 719 367 696 q 444 743 404 743 q 499 682 499 743 q 498 640 499 666 q 495 586 496 614 q 491 533 493 558 q 488 492 490 507 q 499 494 493 493 q 510 494 505 494 q 582 433 582 494 q 578 408 582 418 q 567 391 574 397 q 549 381 559 385 q 523 375 538 378 q 505 370 512 373 q 494 357 498 367 l 494 357 q 484 208 484 324 l 484 158 q 486 73 484 112 q 491 0 488 34 q 497 -63 497 -49 q 491 -88 497 -76 q 473 -109 484 -100 q 449 -124 463 -118 q 422 -130 436 -130 q 395 -114 409 -130 q 368 -67 380 -99 q 346 16 355 -35 q 334 136 337 66 q 336 162 335 144 q 337 198 336 179 q 339 236 338 218 q 341 264 340 254 q 343 296 342 279 q 343 333 343 313 q 334 347 343 342 q 313 355 325 351 q 288 360 300 358 q 267 366 275 363 q 223 392 245 376 q 179 427 200 408 q 141 462 158 445 q 114 490 123 479 q 84 544 95 514 q 73 612 73 573 q 78 659 73 634 q 92 710 83 684 q 115 760 102 735 q 146 804 129 784 q 179 832 157 817 q 231 861 201 846 q 293 890 260 876 q 359 915 326 904 q 417 933 391 926 q 464 944 443 940 q 502 951 485 949 q 534 957 519 954 q 570 962 551 960 q 609 967 590 965 q 647 970 629 969 q 680 971 666 971 q 736 963 705 971 q 794 939 767 954 q 841 903 822 924 q 859 857 859 882 z "},"":{"ha":804,"x_min":-101,"x_max":743,"o":"m 743 271 q 713 168 743 218 q 634 81 683 119 q 526 20 586 43 q 406 -3 466 -3 q 351 7 377 -3 q 305 33 325 16 q 273 74 285 50 q 261 127 261 98 q 267 175 261 156 q 283 205 273 193 q 310 225 294 218 q 345 238 326 233 q 359 200 351 220 q 378 163 368 180 q 400 135 389 146 q 422 124 412 124 q 455 129 437 124 q 491 140 473 133 q 523 156 508 147 q 546 176 538 165 q 564 200 554 186 q 581 231 573 215 q 594 261 589 247 q 599 286 599 276 q 590 329 599 306 q 562 376 581 353 q 514 420 543 399 q 446 455 486 441 q 415 460 431 460 q 392 458 403 460 q 372 456 382 456 q 343 466 354 456 q 327 489 332 475 q 321 518 322 503 q 319 543 319 532 q 330 577 319 564 q 355 599 340 591 q 384 613 369 608 q 407 622 398 618 q 448 642 429 632 q 486 663 467 652 q 523 690 504 675 q 562 726 541 705 q 581 763 578 743 q 585 810 585 784 q 574 862 585 840 q 546 898 564 884 q 506 919 528 912 q 459 926 483 926 q 444 921 453 926 q 425 909 435 916 q 407 895 415 903 q 393 882 398 888 q 357 821 374 858 q 323 734 339 785 q 296 633 309 686 q 273 526 283 580 q 253 418 262 472 q 238 315 245 365 q 217 161 228 235 q 196 28 205 87 q 178 -73 186 -32 q 167 -125 170 -113 q 152 -168 161 -144 q 130 -214 142 -191 q 102 -259 117 -237 q 68 -298 86 -281 q 30 -326 50 -315 q -12 -336 9 -336 q -58 -332 -41 -336 q -85 -319 -75 -328 q -98 -300 -95 -311 q -101 -273 -101 -288 q -84 -236 -101 -254 q -44 -201 -66 -218 q -21 -183 -31 -192 q -3 -161 -11 -174 q 13 -128 5 -148 q 28 -76 20 -108 q 38 -32 33 -54 q 46 13 43 -9 q 52 53 50 34 q 56 86 55 72 q 59 121 56 98 q 65 170 62 143 q 74 225 69 196 q 82 279 78 254 q 89 324 85 304 q 93 352 92 344 q 100 404 98 382 q 104 439 102 425 q 122 588 109 515 q 156 734 136 661 q 193 835 172 791 q 246 915 214 878 q 280 949 259 930 q 329 991 300 968 q 363 1014 343 1004 q 405 1030 382 1023 q 450 1040 427 1036 q 496 1043 473 1043 q 613 1018 559 1043 q 700 939 667 994 q 732 869 722 903 q 743 798 743 836 q 699 671 743 724 q 561 578 654 618 q 539 570 552 574 q 515 562 527 566 q 494 555 503 558 q 481 552 484 553 q 493 551 486 552 q 508 549 500 550 q 526 546 517 547 q 543 543 535 545 q 574 535 562 538 q 594 531 586 533 q 607 525 602 528 q 618 517 612 522 q 656 490 634 508 q 697 441 677 471 q 730 370 716 412 q 743 271 743 328 z "},"":{"ha":1299,"x_min":53,"x_max":1236,"o":"m 1236 608 q 1224 498 1236 545 q 1192 420 1213 450 q 1164 382 1179 403 q 1131 339 1149 361 q 1092 296 1112 317 q 1049 258 1072 275 q 957 203 1007 227 q 850 153 906 179 q 743 113 798 128 q 631 83 688 98 q 528 66 579 70 q 434 62 476 62 l 351 68 q 298 81 327 70 q 242 109 270 92 q 186 146 214 125 q 137 189 159 167 q 99 231 115 210 q 77 267 83 252 q 68 293 73 277 q 60 325 64 309 q 55 354 57 340 q 53 376 53 368 q 66 443 53 408 q 98 515 79 479 q 140 584 117 551 q 181 644 162 618 q 231 702 205 679 q 277 739 257 726 q 305 756 286 745 q 348 782 324 768 q 397 813 371 797 q 445 843 422 829 q 482 867 467 857 q 503 882 498 878 q 504 918 504 901 q 508 951 504 936 q 521 978 511 966 q 552 997 531 989 q 634 1018 599 1014 q 695 1023 670 1023 q 790 1016 743 1023 q 879 996 836 1009 q 958 965 922 983 q 1017 928 994 947 q 1103 838 1052 899 q 1155 774 1131 806 q 1197 713 1179 743 q 1225 656 1215 683 q 1236 608 1236 629 m 1104 581 q 1084 669 1104 627 q 1031 748 1063 711 q 957 815 998 785 q 873 867 916 845 q 792 900 831 888 q 724 912 753 912 q 732 907 728 909 q 741 901 736 904 q 801 845 781 873 q 820 801 820 818 q 788 734 820 785 q 730 777 749 764 q 703 790 711 789 q 654 792 688 792 q 597 780 631 792 q 526 750 563 768 q 453 711 488 732 q 393 671 418 690 q 335 620 364 648 q 277 561 305 592 q 219 485 242 524 q 197 410 197 447 q 200 349 197 376 q 214 302 204 323 q 241 265 224 281 q 286 235 258 249 q 373 202 328 214 q 463 191 419 191 q 514 191 492 191 q 557 195 536 192 q 603 202 578 197 q 663 214 627 206 q 699 225 673 216 q 757 246 724 233 q 826 273 789 258 q 895 303 862 288 q 955 332 928 318 q 993 355 981 345 q 1076 460 1047 400 q 1104 581 1104 520 m 960 391 q 953 374 960 383 q 935 357 945 365 q 911 344 924 349 q 886 338 898 338 q 836 347 862 338 q 774 375 810 356 q 735 393 754 384 q 697 410 715 402 q 664 422 680 418 q 637 427 649 427 q 632 428 634 427 q 632 419 632 426 q 633 405 633 412 q 633 390 633 397 q 633 381 633 383 q 629 353 633 370 q 615 321 624 336 q 593 295 606 306 q 563 284 580 284 q 537 290 549 284 q 514 306 524 296 q 497 326 504 315 q 489 348 491 337 l 489 555 q 477 589 489 577 q 456 614 463 602 q 450 635 450 625 q 456 653 450 643 q 470 671 461 663 q 491 687 479 680 q 513 694 502 693 q 560 700 534 697 q 611 705 586 703 q 655 709 635 707 q 685 710 675 710 q 763 690 730 710 q 825 633 795 670 q 849 601 840 614 q 857 573 857 587 q 851 554 857 564 q 833 534 844 544 q 805 515 821 524 q 770 500 789 506 q 792 492 784 496 q 812 484 800 488 q 886 456 857 467 q 931 435 915 445 q 954 415 947 425 q 960 391 960 405 m 612 588 q 613 556 612 575 q 615 522 614 537 q 620 525 615 522 q 631 531 624 527 q 649 539 639 534 q 669 549 659 544 q 724 574 692 560 q 722 583 724 578 q 714 593 720 588 q 699 602 709 598 q 673 606 689 606 q 664 604 672 606 q 646 598 656 602 q 626 593 635 595 q 612 588 616 590 z "},"":{"ha":1328,"x_min":91,"x_max":1305,"o":"m 952 487 q 952 483 952 486 q 950 474 951 479 q 922 426 945 452 q 866 375 899 399 q 795 332 833 351 q 724 304 758 313 q 679 291 700 297 q 640 279 659 284 q 605 272 622 275 q 570 269 587 269 q 503 283 533 269 q 451 320 473 297 q 417 372 429 343 q 405 431 405 401 q 414 494 405 461 q 439 557 423 526 q 474 613 454 587 q 516 656 494 639 l 515 656 q 608 716 565 694 q 701 739 652 739 q 750 728 726 739 q 791 701 773 718 q 821 661 810 684 q 831 614 831 638 q 831 599 831 606 q 826 585 830 592 q 813 571 822 578 q 787 555 804 564 q 741 543 759 543 q 717 548 726 543 q 702 563 707 553 q 694 584 696 572 q 690 610 691 596 q 677 613 683 613 q 649 603 663 613 q 623 583 635 593 q 586 551 602 566 q 561 518 571 535 q 547 482 551 501 q 542 437 542 463 q 555 399 543 409 q 595 389 568 389 q 645 392 623 389 q 687 401 667 395 q 729 415 708 407 q 777 433 751 423 q 805 448 791 439 q 830 466 819 456 q 850 485 842 475 q 864 503 859 494 q 884 518 871 513 q 913 524 897 524 q 952 487 952 524 m 1179 595 q 1164 625 1179 607 q 1127 660 1149 642 q 1081 691 1105 677 q 1040 712 1057 706 q 965 735 1000 726 q 892 750 929 744 q 814 760 855 756 q 724 768 774 764 l 722 769 q 696 775 706 772 q 681 782 686 777 q 673 794 675 787 q 671 816 671 802 q 672 829 671 823 q 673 844 673 836 q 702 854 688 850 q 730 859 715 858 q 722 873 725 868 q 714 881 718 878 q 704 884 710 884 q 687 885 698 885 q 640 874 669 885 q 579 847 611 864 q 518 811 548 831 q 469 772 488 791 q 419 715 445 748 q 364 638 393 683 q 338 596 351 618 q 314 551 326 574 q 291 505 302 528 q 272 460 280 481 q 245 375 254 415 q 237 301 237 336 q 255 251 237 274 q 302 212 274 229 q 362 187 330 196 q 421 178 394 178 q 720 237 557 178 q 885 309 798 265 q 1056 410 971 352 q 1092 443 1071 420 q 1132 494 1113 467 q 1165 550 1152 522 q 1179 595 1179 577 m 1305 583 q 1295 518 1305 549 q 1265 456 1284 486 q 1219 395 1246 425 q 1158 333 1192 365 q 1097 287 1137 312 q 1008 236 1058 262 q 908 190 962 212 q 799 146 854 167 q 703 111 750 127 q 609 83 656 95 q 514 64 562 71 q 417 57 467 57 q 367 64 401 57 q 294 81 333 71 q 221 106 256 92 q 169 135 186 121 q 140 174 154 151 q 115 220 126 197 q 98 264 104 243 q 91 294 91 284 q 94 329 91 307 q 102 377 97 351 q 115 434 108 404 q 130 492 122 464 q 146 546 138 521 q 163 589 155 571 q 193 647 176 617 q 229 708 210 677 q 270 767 248 738 q 318 825 293 797 q 367 873 342 851 q 418 912 392 896 q 477 946 444 928 q 547 979 511 964 q 620 1003 584 994 q 687 1013 656 1013 q 754 994 717 1013 q 796 970 777 983 q 829 943 815 956 q 850 916 842 929 q 858 890 858 902 q 848 860 858 881 q 913 851 869 859 q 1015 834 958 844 q 1081 815 1044 829 q 1152 782 1117 801 q 1214 742 1186 764 q 1256 701 1242 721 q 1272 673 1263 691 q 1288 637 1280 656 q 1300 604 1295 619 q 1305 583 1305 589 z "},"":{"ha":1438,"x_min":87,"x_max":1407,"o":"m 1407 576 q 1384 533 1407 548 q 1331 517 1362 517 q 1265 539 1292 517 q 1222 597 1239 560 q 1196 684 1204 635 q 1183 789 1187 734 q 1176 782 1179 785 q 1169 774 1173 779 q 1161 762 1165 769 q 1150 745 1156 755 q 1136 720 1142 731 q 1124 700 1130 709 q 1113 682 1118 690 q 1101 663 1107 673 q 1072 617 1086 637 q 1044 582 1058 597 q 1017 560 1031 568 q 985 552 1002 552 q 940 568 958 552 q 905 606 922 584 q 858 662 884 638 q 809 711 833 685 q 788 613 797 656 q 769 540 780 570 q 741 494 758 510 q 695 478 724 478 q 666 485 681 478 q 640 500 651 491 q 621 520 628 510 q 613 540 613 531 q 701 799 613 581 q 716 840 716 838 q 711 848 716 848 q 672 847 700 848 q 597 841 644 845 q 481 829 484 831 q 446 742 470 822 q 422 620 422 661 q 428 595 422 610 q 433 564 433 579 q 426 534 433 549 q 417 520 424 530 q 400 502 410 511 q 379 485 391 492 q 357 478 368 478 q 321 488 336 478 q 299 513 307 497 q 287 549 290 528 q 283 593 283 570 q 285 648 283 624 q 291 693 287 672 q 301 733 295 714 q 317 774 308 753 q 328 807 323 791 q 334 834 333 823 q 297 826 316 830 q 249 810 279 821 q 202 793 221 800 q 172 787 183 787 q 87 844 87 787 q 96 870 87 856 q 119 897 104 884 q 151 919 133 909 q 188 932 169 929 q 231 939 208 937 q 280 944 254 941 q 333 949 306 947 q 385 956 359 952 q 407 970 393 965 q 439 975 420 975 q 455 972 447 975 q 473 966 463 970 q 484 962 480 962 q 488 960 486 961 q 533 966 494 960 q 555 969 541 968 q 586 971 570 970 q 616 974 602 972 q 642 977 631 975 q 654 980 644 977 q 676 986 664 983 q 700 992 688 989 q 718 995 711 995 q 735 992 722 995 q 763 986 747 989 q 793 978 779 982 q 817 970 808 973 q 859 937 852 956 q 859 932 859 936 l 858 907 q 865 886 858 902 q 883 852 873 869 q 902 819 892 834 q 913 801 911 804 q 929 784 917 797 q 955 756 941 770 q 982 730 969 741 q 1000 719 995 719 q 1008 732 1000 720 q 1028 764 1015 745 q 1057 808 1040 784 q 1090 858 1073 833 q 1123 906 1107 883 q 1153 946 1139 929 q 1260 1011 1204 1011 q 1283 1007 1272 1011 q 1303 997 1294 1004 q 1317 982 1312 990 q 1322 964 1322 973 q 1321 943 1322 956 q 1319 921 1320 930 q 1314 870 1316 893 q 1313 830 1313 848 q 1315 787 1313 810 q 1321 742 1317 764 q 1332 699 1326 720 q 1346 661 1338 677 q 1361 648 1350 655 q 1381 635 1373 642 q 1394 620 1389 628 q 1402 603 1399 611 q 1406 588 1404 595 q 1407 576 1407 581 z "},"":{"ha":517,"x_min":63,"x_max":463,"o":"m 463 930 q 460 916 463 923 q 447 900 458 909 q 416 875 437 890 q 357 838 395 861 q 335 824 351 833 q 300 803 320 814 q 259 777 281 791 q 218 752 237 764 q 184 731 199 740 q 164 719 170 722 q 159 715 165 719 q 143 708 152 712 q 127 700 135 704 q 117 696 119 696 q 76 712 90 696 q 63 748 63 727 q 157 850 63 785 q 211 888 184 869 q 263 923 238 906 q 310 955 288 940 q 347 983 332 970 q 372 997 358 991 q 401 1002 386 1002 q 416 996 406 1002 q 437 979 427 989 q 455 957 448 969 q 463 930 463 944 z "},"":{"ha":489,"x_min":14,"x_max":456,"o":"m 456 911 q 364 824 456 824 q 333 830 348 824 q 308 846 319 836 q 291 869 297 856 q 284 898 284 883 q 288 925 284 913 q 300 945 291 936 q 326 960 309 954 q 369 973 342 967 q 380 977 374 975 q 395 979 387 979 q 441 959 426 979 q 456 911 456 940 m 193 852 q 106 806 193 806 q 78 810 94 806 q 47 822 62 814 q 23 838 33 829 q 14 858 14 848 q 16 896 14 878 q 26 926 19 913 q 47 946 34 939 q 81 954 60 954 q 162 927 132 954 q 193 852 193 901 z "},"":{"ha":808,"x_min":69,"x_max":735,"o":"m 735 359 q 715 309 735 342 q 653 297 685 301 q 587 292 621 292 q 558 291 579 292 q 506 287 536 289 q 440 282 476 285 q 366 279 404 280 q 341 239 354 258 q 318 200 329 221 q 262 108 287 136 q 207 80 237 80 q 161 96 180 80 q 142 137 142 111 q 159 192 142 158 q 212 281 175 227 q 176 284 196 281 q 138 290 156 286 q 104 300 119 294 q 84 312 90 306 q 73 334 77 321 q 69 361 69 347 q 125 420 69 420 q 148 416 136 420 q 170 404 160 412 q 207 406 185 404 q 247 407 229 407 q 264 405 251 407 q 288 402 278 402 q 314 448 301 425 q 337 489 326 471 q 355 520 348 508 q 366 536 363 533 q 320 538 343 537 q 275 538 298 538 q 246 536 264 538 q 209 530 228 533 q 173 524 190 527 q 150 522 157 522 q 129 527 140 522 q 107 541 117 532 q 90 558 97 549 q 83 576 83 568 q 182 648 83 648 q 282 651 229 648 q 379 661 336 654 l 378 661 q 399 664 391 663 q 413 666 408 665 q 422 668 418 667 q 430 668 426 668 q 451 715 441 696 q 470 749 461 735 q 481 778 478 766 q 490 802 485 791 q 503 822 494 812 q 530 842 512 831 q 554 852 544 849 q 572 856 565 856 q 600 851 587 856 q 624 838 614 846 q 640 819 634 830 q 646 795 646 808 q 639 768 646 783 q 620 737 631 753 q 596 701 609 720 q 571 658 583 681 q 599 659 584 659 q 629 659 614 659 q 718 605 718 659 q 702 551 718 572 q 653 530 686 530 q 620 531 635 530 q 588 533 604 532 q 554 536 572 534 q 517 539 537 537 q 503 512 511 529 q 484 477 494 495 q 466 444 475 460 q 452 420 458 428 q 481 424 468 422 q 507 425 495 425 q 531 423 516 425 q 562 420 547 422 q 591 418 578 419 q 610 416 605 416 q 621 418 613 416 q 636 422 628 420 q 651 427 644 425 q 660 429 658 429 q 711 406 688 429 q 735 359 735 384 z "},"":{"ha":1529,"x_min":-52,"x_max":1506,"o":"m 729 411 q 730 439 729 422 q 732 476 731 457 q 734 513 733 495 q 735 543 735 531 q 736 580 735 557 q 737 631 736 604 q 738 688 737 659 q 739 743 739 717 q 739 779 739 762 q 737 808 739 795 q 694 738 714 773 q 655 670 673 703 q 618 607 636 637 q 580 551 600 576 q 552 511 568 535 q 518 462 535 487 q 487 415 501 437 q 465 380 473 393 q 538 384 500 381 q 611 391 576 387 q 677 400 646 395 q 729 411 708 406 m 1400 569 q 1383 546 1400 557 q 1339 526 1366 535 q 1281 510 1313 517 q 1219 497 1249 503 q 1164 489 1189 492 q 1129 484 1140 486 q 1092 480 1116 483 q 1038 475 1067 477 q 981 470 1010 472 q 931 468 953 468 q 905 468 920 468 q 879 470 890 469 q 877 453 878 463 q 876 432 876 443 q 877 396 876 413 q 878 374 878 379 q 881 340 878 360 q 888 299 884 319 q 896 262 892 279 q 903 241 901 246 q 939 188 921 208 q 983 165 958 168 q 995 163 989 163 q 1006 163 1001 163 q 1053 168 1031 163 q 1103 178 1074 173 q 1161 189 1127 182 q 1231 204 1194 196 q 1303 222 1267 213 q 1368 237 1339 231 l 1368 238 q 1383 253 1373 245 q 1404 267 1393 260 q 1426 277 1416 273 q 1440 281 1436 281 q 1468 275 1456 281 q 1489 259 1480 269 q 1501 236 1497 249 q 1506 208 1506 222 q 1494 171 1506 188 q 1466 142 1483 154 q 1422 120 1449 131 q 1364 100 1396 110 q 1296 81 1332 90 q 1224 65 1261 73 q 1154 51 1188 57 q 1089 39 1119 44 q 1013 27 1045 31 q 964 23 980 23 q 911 25 935 23 q 867 34 887 27 q 828 54 846 41 q 791 90 810 67 q 748 172 764 124 q 728 278 733 220 q 681 270 707 275 q 627 261 654 265 q 576 254 600 257 q 538 251 552 251 q 441 252 482 250 q 387 252 400 253 q 376 250 381 251 q 365 242 372 248 q 346 223 357 236 q 316 186 335 210 q 281 138 300 162 q 241 91 262 114 q 200 45 220 67 q 159 3 179 23 q 104 -42 132 -26 q 35 -57 76 -57 q 5 -49 20 -57 q -23 -30 -11 -41 q -44 -4 -36 -18 q -52 24 -52 11 q -45 45 -52 33 q -26 71 -37 58 q -1 91 -14 83 q 23 100 12 100 q 52 116 33 100 q 96 158 71 132 q 150 218 121 184 q 207 284 179 251 q 260 350 235 318 q 303 404 286 381 q 463 617 388 511 q 595 826 537 723 q 644 916 624 879 q 686 972 663 953 q 710 988 696 981 q 737 999 724 995 q 761 1006 750 1004 q 777 1008 772 1008 q 797 1007 783 1008 q 828 1003 810 1005 q 865 997 846 1000 q 902 991 885 994 q 931 987 919 989 q 946 985 943 985 q 1015 982 984 983 q 1082 981 1046 981 q 1107 981 1094 981 q 1135 983 1120 981 q 1196 991 1163 985 q 1260 1006 1229 998 q 1316 1019 1291 1013 q 1355 1025 1342 1025 q 1389 1021 1371 1025 q 1423 1010 1407 1018 q 1449 988 1438 1002 q 1459 953 1459 974 q 1453 928 1459 940 q 1437 907 1447 917 q 1416 890 1428 898 q 1394 876 1404 882 q 1336 867 1372 867 q 1281 863 1313 867 q 1219 854 1250 859 q 1163 844 1189 849 q 1126 838 1138 840 q 1101 834 1112 836 q 1076 832 1090 833 q 1039 830 1061 831 q 981 830 1017 830 q 958 831 972 830 q 930 833 944 832 q 903 836 916 835 q 882 838 890 838 q 881 804 882 827 q 880 750 880 781 q 879 681 879 719 q 878 602 878 643 q 905 598 890 600 q 937 596 921 597 q 968 595 954 595 q 991 595 982 595 q 1094 603 1044 595 q 1190 625 1145 610 q 1253 645 1224 637 q 1310 652 1282 652 q 1352 649 1335 652 q 1380 635 1369 645 q 1395 609 1390 625 q 1400 569 1400 593 z "},"":{"ha":1183,"x_min":62,"x_max":1161,"o":"m 671 844 q 676 850 673 847 q 678 859 678 854 q 610 846 648 859 q 534 812 572 833 q 459 763 495 791 q 395 705 423 735 q 336 631 365 671 q 283 546 307 590 q 245 455 260 501 q 231 362 231 408 q 239 307 231 336 q 260 254 247 279 q 293 210 274 229 q 333 184 311 191 q 347 211 338 193 q 368 252 357 229 q 393 300 380 275 q 417 348 406 325 q 438 389 429 371 q 452 416 448 407 q 470 451 458 426 q 498 508 482 475 q 532 576 515 540 q 566 645 550 612 q 595 703 583 677 q 614 739 608 728 l 671 844 m 1004 537 q 984 629 1004 588 q 932 700 963 671 q 865 744 901 728 q 799 761 829 760 q 786 735 799 758 q 756 680 774 712 q 719 611 739 647 q 686 545 700 574 q 635 439 662 494 q 570 315 608 383 q 546 270 559 295 q 519 220 532 245 q 496 174 507 195 q 481 140 486 153 q 518 145 496 141 q 563 156 540 150 q 608 170 587 163 q 642 184 629 178 q 678 202 657 191 q 722 227 699 214 q 767 255 745 241 q 808 283 790 270 q 874 339 840 307 q 938 406 909 371 q 985 476 966 441 q 1004 537 1004 510 m 1161 574 q 1143 475 1161 526 q 1095 377 1125 425 q 1027 288 1065 330 q 948 214 989 245 q 885 169 918 191 q 816 124 851 146 q 746 85 781 103 q 677 52 710 66 q 621 35 654 43 q 553 20 588 26 q 484 9 517 14 q 429 1 451 4 q 405 -25 417 -7 q 381 -65 393 -43 q 360 -112 370 -87 q 343 -155 350 -136 q 323 -200 334 -179 q 296 -236 311 -221 q 259 -260 280 -252 q 208 -269 237 -269 q 153 -243 170 -269 q 136 -177 136 -217 q 175 -119 155 -149 q 211 -62 195 -90 q 240 -12 227 -35 q 258 25 252 11 q 249 40 254 34 q 237 51 245 45 q 164 117 197 81 q 110 194 132 154 q 75 275 87 234 q 62 353 62 315 q 66 405 62 376 q 78 466 71 435 q 95 526 85 496 q 117 576 105 555 q 184 678 147 627 q 261 774 220 728 q 345 857 302 819 q 431 922 388 895 q 550 979 488 957 q 686 1000 612 1000 q 722 994 704 1000 q 755 977 740 987 q 794 1046 774 1008 q 814 1096 804 1069 q 839 1144 825 1122 q 875 1180 854 1166 q 928 1195 896 1195 q 953 1192 940 1195 q 976 1182 966 1188 q 994 1167 987 1176 q 1000 1149 1000 1159 q 996 1125 1000 1140 q 983 1091 991 1109 q 963 1051 975 1072 q 938 1010 951 1030 q 895 943 917 978 q 856 873 873 907 q 863 873 859 873 q 871 873 867 873 q 927 864 897 873 q 986 837 957 854 q 1043 797 1016 820 q 1092 747 1071 773 q 1114 711 1102 734 q 1137 664 1126 689 q 1154 615 1147 640 q 1161 574 1161 591 z "},"":{"ha":990,"x_min":13,"x_max":972,"o":"m 731 526 q 686 516 709 526 q 645 494 663 506 q 614 473 626 483 q 602 463 602 463 q 569 429 584 446 q 554 399 554 413 q 565 372 554 389 q 594 339 576 355 q 633 311 612 323 q 674 298 654 298 q 743 314 713 298 q 794 351 773 330 q 827 394 816 372 q 838 428 838 416 q 831 457 838 440 q 810 489 823 473 q 776 515 796 504 q 731 526 756 526 m 301 518 q 244 502 269 518 q 203 463 220 486 q 177 412 186 439 q 169 362 169 385 q 176 340 169 355 q 195 312 183 326 q 222 288 207 298 q 254 278 238 278 q 328 295 295 278 q 383 334 360 312 q 419 378 406 356 q 431 409 431 399 q 422 436 431 418 q 395 472 412 454 q 354 504 378 490 q 301 518 330 518 m 323 635 q 385 625 356 635 q 437 598 413 615 q 480 559 460 581 q 514 513 499 537 q 562 562 534 539 q 621 602 589 585 q 686 629 652 619 q 752 638 720 638 q 839 616 798 638 q 909 562 879 595 q 956 489 939 529 q 972 413 972 450 q 950 342 972 382 q 886 264 928 301 q 787 202 845 228 q 658 177 729 177 q 595 189 624 177 q 545 219 567 201 q 506 257 522 237 q 482 294 490 278 q 429 234 459 258 q 366 194 399 209 q 298 172 333 178 q 231 165 264 165 q 156 184 194 165 q 85 233 117 204 q 33 296 54 262 q 13 356 13 329 q 41 483 13 431 q 113 570 68 536 q 213 619 157 604 q 323 635 268 635 z "},"":{"ha":793,"x_min":37,"x_max":740,"o":"m 730 52 q 717 17 728 30 q 688 -2 706 5 q 645 -10 669 -8 q 591 -12 620 -12 q 572 -11 585 -12 q 541 -8 558 -9 q 504 -6 524 -7 q 465 -3 484 -4 q 432 -1 447 -2 q 408 0 416 0 q 381 0 398 0 q 340 -1 363 -1 q 291 -2 317 -2 q 235 -3 264 -3 q 151 -2 182 -3 q 102 1 119 -2 q 76 9 85 3 q 60 26 68 16 q 52 44 55 37 q 48 56 48 52 q 53 78 48 66 q 66 100 58 90 q 87 117 75 111 q 115 124 100 124 q 134 126 120 124 q 164 131 148 128 q 196 136 180 134 q 219 138 211 138 q 296 135 256 138 q 373 130 336 133 q 440 125 410 127 q 489 123 471 123 q 510 123 496 123 q 541 124 524 123 q 573 125 557 125 q 600 125 589 125 q 655 123 631 125 q 696 114 680 121 q 721 93 713 107 q 730 53 730 78 l 730 52 m 740 529 q 736 509 740 520 q 725 487 732 497 q 707 469 718 476 q 684 462 697 462 q 665 463 677 462 q 640 465 653 464 q 615 467 627 466 q 598 468 604 468 l 512 468 q 489 468 505 468 q 460 467 474 467 q 455 427 455 442 q 456 370 455 393 q 458 330 457 347 q 460 300 459 313 q 460 271 460 286 q 452 247 460 259 q 432 226 444 235 q 405 211 420 217 q 378 205 391 205 q 355 211 366 205 q 335 224 343 216 q 321 241 326 232 q 316 258 316 250 q 317 273 316 264 q 319 291 318 282 q 322 309 321 300 q 324 322 323 317 q 329 378 328 353 q 331 428 331 404 q 331 450 331 439 q 330 468 330 460 l 329 468 q 290 467 315 468 q 238 464 265 465 q 189 460 212 462 q 158 459 166 459 l 122 459 q 77 461 94 459 q 53 474 61 464 q 41 504 44 484 q 37 559 38 524 q 59 576 46 570 q 89 586 73 583 q 124 591 105 590 q 163 592 142 592 q 238 592 208 592 q 288 593 268 593 q 319 594 308 594 q 336 595 330 595 q 342 659 342 616 l 338 709 q 341 770 342 745 q 345 811 341 795 q 362 834 349 827 q 405 842 374 842 q 469 824 453 842 q 486 764 486 806 q 484 723 486 749 q 478 671 481 698 q 473 621 475 644 q 469 585 471 597 q 500 585 482 585 q 537 583 518 584 q 572 581 555 582 q 597 581 588 581 q 608 582 599 581 q 628 586 617 584 q 651 590 640 589 q 669 592 663 592 q 696 587 684 592 q 719 574 709 583 q 734 554 728 565 q 740 529 740 543 z "},"":{"ha":793,"x_min":62,"x_max":722,"o":"m 722 50 q 719 20 722 32 q 708 2 715 9 q 687 -6 700 -4 q 654 -9 674 -9 q 636 -8 647 -9 q 610 -4 625 -7 q 572 0 587 0 q 522 -1 546 0 q 473 -3 498 -2 l 467 -4 q 412 -7 441 -5 q 357 -8 384 -8 q 325 -7 345 -8 q 279 -4 305 -6 q 259 -2 267 -3 q 246 -1 252 -1 q 236 0 241 -1 q 226 0 232 0 q 204 -1 217 0 q 176 -3 192 -2 l 177 -3 q 170 -4 174 -4 q 163 -5 165 -4 q 134 -7 142 -7 q 82 13 102 -7 q 62 60 62 33 q 80 96 62 72 q 97 112 87 105 q 116 119 106 118 q 147 121 132 121 q 186 124 170 123 q 213 126 201 125 q 232 128 224 127 q 249 128 241 128 q 280 128 262 128 q 322 126 298 127 q 368 124 347 125 q 403 124 389 124 q 437 125 416 124 q 487 130 457 127 q 537 134 516 132 q 575 135 558 135 q 627 131 601 135 q 670 121 652 127 q 722 50 722 102 m 701 277 q 678 227 701 254 q 622 200 652 200 q 598 206 612 200 q 565 222 583 212 q 514 249 541 236 q 462 272 488 261 q 410 293 435 283 q 361 311 385 302 q 267 343 311 328 q 180 378 222 359 q 84 462 84 423 q 155 562 84 517 q 204 592 180 578 q 249 619 228 606 q 290 644 271 631 q 328 669 310 656 q 396 711 355 689 q 492 764 437 733 q 543 794 520 780 q 580 813 566 808 q 604 821 591 819 q 627 823 616 823 q 669 801 657 821 q 682 753 682 780 l 682 743 q 671 720 681 733 q 645 692 661 707 q 606 663 628 678 q 559 633 585 648 q 511 605 537 618 q 461 579 486 593 q 428 564 442 570 q 401 551 414 557 q 375 538 389 545 q 343 523 361 532 q 323 513 332 517 q 308 506 315 509 q 293 497 300 502 q 278 486 286 493 q 304 477 292 481 q 334 466 317 473 q 377 450 360 456 q 404 440 395 444 q 513 403 453 423 q 648 349 573 382 q 686 321 671 339 q 701 279 701 302 l 701 277 z "},"":{"ha":796,"x_min":66,"x_max":722,"o":"m 722 50 q 719 20 722 32 q 708 2 715 9 q 687 -6 700 -4 q 655 -9 674 -9 q 639 -7 650 -9 q 616 -4 629 -6 q 592 -1 604 -3 q 572 0 581 0 q 539 -1 557 0 q 497 -4 521 -3 q 443 -7 474 -5 q 370 -8 412 -8 l 218 0 q 203 -1 210 0 q 180 -3 196 -2 l 181 -3 q 154 -6 165 -6 q 138 -7 142 -7 q 86 13 106 -7 q 66 60 66 33 q 71 76 66 66 q 83 95 75 85 q 101 111 91 104 q 121 119 111 118 q 151 123 136 121 q 182 126 166 125 q 215 127 197 127 q 252 128 232 128 q 351 128 315 128 q 405 127 387 127 q 429 127 423 127 q 437 127 434 127 q 473 128 453 127 q 512 131 492 130 q 548 134 531 132 q 575 135 565 135 q 635 131 608 135 q 682 116 663 126 q 712 90 701 106 q 722 50 722 73 m 713 526 q 693 494 713 511 q 631 454 672 477 q 604 438 618 445 q 578 424 590 431 q 539 401 556 412 q 505 378 522 390 q 470 354 488 366 q 429 328 452 342 q 394 306 409 315 q 365 289 378 297 q 339 271 352 280 q 309 250 326 262 l 310 250 q 290 236 300 243 q 271 222 280 229 q 249 211 264 214 q 220 207 233 207 q 193 213 206 207 q 168 228 179 218 q 151 249 157 237 q 144 274 144 261 l 144 276 q 156 310 144 294 q 189 341 168 326 q 239 372 210 356 q 303 408 268 389 q 335 424 321 417 q 360 438 348 431 q 388 454 373 446 q 425 475 403 463 q 469 497 449 488 q 505 522 489 507 q 465 554 488 541 q 415 580 442 568 q 358 602 388 591 q 296 624 328 612 q 234 647 265 633 q 177 682 202 662 q 135 728 151 702 q 118 786 119 754 l 118 788 q 134 824 118 809 q 174 839 149 838 q 192 837 185 839 q 204 831 199 835 q 214 825 208 829 q 225 817 220 821 q 235 809 231 813 q 243 803 240 806 q 270 790 254 797 q 302 778 286 783 q 372 746 349 758 q 402 728 388 736 q 434 712 417 720 q 471 695 451 704 q 519 673 492 686 q 597 636 562 654 q 658 601 632 618 q 699 565 684 583 q 713 526 713 547 z "},"":{"ha":899,"x_min":37,"x_max":878,"o":"m 878 869 q 848 819 878 843 q 770 761 808 789 q 696 702 733 732 q 633 648 663 675 q 581 598 604 622 q 541 554 557 574 q 517 519 525 534 q 515 514 516 518 q 511 505 513 510 q 591 518 553 509 q 655 535 628 526 q 700 551 683 545 q 717 558 716 558 q 745 548 732 558 q 768 525 758 538 q 784 496 778 511 q 789 470 789 481 q 778 446 789 456 q 744 429 766 436 q 689 415 722 421 q 616 401 657 408 q 557 390 576 395 q 527 384 537 386 q 513 380 517 381 q 501 378 509 378 q 498 358 500 370 q 496 318 496 346 q 498 305 496 312 q 500 293 499 298 q 532 302 522 300 q 553 305 543 304 q 579 308 564 307 q 625 316 594 310 q 692 327 668 327 q 720 323 706 327 q 745 312 734 319 q 764 294 757 304 q 771 270 771 283 q 768 253 771 262 q 761 236 766 244 q 751 220 757 227 q 739 211 745 214 q 706 202 726 207 q 663 193 686 197 q 616 186 640 189 q 570 180 591 182 q 532 176 549 177 q 507 174 515 174 q 503 168 503 174 q 510 106 503 128 q 530 67 517 83 q 492 16 515 32 q 428 0 470 0 q 381 20 399 0 q 357 75 362 40 q 354 111 354 90 q 352 149 353 132 q 316 141 339 146 q 266 130 293 136 q 211 120 239 124 q 162 116 184 116 q 131 123 145 116 q 107 142 117 131 q 92 166 98 153 q 87 191 87 180 q 93 215 87 203 q 111 234 100 226 q 137 247 122 242 q 171 252 153 252 q 195 253 180 252 q 229 256 210 254 q 266 260 247 258 q 302 265 286 262 q 331 270 319 267 q 349 275 344 273 q 351 293 350 275 q 351 332 351 310 q 349 365 351 361 q 303 362 330 365 q 251 358 277 360 q 204 353 225 355 q 176 351 183 351 q 106 367 129 351 q 83 429 83 382 q 103 479 83 466 q 162 492 123 492 q 183 490 167 492 q 216 486 199 488 q 248 481 233 483 q 262 479 262 479 q 303 479 286 479 q 334 482 320 480 q 331 494 334 488 q 323 508 328 501 q 316 519 319 514 q 311 526 312 524 q 259 586 280 559 q 219 628 239 613 q 180 669 198 648 q 146 712 162 691 q 116 752 130 733 q 87 783 101 770 q 51 833 62 806 q 37 886 39 861 q 44 915 37 903 q 63 935 51 927 q 90 946 75 943 q 123 949 106 949 q 162 930 146 949 q 197 884 179 911 q 221 845 212 859 q 234 827 231 830 q 297 747 264 785 q 363 672 329 709 q 375 660 370 666 q 386 647 380 654 q 402 630 393 640 q 427 606 412 621 q 449 630 435 614 q 479 663 463 646 q 510 697 494 681 q 536 721 525 713 q 567 747 550 730 q 600 780 585 764 q 627 810 612 793 q 658 842 642 826 q 688 871 673 857 q 713 894 703 885 q 734 906 721 900 q 763 919 748 913 q 792 928 778 924 q 816 932 807 932 q 840 925 829 932 q 860 908 851 918 q 873 888 868 899 q 878 869 878 877 z "},"":{"ha":686,"x_min":24,"x_max":703,"o":"m 368 144 q 479 281 436 189 q 541 516 523 374 q 427 501 475 511 q 347 476 379 492 q 287 432 315 460 q 237 368 259 404 q 209 300 216 332 q 201 228 201 267 q 227 153 201 178 q 286 123 256 123 q 325 126 307 123 q 368 144 344 129 m 313 751 q 289 726 304 733 q 256 718 273 718 q 223 726 239 718 q 195 746 207 734 q 178 774 184 758 q 178 805 173 789 l 178 804 q 198 853 185 830 q 228 897 212 877 q 262 934 244 918 q 297 962 280 951 q 332 985 313 974 q 370 1005 351 996 q 409 1018 389 1013 q 446 1023 428 1023 q 477 1021 460 1023 q 511 1014 494 1019 q 544 1003 528 1009 q 570 989 559 997 l 570 989 q 612 951 595 973 q 639 913 629 930 q 688 788 672 859 q 703 623 703 718 q 688 443 703 530 q 645 281 673 355 q 614 210 631 245 q 576 144 597 175 q 533 86 556 113 q 484 42 510 60 q 433 10 458 24 q 381 -12 408 -3 q 321 -24 353 -20 q 250 -28 290 -28 q 201 -22 224 -28 q 157 -5 178 -16 q 119 19 137 5 q 86 50 102 33 q 24 229 24 117 q 51 373 24 305 q 130 494 79 441 q 299 597 194 560 q 545 640 404 635 q 540 723 543 687 q 531 784 536 759 q 495 860 520 833 q 438 887 471 887 q 376 859 410 887 q 357 834 367 851 q 336 793 347 817 q 325 773 330 784 q 313 751 320 762 l 313 751 z "},"":{"ha":1025,"x_min":35,"x_max":1006,"o":"m 1006 919 q 1001 904 1006 914 q 988 883 997 893 q 968 863 980 872 q 939 853 956 854 q 813 845 873 847 q 700 844 753 844 q 630 844 662 844 q 568 845 599 844 q 505 847 537 846 q 432 852 472 849 q 419 854 425 853 q 407 856 414 855 q 393 858 401 857 q 372 859 385 859 q 390 838 380 849 q 410 817 400 827 q 429 798 420 806 q 444 785 437 789 q 479 755 455 776 q 532 709 503 735 q 592 654 562 683 q 649 598 623 625 q 693 549 675 571 q 713 517 711 528 q 707 495 713 505 q 694 477 702 486 q 677 462 686 469 q 659 450 668 456 q 638 433 653 446 q 605 404 624 420 q 564 367 585 387 q 522 330 543 348 q 485 297 502 312 q 458 275 468 283 q 438 259 454 272 q 401 230 422 247 q 357 195 380 214 q 313 159 334 176 q 278 130 292 142 q 260 115 263 118 q 293 119 277 116 q 327 125 309 122 q 368 134 346 130 q 418 142 390 138 q 481 148 446 145 q 561 150 516 150 q 591 149 572 150 q 633 145 610 147 q 682 141 656 143 q 732 137 708 139 q 775 134 755 135 q 805 132 794 132 q 859 127 837 132 q 894 113 880 122 q 913 92 907 104 q 919 66 919 80 q 912 37 919 51 q 895 13 906 23 q 870 -4 884 2 q 840 -10 856 -10 q 760 -4 802 -7 q 679 1 718 -1 q 609 6 640 4 q 560 8 577 8 q 498 4 534 8 q 420 -4 463 0 q 380 -11 399 -6 q 339 -19 361 -15 q 291 -27 317 -24 q 230 -31 265 -31 l 123 -31 q 91 -26 106 -31 q 62 -13 75 -22 q 42 9 50 -5 q 35 41 35 22 q 49 97 35 69 q 85 152 63 125 q 137 203 108 178 q 194 251 165 229 q 249 293 222 274 q 294 328 275 313 q 320 351 303 336 q 357 385 337 366 q 399 422 378 403 q 439 458 420 441 q 473 488 458 475 q 492 505 487 500 q 502 513 497 509 q 507 525 507 517 q 488 550 507 530 q 440 596 470 569 q 375 654 411 623 q 304 715 339 686 q 238 768 269 744 q 190 806 208 793 q 183 814 186 809 q 178 827 180 820 q 175 840 176 833 q 174 850 174 846 q 177 872 174 864 q 186 885 181 880 q 199 896 192 891 q 212 909 205 901 q 211 918 211 913 q 211 926 211 922 q 219 969 211 953 q 241 995 227 985 q 274 1007 255 1004 q 316 1010 294 1010 q 332 1008 319 1010 q 360 1005 344 1007 q 395 1001 377 1003 q 429 996 414 998 q 455 992 445 994 q 465 991 465 991 q 550 989 501 989 q 652 989 600 989 q 752 990 704 989 q 835 991 800 991 q 912 988 880 991 q 965 977 945 985 q 996 955 986 968 q 1006 919 1006 941 z "},"":{"ha":1472,"x_min":44,"x_max":1535,"o":"m 1535 942 q 1522 906 1535 920 q 1491 887 1510 893 q 1449 878 1472 880 q 1404 876 1426 876 q 1362 881 1383 876 q 1320 891 1341 885 q 1277 901 1299 897 q 1234 905 1256 905 q 1220 894 1223 905 q 1217 857 1218 882 q 1215 837 1216 852 q 1213 802 1214 822 q 1211 760 1212 782 q 1208 717 1209 737 q 1207 681 1208 696 q 1206 659 1206 665 q 1204 627 1206 644 q 1200 592 1202 610 q 1195 559 1197 575 q 1191 528 1192 543 q 1179 375 1185 437 q 1169 269 1173 313 q 1163 194 1165 225 q 1160 132 1160 162 q 1157 70 1160 104 q 1143 6 1154 36 q 1111 -43 1132 -23 q 1057 -64 1090 -64 q 1015 -52 1031 -64 q 990 -22 999 -41 q 977 20 981 -4 q 974 68 974 43 q 977 118 974 83 q 983 195 979 153 q 992 281 987 237 q 1001 360 997 326 q 1006 409 1004 382 q 1012 463 1009 435 q 1018 516 1015 490 q 1022 561 1021 541 q 1025 593 1024 581 q 1027 604 1027 605 l 1048 897 q 1045 897 1046 897 q 1043 897 1044 897 q 982 894 1022 897 q 894 885 943 890 q 794 874 846 880 q 698 861 743 867 q 620 849 653 854 q 576 840 587 844 q 573 791 575 817 q 568 739 571 766 q 564 693 566 715 q 559 652 562 671 q 546 552 551 592 q 540 484 542 512 q 536 434 538 455 q 532 390 535 412 q 531 370 531 379 q 531 349 532 360 q 529 323 531 338 q 522 288 528 309 q 515 243 519 269 q 508 191 511 218 q 502 138 504 163 q 499 93 499 112 q 503 68 499 80 q 506 41 506 56 q 498 5 506 22 q 482 -20 492 -9 q 460 -39 472 -31 q 434 -51 448 -47 q 407 -55 420 -55 q 359 -36 378 -55 q 330 7 340 -18 q 316 55 319 31 q 312 90 312 79 q 316 125 313 93 q 327 209 320 158 q 341 324 333 260 q 357 456 349 389 q 373 587 365 523 q 387 701 380 650 q 397 782 393 751 q 401 814 401 813 q 364 814 387 814 q 317 812 341 813 q 269 811 292 812 q 229 810 245 810 q 212 806 222 810 q 189 798 201 802 q 164 789 176 793 q 142 785 152 785 q 104 789 122 785 q 73 801 87 793 q 52 824 60 810 q 44 858 44 838 q 56 909 44 890 q 91 939 68 928 q 142 953 113 949 q 208 956 172 956 q 292 959 254 956 q 350 964 330 961 q 384 969 363 967 q 427 972 404 970 q 474 975 450 973 q 517 980 498 977 q 613 996 570 989 q 697 1006 657 1002 q 774 1014 736 1010 q 850 1019 811 1017 q 873 1021 858 1019 q 908 1027 889 1024 q 1025 1043 953 1035 q 1197 1052 1097 1052 q 1273 1050 1235 1052 q 1348 1044 1312 1048 q 1416 1036 1383 1041 q 1474 1025 1448 1031 q 1500 1011 1489 1021 q 1519 989 1511 1001 q 1531 964 1527 977 q 1535 942 1535 951 z "},"":{"ha":380,"x_min":-260,"x_max":634,"o":"m 241 190 q 239 165 240 176 q 236 144 237 154 q 235 126 235 135 q 233 105 234 117 q 221 -59 228 24 q 193 -222 215 -142 q 159 -302 181 -264 q 106 -368 136 -340 q 37 -413 75 -397 q -45 -429 -1 -429 q -131 -410 -92 -429 q -200 -363 -171 -391 q -244 -304 -229 -335 q -260 -248 -260 -273 q -255 -228 -260 -238 q -241 -209 -249 -217 q -224 -195 -233 -201 q -212 -190 -216 -190 q -187 -199 -198 -190 q -159 -221 -176 -208 q -137 -241 -149 -231 q -112 -259 -125 -251 q -87 -273 -100 -268 q -60 -279 -74 -279 q -10 -257 -33 -279 q 26 -195 13 -235 q 45 -115 36 -168 q 62 6 54 -61 q 77 149 71 74 q 87 292 83 223 q 91 346 88 317 q 97 404 94 374 q 105 462 101 433 q 115 517 110 491 q 121 573 116 541 q 132 638 125 604 q 144 707 138 673 q 155 770 150 741 q 165 831 160 800 q 179 896 171 863 q 200 962 188 928 q 230 1030 212 996 q 273 1097 250 1068 q 326 1147 297 1126 q 391 1178 355 1167 q 469 1188 426 1188 q 533 1177 503 1188 q 585 1144 563 1165 q 621 1095 608 1124 q 634 1031 634 1066 q 632 1000 634 1019 q 624 961 629 981 q 611 919 619 940 q 592 881 603 898 q 566 854 581 865 q 534 844 552 844 q 501 856 515 844 q 488 888 488 868 q 489 919 488 903 q 491 948 491 935 q 478 1029 491 1005 q 447 1054 465 1054 q 423 1046 435 1054 q 400 1026 411 1039 q 379 996 389 1013 q 361 961 369 979 q 340 902 349 936 q 324 832 331 868 q 311 764 317 797 q 301 706 305 730 q 295 667 298 689 q 288 620 291 644 q 281 572 284 596 q 276 526 278 547 l 241 190 z "},"":{"ha":725,"x_min":74,"x_max":724,"o":"m 369 905 q 359 906 369 906 q 320 891 339 906 q 284 852 301 876 q 252 797 267 828 q 226 734 237 766 q 210 671 216 702 q 203 616 203 640 q 207 603 203 608 q 215 598 210 598 q 231 609 220 598 q 255 635 242 620 q 279 667 267 650 q 298 694 291 683 q 335 772 317 727 q 364 870 353 818 q 368 890 366 881 q 369 905 369 899 m 724 746 q 716 714 724 733 q 696 673 709 694 q 663 631 682 652 q 619 593 644 610 q 566 565 595 576 q 505 555 537 555 q 469 563 486 555 q 436 586 451 572 q 411 620 422 601 q 397 662 401 640 q 361 596 384 629 q 312 535 339 562 q 254 491 285 508 q 193 473 224 473 q 139 486 162 473 q 102 518 117 498 q 81 563 87 538 q 74 614 74 588 q 106 760 74 675 q 193 912 138 843 q 231 952 210 934 q 276 984 252 971 q 325 1005 300 998 q 375 1013 350 1013 q 439 983 414 1013 q 447 984 441 984 q 505 913 505 984 q 503 892 505 908 q 499 859 501 877 q 494 824 496 840 q 492 802 492 808 q 494 758 492 777 q 498 728 495 740 q 513 695 505 709 q 543 682 522 682 q 561 686 550 682 q 586 698 572 690 q 613 721 599 707 q 641 754 627 734 q 663 776 651 769 q 687 783 675 783 q 712 772 701 783 q 724 746 724 760 z "}}}
